<!-- Generated by readme-aura https://github.com/collectioneur/readme-aura -->
<svg width="860" height="70" viewBox="0 0 860 70" xmlns="http://www.w3.org/2000/svg"><defs><clipPath id="satori_bc-id"><path x="0" y="0" width="860" height="70" d="M16,0 h828 a16,16 0 0 1 16,16 v38 a16,16 0 0 1 -16,16 h-828 a16,16 0 0 1 -16,-16 v-38 a16,16 0 0 1 16,-16"/></clipPath></defs><mask id="satori_om-id"><rect x="1" y="1" width="858" height="68" fill="#fff"/><path width="860" height="70" fill="none" stroke="#000" stroke-width="2" d="M4.686,4.686 A16,16 0 0 1 16,0 h828 a16,16 0 0 1 16,16 v38 a16,16 0 0 1 -16,16 h-828 a16,16 0 0 1 -16,-16 v-38 A16,16 0 0 1 4.686,4.686"/></mask><path x="0" y="0" width="860" height="70" fill="#080c0a" d="M16,0 h828 a16,16 0 0 1 16,16 v38 a16,16 0 0 1 -16,16 h-828 a16,16 0 0 1 -16,-16 v-38 a16,16 0 0 1 16,-16"/><path width="860" height="70" clip-path="url(#satori_bc-id)" fill="none" stroke="rgba(33,187,133,0.15)" stroke-width="2" d="M4.686,4.686 A16,16 0 0 1 16,0 h828 a16,16 0 0 1 16,16 v38 a16,16 0 0 1 -16,16 h-828 a16,16 0 0 1 -16,-16 v-38 A16,16 0 0 1 4.686,4.686"/><mask id="satori_om-id-0"><rect x="41" y="22" width="455" height="27" fill="#fff"/></mask><mask id="satori_om-id-0-0"><rect x="41" y="22" width="164" height="27" fill="#fff"/></mask><mask id="satori_om-id-0-0-0"><rect x="41" y="22" width="164" height="12" fill="#fff"/></mask><g  ><path fill="rgba(33,187,133,0.4)" d="M43.6 24.4L44.4 24.4L42.0 33.1L41.2 33.1L43.6 24.4ZM47.2 24.4L48.0 24.4L45.6 33.1L44.8 33.1L47.2 24.4Z M54.1 32.1L54.1 32.1Q53.3 32.1 52.7 31.8Q52.1 31.4 51.8 30.8Q51.5 30.2 51.5 29.3Q51.5 28.5 51.8 27.8Q52.1 27.2 52.7 26.8Q53.2 26.5 54.0 26.5L54.0 26.5Q54.4 26.5 54.8 26.6Q55.3 26.8 55.6 27.1Q56.0 27.4 56.2 27.9Q56.4 28.4 56.4 29.2L56.4 29.2L56.4 29.6L52.4 29.6Q52.4 30.1 52.6 30.5L52.6 30.5Q52.8 30.9 53.2 31.1Q53.6 31.3 54.1 31.3L54.1 31.3Q54.4 31.3 54.7 31.2Q54.9 31.2 55.1 31.0Q55.3 30.8 55.4 30.5L55.4 30.5L56.3 30.7Q56.1 31.1 55.8 31.5Q55.5 31.8 55.1 31.9Q54.6 32.1 54.1 32.1ZM52.4 28.8L52.4 28.8L55.5 28.8Q55.4 28.5 55.3 28.1L55.3 28.1Q55.1 27.7 54.8 27.5Q54.5 27.3 54.0 27.3Q53.5 27.3 53.1 27.5Q52.8 27.7 52.6 28.1L52.6 28.1Q52.4 28.5 52.4 28.8ZM58.5 32L57.6 32L57.6 26.5L58.5 26.5L58.5 27.5Q58.6 27.2 58.8 27.0L58.8 27.0Q59.0 26.7 59.3 26.6Q59.7 26.4 60.0 26.4L60.0 26.4Q60.6 26.4 61.0 26.8L61.0 26.8Q61.3 27.1 61.4 27.6L61.4 27.6Q61.5 27.3 61.7 27.1L61.7 27.1Q61.9 26.8 62.3 26.6Q62.7 26.4 63.1 26.4L63.1 26.4Q63.6 26.4 64.0 26.6Q64.4 26.9 64.6 27.3Q64.8 27.7 64.8 28.3L64.8 28.3L64.8 32L64.0 32L64.0 28.3Q64.0 27.8 63.6 27.5Q63.3 27.2 62.9 27.2L62.9 27.2Q62.5 27.2 62.2 27.4Q62.0 27.6 61.8 27.8Q61.7 28.1 61.7 28.4L61.7 28.4L61.7 32L60.8 32L60.8 28.3Q60.8 27.8 60.5 27.5Q60.2 27.2 59.7 27.2L59.7 27.2Q59.4 27.2 59.1 27.4Q58.8 27.5 58.7 27.8Q58.5 28.1 58.5 28.6L58.5 28.6L58.5 32ZM67.9 32.1L67.9 32.1Q67.4 32.1 67.0 31.9Q66.5 31.7 66.3 31.4Q66.0 31.0 66.0 30.4L66.0 30.4Q66.0 30.0 66.2 29.7Q66.4 29.4 66.7 29.2Q67.0 29.1 67.4 29.0Q67.8 28.9 68.2 28.8L68.2 28.8Q68.7 28.8 69.0 28.7Q69.3 28.7 69.4 28.6Q69.6 28.5 69.6 28.3L69.6 28.3L69.6 28.3Q69.6 28.0 69.4 27.7Q69.3 27.5 69.1 27.4Q68.8 27.2 68.4 27.2L68.4 27.2Q68.0 27.2 67.8 27.4Q67.5 27.5 67.3 27.7Q67.1 27.9 67.0 28.0L67.0 28.0L66.2 27.8Q66.4 27.3 66.8 27.0Q67.1 26.7 67.6 26.6Q68.0 26.5 68.4 26.5L68.4 26.5Q68.7 26.5 69.0 26.5Q69.4 26.6 69.7 26.8Q70.0 27.0 70.2 27.4Q70.5 27.8 70.5 28.4L70.5 28.4L70.5 32L69.6 32L69.6 31.3L69.5 31.3Q69.4 31.4 69.2 31.7Q69.0 31.9 68.7 32.0Q68.4 32.1 67.9 32.1ZM68.1 31.4L68.1 31.4Q68.5 31.4 68.9 31.2Q69.2 31.0 69.4 30.7Q69.6 30.4 69.6 30.0L69.6 30.0L69.6 29.3Q69.5 29.3 69.3 29.4Q69.2 29.4 68.9 29.5Q68.7 29.5 68.5 29.5Q68.3 29.6 68.1 29.6L68.1 29.6Q67.8 29.6 67.5 29.7Q67.3 29.8 67.1 30.0Q66.9 30.2 66.9 30.5L66.9 30.5Q66.9 30.8 67.1 31.0Q67.2 31.2 67.5 31.3Q67.7 31.4 68.1 31.4ZM72.9 32L72.0 32L72.0 26.5L72.9 26.5L72.9 32ZM72.4 25.6L72.4 25.6Q72.2 25.6 72.0 25.5Q71.8 25.3 71.8 25.1L71.8 25.1Q71.8 24.8 72.0 24.7Q72.2 24.5 72.4 24.5L72.4 24.5Q72.7 24.5 72.9 24.7Q73.1 24.8 73.1 25.1L73.1 25.1Q73.1 25.3 72.9 25.5Q72.7 25.6 72.4 25.6ZM74.4 24.7L75.3 24.7L75.3 32L74.4 32L74.4 24.7Z "/></g><mask id="satori_om-id-0-0-1"><rect x="41" y="36" width="164" height="13" fill="#fff"/></mask><g  ><path fill="rgba(33,230,160,0.8)" d="M43.3 47L41.7 47L41.7 39.0L43.3 39.0L43.3 43.3L43.4 43.3L45.4 41.0L47.2 41.0L45.0 43.6L47.3 47L45.4 47L43.8 44.6L43.3 45.1L43.3 47ZM50.1 47.1L50.1 47.1Q49.5 47.1 49.0 46.8Q48.6 46.5 48.3 46.0Q48.1 45.5 48.1 44.8L48.1 44.8L48.1 41.0L49.7 41.0L49.7 44.5Q49.7 45.1 50.0 45.4Q50.3 45.7 50.8 45.7L50.8 45.7Q51.1 45.7 51.4 45.6Q51.6 45.4 51.8 45.1Q51.9 44.9 51.9 44.5L51.9 44.5L51.9 41.0L53.5 41.0L53.5 47L52.0 47L52.0 45.7Q51.8 46.3 51.4 46.7L51.4 46.7Q50.9 47.1 50.1 47.1ZM57.3 47.1L57.3 47.1Q56.6 47.1 56.0 46.9Q55.5 46.7 55.1 46.3Q54.8 45.9 54.6 45.4L54.6 45.4L56.1 45.1Q56.3 45.5 56.6 45.7Q56.9 45.9 57.3 45.9L57.3 45.9Q57.8 45.9 58.1 45.8Q58.3 45.6 58.3 45.3L58.3 45.3Q58.3 45.1 58.2 44.9Q58.0 44.8 57.6 44.7L57.6 44.7L56.5 44.5Q55.7 44.3 55.2 43.9Q54.8 43.5 54.8 42.8L54.8 42.8Q54.8 42.2 55.1 41.8Q55.4 41.4 56.0 41.1Q56.6 40.9 57.3 40.9L57.3 40.9Q58.0 40.9 58.6 41.1Q59.1 41.3 59.4 41.7Q59.7 42.0 59.8 42.5L59.8 42.5L58.4 42.8Q58.3 42.5 58.1 42.3Q57.8 42.1 57.3 42.1L57.3 42.1Q57.0 42.1 56.7 42.2Q56.4 42.4 56.4 42.7L56.4 42.7Q56.4 42.9 56.6 43.1Q56.8 43.2 57.2 43.3L57.2 43.3L58.3 43.5Q59.1 43.7 59.6 44.1Q60.0 44.5 60.0 45.1L60.0 45.1Q60.0 45.7 59.6 46.2Q59.3 46.6 58.7 46.9Q58.1 47.1 57.3 47.1ZM62.7 43.5L62.7 43.5L62.7 47L61.1 47L61.1 39.0L62.7 39.0L62.7 42.1Q62.9 41.6 63.2 41.3L63.2 41.3Q63.7 40.9 64.5 40.9L64.5 40.9Q65.1 40.9 65.6 41.2Q66.0 41.5 66.3 42.0Q66.6 42.5 66.6 43.2L66.6 43.2L66.6 47L64.9 47L64.9 43.5Q64.9 42.9 64.7 42.6Q64.4 42.3 63.9 42.3L63.9 42.3Q63.5 42.3 63.2 42.4Q63.0 42.6 62.8 42.8Q62.7 43.1 62.7 43.5ZM69.6 47.1L69.6 47.1Q69.0 47.1 68.6 46.9Q68.1 46.7 67.9 46.3Q67.6 45.9 67.6 45.3L67.6 45.3Q67.6 44.8 67.8 44.5Q68.0 44.1 68.3 43.9Q68.6 43.7 69.0 43.6Q69.4 43.5 69.9 43.5L69.9 43.5Q70.4 43.4 70.7 43.4Q71.0 43.3 71.2 43.2Q71.3 43.1 71.3 42.9L71.3 42.9L71.3 42.9Q71.3 42.7 71.2 42.5Q71.1 42.3 70.9 42.2Q70.7 42.1 70.4 42.1L70.4 42.1Q70.1 42.1 69.8 42.2Q69.6 42.3 69.5 42.5Q69.3 42.6 69.3 42.8L69.3 42.8L67.8 42.6Q67.9 42.0 68.3 41.7Q68.7 41.3 69.2 41.1Q69.7 40.9 70.4 40.9L70.4 40.9Q70.9 40.9 71.3 41.0Q71.8 41.2 72.1 41.4Q72.5 41.6 72.7 42.0Q72.9 42.4 72.9 43.0L72.9 43.0L72.9 47L71.4 47L71.4 46.2L71.4 46.2Q71.2 46.4 71.0 46.7Q70.7 46.9 70.4 47.0Q70.0 47.1 69.6 47.1ZM70.1 46.0L70.1 46.0Q70.4 46.0 70.7 45.8Q71.0 45.7 71.2 45.4Q71.3 45.2 71.3 44.9L71.3 44.9L71.3 44.2Q71.3 44.3 71.1 44.3Q71.0 44.3 70.8 44.4Q70.6 44.4 70.4 44.4Q70.3 44.5 70.1 44.5L70.1 44.5Q69.8 44.5 69.6 44.6Q69.4 44.7 69.3 44.9Q69.1 45.0 69.1 45.3L69.1 45.3Q69.1 45.5 69.3 45.7Q69.4 45.8 69.6 45.9Q69.8 46.0 70.1 46.0ZM77.0 49.4L77.0 49.4Q76.2 49.4 75.7 49.2Q75.1 49.0 74.8 48.7Q74.4 48.3 74.3 47.9L74.3 47.9L75.7 47.5Q75.7 47.7 75.9 47.8Q76.1 48.0 76.3 48.1Q76.6 48.2 77.0 48.2L77.0 48.2Q77.6 48.2 77.9 47.9Q78.3 47.6 78.3 47.0L78.3 47.0L78.3 45.9L78.2 45.9Q78.1 46.2 77.9 46.4Q77.7 46.6 77.3 46.8Q77.0 46.9 76.5 46.9L76.5 46.9Q75.8 46.9 75.3 46.6Q74.7 46.3 74.4 45.6Q74.1 45.0 74.1 44.0L74.1 44.0Q74.1 43.0 74.4 42.3Q74.7 41.6 75.3 41.3Q75.8 40.9 76.5 40.9L76.5 40.9Q77.0 40.9 77.4 41.1Q77.7 41.3 77.9 41.5Q78.1 41.8 78.2 42.0L78.2 42.0L78.3 42.0L78.3 41.0L79.9 41.0L79.9 47.0Q79.9 47.8 79.5 48.3Q79.1 48.8 78.5 49.1Q77.8 49.4 77.0 49.4ZM77.0 45.7L77.0 45.7Q77.4 45.7 77.7 45.5Q78.0 45.3 78.1 44.9Q78.3 44.5 78.3 44.0L78.3 44.0Q78.3 43.4 78.1 43.0Q78.0 42.6 77.7 42.4Q77.4 42.2 77.0 42.2L77.0 42.2Q76.6 42.2 76.3 42.4Q76.0 42.7 75.9 43.1Q75.7 43.5 75.7 44.0L75.7 44.0Q75.7 44.5 75.9 44.9Q76.0 45.3 76.3 45.5Q76.6 45.7 77.0 45.7ZM82.9 47L81.3 47L81.3 41.0L82.8 41.0L82.8 42.0L82.9 42.0Q83.1 41.5 83.4 41.2Q83.8 40.9 84.3 40.9L84.3 40.9Q84.5 40.9 84.6 40.9Q84.7 40.9 84.9 41.0L84.9 41.0L84.9 42.4Q84.7 42.4 84.5 42.3Q84.3 42.3 84.2 42.3L84.2 42.3Q83.8 42.3 83.5 42.5Q83.2 42.6 83.0 42.9Q82.9 43.2 82.9 43.6L82.9 43.6L82.9 47ZM87.4 47.1L87.4 47.1Q86.8 47.1 86.4 46.9Q85.9 46.7 85.7 46.3Q85.4 45.9 85.4 45.3L85.4 45.3Q85.4 44.8 85.6 44.5Q85.8 44.1 86.1 43.9Q86.4 43.7 86.8 43.6Q87.2 43.5 87.7 43.5L87.7 43.5Q88.2 43.4 88.5 43.4Q88.8 43.3 89.0 43.2Q89.1 43.1 89.1 42.9L89.1 42.9L89.1 42.9Q89.1 42.7 89.0 42.5Q88.9 42.3 88.7 42.2Q88.5 42.1 88.2 42.1L88.2 42.1Q87.9 42.1 87.7 42.2Q87.4 42.3 87.3 42.5Q87.1 42.6 87.1 42.8L87.1 42.8L85.6 42.6Q85.7 42.0 86.1 41.7Q86.5 41.3 87.0 41.1Q87.5 40.9 88.2 40.9L88.2 40.9Q88.7 40.9 89.1 41.0Q89.6 41.2 90.0 41.4Q90.3 41.6 90.5 42.0Q90.8 42.4 90.8 43.0L90.8 43.0L90.8 47L89.2 47L89.2 46.2L89.2 46.2Q89.0 46.4 88.8 46.7Q88.5 46.9 88.2 47.0Q87.9 47.1 87.4 47.1ZM87.9 46.0L87.9 46.0Q88.3 46.0 88.5 45.8Q88.8 45.7 89.0 45.4Q89.2 45.2 89.2 44.9L89.2 44.9L89.2 44.2Q89.1 44.3 88.9 44.3Q88.8 44.3 88.6 44.4Q88.4 44.4 88.3 44.4Q88.1 44.5 88.0 44.5L88.0 44.5Q87.7 44.5 87.4 44.6Q87.2 44.7 87.1 44.9Q87.0 45.0 87.0 45.3L87.0 45.3Q87.0 45.5 87.1 45.7Q87.2 45.8 87.4 45.9Q87.6 46.0 87.9 46.0ZM93.7 47L92.1 47L92.1 41.0L93.6 41.0L93.7 42.2Q93.8 41.8 94.0 41.6L94.0 41.6Q94.3 41.2 94.6 41.1Q95.0 40.9 95.4 40.9L95.4 40.9Q96.0 40.9 96.4 41.3L96.4 41.3Q96.8 41.6 96.9 42.2L96.9 42.2Q97.1 41.9 97.3 41.6L97.3 41.6Q97.6 41.3 98.0 41.1Q98.4 40.9 98.9 40.9L98.9 40.9Q99.4 40.9 99.9 41.1Q100.3 41.4 100.5 41.8Q100.8 42.3 100.8 43.0L100.8 43.0L100.8 47L99.2 47L99.2 43.3Q99.2 42.7 98.9 42.5Q98.6 42.3 98.2 42.3L98.2 42.3Q97.9 42.3 97.7 42.4Q97.5 42.5 97.4 42.8Q97.2 43.0 97.2 43.3L97.2 43.3L97.2 47L95.7 47L95.7 43.2Q95.7 42.8 95.4 42.5Q95.2 42.3 94.7 42.3L94.7 42.3Q94.5 42.3 94.2 42.4Q94.0 42.5 93.9 42.8Q93.7 43.0 93.7 43.4L93.7 43.4L93.7 47ZM104.9 47.1L104.9 47.1Q104.0 47.1 103.3 46.7Q102.6 46.4 102.3 45.7Q101.9 45.0 101.9 44.0L101.9 44.0Q101.9 43.1 102.3 42.4Q102.6 41.7 103.3 41.3Q103.9 40.9 104.8 40.9L104.8 40.9Q105.4 40.9 105.9 41.1Q106.4 41.3 106.8 41.7Q107.2 42.1 107.4 42.6Q107.6 43.2 107.6 44.0L107.6 44.0L107.6 44.4L103.5 44.4Q103.5 44.9 103.7 45.2L103.7 45.2Q103.9 45.5 104.2 45.7Q104.5 45.9 104.9 45.9L104.9 45.9Q105.2 45.9 105.4 45.8Q105.7 45.7 105.8 45.6Q106.0 45.4 106.1 45.2L106.1 45.2L107.5 45.5Q107.4 46.0 107.0 46.3Q106.7 46.7 106.1 46.9Q105.6 47.1 104.9 47.1ZM103.5 43.4L103.5 43.4L106.1 43.4Q106.0 43.1 105.9 42.9L105.9 42.9Q105.8 42.5 105.5 42.3Q105.2 42.1 104.8 42.1L104.8 42.1Q104.4 42.1 104.1 42.3Q103.8 42.5 103.7 42.8L103.7 42.8Q103.5 43.1 103.5 43.4ZM110.3 43.5L110.3 43.5L110.3 47L108.7 47L108.7 39.0L110.3 39.0L110.3 42.1Q110.5 41.6 110.9 41.3L110.9 41.3Q111.4 40.9 112.1 40.9L112.1 40.9Q112.8 40.9 113.2 41.2Q113.7 41.5 113.9 42.0Q114.2 42.5 114.2 43.2L114.2 43.2L114.2 47L112.6 47L112.6 43.5Q112.6 42.9 112.3 42.6Q112.0 42.3 111.5 42.3L111.5 42.3Q111.2 42.3 110.9 42.4Q110.6 42.6 110.5 42.8Q110.3 43.1 110.3 43.5ZM117.4 41.0L118.5 41.0L118.5 42.2L117.4 42.2L117.4 45.2Q117.4 45.5 117.6 45.7Q117.7 45.8 118.0 45.8L118.0 45.8Q118.1 45.8 118.2 45.8Q118.4 45.8 118.5 45.7L118.5 45.7L118.7 46.9Q118.4 47.0 118.2 47.1Q117.9 47.1 117.7 47.1L117.7 47.1Q116.8 47.1 116.3 46.6Q115.8 46.2 115.8 45.4L115.8 45.4L115.8 42.2L115.0 42.2L115.0 41.0L115.8 41.0L115.8 39.6L117.4 39.6L117.4 41.0ZM121.3 47.1L121.3 47.1Q120.7 47.1 120.2 46.9Q119.8 46.7 119.5 46.3Q119.3 45.9 119.3 45.3L119.3 45.3Q119.3 44.8 119.5 44.5Q119.6 44.1 120.0 43.9Q120.3 43.7 120.7 43.6Q121.1 43.5 121.5 43.5L121.5 43.5Q122.1 43.4 122.4 43.4Q122.7 43.3 122.8 43.2Q123.0 43.1 123.0 42.9L123.0 42.9L123.0 42.9Q123.0 42.7 122.9 42.5Q122.8 42.3 122.6 42.2Q122.4 42.1 122.1 42.1L122.1 42.1Q121.7 42.1 121.5 42.2Q121.3 42.3 121.1 42.5Q121.0 42.6 120.9 42.8L120.9 42.8L119.4 42.6Q119.6 42.0 120.0 41.7Q120.3 41.3 120.9 41.1Q121.4 40.9 122.1 40.9L122.1 40.9Q122.5 40.9 123.0 41.0Q123.5 41.2 123.8 41.4Q124.2 41.6 124.4 42.0Q124.6 42.4 124.6 43.0L124.6 43.0L124.6 47L123.1 47L123.1 46.2L123.0 46.2Q122.9 46.4 122.6 46.7Q122.4 46.9 122.1 47.0Q121.7 47.1 121.3 47.1ZM121.7 46.0L121.7 46.0Q122.1 46.0 122.4 45.8Q122.7 45.7 122.8 45.4Q123.0 45.2 123.0 44.9L123.0 44.9L123.0 44.2Q122.9 44.3 122.8 44.3Q122.6 44.3 122.5 44.4Q122.3 44.4 122.1 44.4Q121.9 44.5 121.8 44.5L121.8 44.5Q121.5 44.5 121.3 44.6Q121.1 44.7 120.9 44.9Q120.8 45.0 120.8 45.3L120.8 45.3Q120.8 45.5 120.9 45.7Q121.1 45.8 121.3 45.9Q121.5 46.0 121.7 46.0ZM131.6 47L126.0 47L126.0 45.8L128.8 43.2Q129.2 42.8 129.4 42.5Q129.7 42.2 129.8 42.0Q129.9 41.7 129.9 41.4L129.9 41.4Q129.9 41.0 129.8 40.7Q129.6 40.5 129.3 40.3Q129.0 40.2 128.7 40.2L128.7 40.2Q128.3 40.2 128.0 40.4Q127.8 40.5 127.6 40.8Q127.5 41.1 127.5 41.5L127.5 41.5L125.9 41.5Q125.9 40.7 126.2 40.1Q126.6 39.5 127.2 39.2Q127.9 38.9 128.7 38.9L128.7 38.9Q129.5 38.9 130.2 39.2Q130.8 39.5 131.2 40.0Q131.5 40.6 131.5 41.3L131.5 41.3Q131.5 41.7 131.3 42.1Q131.2 42.6 130.7 43.1Q130.3 43.6 129.4 44.4L129.4 44.4L128.2 45.6L128.2 45.7L131.6 45.7L131.6 47ZM134.5 39.0L136.2 39.0L136.2 47L134.6 47L134.6 40.4L134.6 40.4L132.7 41.7L132.7 40.2L134.5 39.0ZM142.7 49.3L142.7 49.3Q141.4 49.3 140.5 49.0Q139.5 48.6 138.8 48.0Q138.2 47.3 137.8 46.4Q137.5 45.4 137.5 44.2L137.5 44.2Q137.5 43.1 137.8 42.1Q138.1 41.2 138.8 40.5Q139.5 39.8 140.4 39.4Q141.4 39.1 142.6 39.1L142.6 39.1Q143.8 39.1 144.7 39.4Q145.6 39.7 146.3 40.4Q147.0 41.0 147.3 41.8Q147.6 42.7 147.6 43.7L147.6 43.7Q147.6 44.3 147.5 44.9Q147.4 45.5 147.1 45.9Q146.9 46.4 146.4 46.6Q146.0 46.9 145.4 46.9L145.4 46.9Q145.1 46.9 144.8 46.8Q144.4 46.7 144.2 46.5Q144.0 46.3 144.0 46.0L144.0 46.0L143.9 46.0Q143.8 46.4 143.4 46.6Q142.9 46.9 142.3 46.9L142.3 46.9Q141.6 46.9 141.1 46.5Q140.5 46.2 140.3 45.6Q140.0 45.0 140.0 44.2L140.0 44.2Q140.0 43.4 140.3 42.8Q140.6 42.2 141.1 41.8Q141.6 41.5 142.3 41.5L142.3 41.5Q142.9 41.5 143.2 41.7Q143.6 41.9 143.8 42.2L143.8 42.2L143.8 42.2L143.8 41.6L144.9 41.6L144.9 45.2Q144.9 45.5 145.1 45.7Q145.2 45.8 145.4 45.8L145.4 45.8Q145.8 45.8 146.0 45.6Q146.2 45.4 146.2 44.9Q146.3 44.5 146.3 43.8L146.3 43.8Q146.3 43.0 146.1 42.3Q145.9 41.7 145.4 41.2Q145.0 40.8 144.3 40.5Q143.6 40.3 142.7 40.3L142.7 40.3Q141.8 40.3 141.0 40.5Q140.3 40.8 139.8 41.3Q139.3 41.8 139.1 42.6Q138.8 43.3 138.8 44.2L138.8 44.2Q138.8 45.1 139.1 45.9Q139.3 46.6 139.8 47.1Q140.3 47.6 141.1 47.8Q141.8 48.1 142.8 48.1L142.8 48.1Q143.2 48.1 143.6 48.0Q144.0 47.9 144.4 47.8Q144.7 47.7 144.9 47.6L144.9 47.6L145.3 48.8Q145.1 48.9 144.7 49.0Q144.2 49.1 143.7 49.2Q143.2 49.3 142.7 49.3ZM142.5 45.7L142.5 45.7Q142.9 45.7 143.2 45.5Q143.5 45.4 143.6 45.0Q143.8 44.7 143.8 44.2L143.8 44.2Q143.8 43.6 143.6 43.3Q143.5 43.0 143.2 42.9Q142.9 42.7 142.5 42.7L142.5 42.7Q142.1 42.7 141.8 42.9Q141.5 43.1 141.3 43.4Q141.2 43.7 141.2 44.1L141.2 44.1Q141.2 44.6 141.3 45.0Q141.5 45.3 141.7 45.5Q142.0 45.7 142.5 45.7ZM151.5 49.4L151.5 49.4Q150.7 49.4 150.2 49.2Q149.6 49.0 149.3 48.7Q148.9 48.3 148.8 47.9L148.8 47.9L150.2 47.5Q150.3 47.7 150.4 47.8Q150.6 48.0 150.8 48.1Q151.1 48.2 151.5 48.2L151.5 48.2Q152.1 48.2 152.5 47.9Q152.8 47.6 152.8 47.0L152.8 47.0L152.8 45.9L152.7 45.9Q152.6 46.2 152.4 46.4Q152.2 46.6 151.8 46.8Q151.5 46.9 151.0 46.9L151.0 46.9Q150.3 46.9 149.8 46.6Q149.2 46.3 148.9 45.6Q148.6 45.0 148.6 44.0L148.6 44.0Q148.6 43.0 148.9 42.3Q149.2 41.6 149.8 41.3Q150.4 40.9 151.0 40.9L151.0 40.9Q151.5 40.9 151.9 41.1Q152.2 41.3 152.4 41.5Q152.6 41.8 152.8 42.0L152.8 42.0L152.8 42.0L152.8 41.0L154.4 41.0L154.4 47.0Q154.4 47.8 154.0 48.3Q153.7 48.8 153.0 49.1Q152.3 49.4 151.5 49.4ZM151.5 45.7L151.5 45.7Q151.9 45.7 152.2 45.5Q152.5 45.3 152.7 44.9Q152.8 44.5 152.8 44.0L152.8 44.0Q152.8 43.4 152.7 43.0Q152.5 42.6 152.2 42.4Q151.9 42.2 151.5 42.2L151.5 42.2Q151.1 42.2 150.8 42.4Q150.5 42.7 150.4 43.1Q150.2 43.5 150.2 44.0L150.2 44.0Q150.2 44.5 150.4 44.9Q150.5 45.3 150.8 45.5Q151.1 45.7 151.5 45.7ZM157.4 47L155.8 47L155.8 41.0L157.3 41.0L157.3 42.2Q157.5 41.8 157.6 41.6L157.6 41.6Q157.9 41.2 158.3 41.1Q158.6 40.9 159.1 40.9L159.1 40.9Q159.7 40.9 160.1 41.3L160.1 41.3Q160.4 41.6 160.6 42.2L160.6 42.2Q160.7 41.9 160.9 41.6L160.9 41.6Q161.2 41.3 161.7 41.1Q162.1 40.9 162.5 40.9L162.5 40.9Q163.1 40.9 163.5 41.1Q163.9 41.4 164.2 41.8Q164.4 42.3 164.4 43.0L164.4 43.0L164.4 47L162.8 47L162.8 43.3Q162.8 42.7 162.6 42.5Q162.3 42.3 161.9 42.3L161.9 42.3Q161.6 42.3 161.4 42.4Q161.1 42.5 161.0 42.8Q160.9 43.0 160.9 43.3L160.9 43.3L160.9 47L159.3 47L159.3 43.2Q159.3 42.8 159.1 42.5Q158.8 42.3 158.4 42.3L158.4 42.3Q158.1 42.3 157.9 42.4Q157.7 42.5 157.5 42.8Q157.4 43.0 157.4 43.4L157.4 43.4L157.4 47ZM167.5 47.1L167.5 47.1Q166.9 47.1 166.5 46.9Q166.0 46.7 165.8 46.3Q165.5 45.9 165.5 45.3L165.5 45.3Q165.5 44.8 165.7 44.5Q165.9 44.1 166.2 43.9Q166.5 43.7 166.9 43.6Q167.3 43.5 167.8 43.5L167.8 43.5Q168.3 43.4 168.6 43.4Q168.9 43.3 169.1 43.2Q169.2 43.1 169.2 42.9L169.2 42.9L169.2 42.9Q169.2 42.7 169.1 42.5Q169.0 42.3 168.8 42.2Q168.6 42.1 168.3 42.1L168.3 42.1Q168.0 42.1 167.7 42.2Q167.5 42.3 167.4 42.5Q167.2 42.6 167.1 42.8L167.1 42.8L165.7 42.6Q165.8 42.0 166.2 41.7Q166.5 41.3 167.1 41.1Q167.6 40.9 168.3 40.9L168.3 40.9Q168.8 40.9 169.2 41.0Q169.7 41.2 170.0 41.4Q170.4 41.6 170.6 42.0Q170.8 42.4 170.8 43.0L170.8 43.0L170.8 47L169.3 47L169.3 46.2L169.3 46.2Q169.1 46.4 168.9 46.7Q168.6 46.9 168.3 47.0Q167.9 47.1 167.5 47.1ZM168.0 46.0L168.0 46.0Q168.3 46.0 168.6 45.8Q168.9 45.7 169.1 45.4Q169.2 45.2 169.2 44.9L169.2 44.9L169.2 44.2Q169.2 44.3 169.0 44.3Q168.9 44.3 168.7 44.4Q168.5 44.4 168.3 44.4Q168.2 44.5 168.0 44.5L168.0 44.5Q167.7 44.5 167.5 44.6Q167.3 44.7 167.2 44.9Q167.0 45.0 167.0 45.3L167.0 45.3Q167.0 45.5 167.2 45.7Q167.3 45.8 167.5 45.9Q167.7 46.0 168.0 46.0ZM173.8 47L172.2 47L172.2 41.0L173.8 41.0L173.8 47ZM173.0 40.2L173.0 40.2Q172.6 40.2 172.4 40.0Q172.1 39.7 172.1 39.4L172.1 39.4Q172.1 39.0 172.4 38.8Q172.6 38.6 173.0 38.6L173.0 38.6Q173.4 38.6 173.6 38.8Q173.9 39.0 173.9 39.4L173.9 39.4Q173.9 39.7 173.6 40.0Q173.4 40.2 173.0 40.2ZM175.2 39.0L176.8 39.0L176.8 47L175.2 47L175.2 39.0ZM179.3 47.1L179.3 47.1Q178.9 47.1 178.7 46.8Q178.4 46.6 178.4 46.2L178.4 46.2Q178.4 45.8 178.7 45.5Q178.9 45.3 179.3 45.3L179.3 45.3Q179.7 45.3 180.0 45.5Q180.2 45.8 180.2 46.2L180.2 46.2Q180.2 46.6 180.0 46.8Q179.7 47.1 179.3 47.1ZM184.5 47.1L184.5 47.1Q183.6 47.1 183.0 46.7Q182.3 46.3 181.9 45.6Q181.6 44.9 181.6 44.0L181.6 44.0Q181.6 43.1 181.9 42.4Q182.3 41.7 183.0 41.3Q183.6 40.9 184.5 40.9L184.5 40.9Q185.1 40.9 185.5 41.1Q186.0 41.2 186.3 41.5Q186.7 41.7 186.9 42.1Q187.1 42.5 187.2 42.9L187.2 42.9L185.7 43.2Q185.6 43.0 185.5 42.8Q185.4 42.6 185.3 42.5Q185.2 42.3 185.0 42.3Q184.8 42.2 184.5 42.2L184.5 42.2Q184.1 42.2 183.8 42.4Q183.5 42.6 183.4 43.1Q183.2 43.5 183.2 44.0L183.2 44.0Q183.2 44.6 183.4 45.0Q183.5 45.4 183.8 45.6Q184.1 45.9 184.5 45.9L184.5 45.9Q184.8 45.9 185.0 45.8Q185.2 45.7 185.3 45.6Q185.5 45.4 185.6 45.2Q185.7 45.0 185.7 44.8L185.7 44.8L187.2 45.1Q187.1 45.6 186.9 45.9Q186.7 46.3 186.3 46.6Q186.0 46.8 185.5 47.0Q185.1 47.1 184.5 47.1ZM191.0 47.1L191.0 47.1Q190.1 47.1 189.4 46.7Q188.8 46.3 188.4 45.6Q188.1 44.9 188.1 44.0L188.1 44.0Q188.1 43.1 188.4 42.4Q188.8 41.7 189.4 41.3Q190.1 40.9 191.0 40.9L191.0 40.9Q191.9 40.9 192.6 41.3Q193.2 41.7 193.6 42.4Q193.9 43.1 193.9 44.0L193.9 44.0Q193.9 44.9 193.6 45.6Q193.2 46.3 192.6 46.7Q191.9 47.1 191.0 47.1ZM191.0 45.9L191.0 45.9Q191.4 45.9 191.7 45.6Q192.0 45.4 192.2 45.0Q192.3 44.5 192.3 44.0L192.3 44.0Q192.3 43.5 192.2 43.1Q192.0 42.7 191.7 42.4Q191.4 42.2 191.0 42.2L191.0 42.2Q190.6 42.2 190.3 42.4Q190.0 42.7 189.8 43.1Q189.7 43.5 189.7 44.0L189.7 44.0Q189.7 44.5 189.8 45.0Q190.0 45.4 190.3 45.6Q190.6 45.9 191.0 45.9ZM196.7 47L195.1 47L195.1 41.0L196.6 41.0L196.6 42.2Q196.7 41.8 196.9 41.6L196.9 41.6Q197.2 41.2 197.6 41.1Q197.9 40.9 198.3 40.9L198.3 40.9Q199.0 40.9 199.4 41.3L199.4 41.3Q199.7 41.6 199.9 42.2L199.9 42.2Q200.0 41.9 200.2 41.6L200.2 41.6Q200.5 41.3 200.9 41.1Q201.3 40.9 201.8 40.9L201.8 40.9Q202.4 40.9 202.8 41.1Q203.2 41.4 203.5 41.8Q203.7 42.3 203.7 43.0L203.7 43.0L203.7 47L202.1 47L202.1 43.3Q202.1 42.7 201.8 42.5Q201.6 42.3 201.2 42.3L201.2 42.3Q200.9 42.3 200.6 42.4Q200.4 42.5 200.3 42.8Q200.2 43.0 200.2 43.3L200.2 43.3L200.2 47L198.6 47L198.6 43.2Q198.6 42.8 198.3 42.5Q198.1 42.3 197.7 42.3L197.7 42.3Q197.4 42.3 197.2 42.4Q196.9 42.5 196.8 42.8Q196.7 43.0 196.7 43.4L196.7 43.4L196.7 47Z "/></g><mask id="satori_om-id-0-1"><rect x="233" y="22" width="156" height="27" fill="#fff"/></mask><mask id="satori_om-id-0-1-0"><rect x="233" y="22" width="156" height="12" fill="#fff"/></mask><g  ><path fill="rgba(33,187,133,0.4)" d="M235.6 24.4L236.4 24.4L234.0 33.1L233.2 33.1L235.6 24.4ZM239.2 24.4L240.0 24.4L237.6 33.1L236.8 33.1L239.2 24.4Z M243.8 24.7L244.7 24.7L244.7 32L243.8 32L243.8 24.7ZM247.1 32L246.2 32L246.2 26.5L247.1 26.5L247.1 32ZM246.7 25.6L246.7 25.6Q246.4 25.6 246.2 25.5Q246.0 25.3 246.0 25.1L246.0 25.1Q246.0 24.8 246.2 24.7Q246.4 24.5 246.7 24.5L246.7 24.5Q246.9 24.5 247.1 24.7Q247.3 24.8 247.3 25.1L247.3 25.1Q247.3 25.3 247.1 25.5Q246.9 25.6 246.7 25.6ZM249.5 28.7L249.5 28.7L249.5 32L248.6 32L248.6 26.5L249.5 26.5L249.5 27.6Q249.7 27.0 250.1 26.8L250.1 26.8Q250.5 26.5 251.2 26.5L251.2 26.5Q251.7 26.5 252.1 26.7Q252.5 26.9 252.8 27.4Q253 27.8 253 28.5L253 28.5L253 32L252.1 32L252.1 28.6Q252.1 28.0 251.8 27.6Q251.5 27.3 250.9 27.3L250.9 27.3Q250.5 27.3 250.2 27.4Q249.9 27.6 249.7 27.9Q249.5 28.3 249.5 28.7ZM255.4 32L254.5 32L254.5 24.7L255.4 24.7L255.4 28.9L255.5 28.9L257.9 26.5L259.0 26.5L256.7 28.9L259.1 32L258.0 32L256.0 29.4L255.4 30.0L255.4 32ZM262.3 32.1L262.3 32.1Q261.5 32.1 261.0 31.8Q260.4 31.4 260.1 30.8Q259.8 30.2 259.8 29.3Q259.8 28.5 260.1 27.8Q260.4 27.2 260.9 26.8Q261.5 26.5 262.2 26.5L262.2 26.5Q262.7 26.5 263.1 26.6Q263.5 26.8 263.8 27.1Q264.2 27.4 264.4 27.9Q264.6 28.4 264.6 29.2L264.6 29.2L264.6 29.6L260.7 29.6Q260.7 30.1 260.9 30.5L260.9 30.5Q261.1 30.9 261.5 31.1Q261.8 31.3 262.3 31.3L262.3 31.3Q262.7 31.3 262.9 31.2Q263.2 31.2 263.4 31.0Q263.6 30.8 263.7 30.5L263.7 30.5L264.5 30.7Q264.4 31.1 264.1 31.5Q263.8 31.8 263.3 31.9Q262.9 32.1 262.3 32.1ZM260.7 28.8L260.7 28.8L263.7 28.8Q263.7 28.5 263.6 28.1L263.6 28.1Q263.4 27.7 263.0 27.5Q262.7 27.3 262.2 27.3Q261.7 27.3 261.4 27.5Q261.0 27.7 260.8 28.1L260.8 28.1Q260.7 28.5 260.7 28.8ZM267.9 32.1L267.9 32.1Q267.2 32.1 266.7 31.8Q266.2 31.4 265.9 30.8Q265.6 30.2 265.6 29.3L265.6 29.3Q265.6 28.4 265.9 27.8Q266.2 27.2 266.7 26.8Q267.2 26.5 267.9 26.5L267.9 26.5Q268.4 26.5 268.8 26.6Q269.1 26.8 269.2 27.0Q269.4 27.3 269.5 27.4L269.5 27.4L269.6 27.4L269.6 24.7L270.4 24.7L270.4 32L269.6 32L269.6 31.2L269.5 31.2Q269.4 31.3 269.2 31.5Q269.1 31.8 268.7 31.9Q268.4 32.1 267.9 32.1ZM268.0 31.3L268.0 31.3Q268.5 31.3 268.9 31.1Q269.2 30.8 269.4 30.3Q269.6 29.9 269.6 29.3L269.6 29.3Q269.6 28.7 269.4 28.2Q269.2 27.8 268.9 27.5Q268.5 27.3 268.0 27.3L268.0 27.3Q267.5 27.3 267.2 27.5Q266.8 27.8 266.7 28.3Q266.5 28.7 266.5 29.3L266.5 29.3Q266.5 29.8 266.7 30.3Q266.8 30.8 267.2 31.1Q267.5 31.3 268.0 31.3ZM272.9 32L272.0 32L272.0 26.5L272.9 26.5L272.9 32ZM272.4 25.6L272.4 25.6Q272.2 25.6 272.0 25.5Q271.8 25.3 271.8 25.1L271.8 25.1Q271.8 24.8 272.0 24.7Q272.2 24.5 272.4 24.5L272.4 24.5Q272.7 24.5 272.9 24.7Q273.0 24.8 273.0 25.1L273.0 25.1Q273.0 25.3 272.9 25.5Q272.7 25.6 272.4 25.6ZM275.3 28.7L275.3 28.7L275.3 32L274.4 32L274.4 26.5L275.3 26.5L275.3 27.6Q275.5 27.0 275.8 26.8L275.8 26.8Q276.3 26.5 276.9 26.5L276.9 26.5Q277.5 26.5 277.9 26.7Q278.3 26.9 278.5 27.4Q278.8 27.8 278.8 28.5L278.8 28.5L278.8 32L277.9 32L277.9 28.6Q277.9 28.0 277.6 27.6Q277.2 27.3 276.7 27.3L276.7 27.3Q276.3 27.3 276.0 27.4Q275.6 27.6 275.5 27.9Q275.3 28.3 275.3 28.7Z "/></g><mask id="satori_om-id-0-1-1"><rect x="233" y="36" width="156" height="13" fill="#fff"/></mask><g  ><path fill="rgba(33,230,160,0.8)" d="M235.3 47L233.7 47L233.7 39.0L235.3 39.0L235.3 43.3L235.4 43.3L237.4 41.0L239.2 41.0L237.0 43.6L239.3 47L237.4 47L235.8 44.6L235.3 45.1L235.3 47ZM242.1 47.1L242.1 47.1Q241.5 47.1 241.0 46.8Q240.6 46.5 240.3 46.0Q240.1 45.5 240.1 44.8L240.1 44.8L240.1 41.0L241.7 41.0L241.7 44.5Q241.7 45.1 242.0 45.4Q242.3 45.7 242.8 45.7L242.8 45.7Q243.1 45.7 243.4 45.6Q243.6 45.4 243.8 45.1Q243.9 44.9 243.9 44.5L243.9 44.5L243.9 41.0L245.5 41.0L245.5 47L244.0 47L244.0 45.7Q243.8 46.3 243.4 46.7L243.4 46.7Q242.9 47.1 242.1 47.1ZM249.3 47.1L249.3 47.1Q248.6 47.1 248.0 46.9Q247.5 46.7 247.1 46.3Q246.8 45.9 246.6 45.4L246.6 45.4L248.1 45.1Q248.3 45.5 248.6 45.7Q248.9 45.9 249.3 45.9L249.3 45.9Q249.8 45.9 250.1 45.8Q250.3 45.6 250.3 45.3L250.3 45.3Q250.3 45.1 250.2 44.9Q250.0 44.8 249.6 44.7L249.6 44.7L248.5 44.5Q247.7 44.3 247.2 43.9Q246.8 43.5 246.8 42.8L246.8 42.8Q246.8 42.2 247.1 41.8Q247.4 41.4 248.0 41.1Q248.6 40.9 249.3 40.9L249.3 40.9Q250.0 40.9 250.6 41.1Q251.1 41.3 251.4 41.7Q251.7 42.0 251.8 42.5L251.8 42.5L250.4 42.8Q250.3 42.5 250.1 42.3Q249.8 42.1 249.3 42.1L249.3 42.1Q249.0 42.1 248.7 42.2Q248.4 42.4 248.4 42.7L248.4 42.7Q248.4 42.9 248.6 43.1Q248.8 43.2 249.2 43.3L249.2 43.3L250.3 43.5Q251.1 43.7 251.6 44.1Q252.0 44.5 252.0 45.1L252.0 45.1Q252.0 45.7 251.6 46.2Q251.3 46.6 250.7 46.9Q250.1 47.1 249.3 47.1ZM254.7 43.5L254.7 43.5L254.7 47L253.1 47L253.1 39.0L254.7 39.0L254.7 42.1Q254.9 41.6 255.2 41.3L255.2 41.3Q255.7 40.9 256.5 40.9L256.5 40.9Q257.1 40.9 257.6 41.2Q258.0 41.5 258.3 42.0Q258.6 42.5 258.6 43.2L258.6 43.2L258.6 47L256.9 47L256.9 43.5Q256.9 42.9 256.7 42.6Q256.4 42.3 255.9 42.3L255.9 42.3Q255.5 42.3 255.2 42.4Q255.0 42.6 254.8 42.8Q254.7 43.1 254.7 43.5ZM261.6 47.1L261.6 47.1Q261.0 47.1 260.6 46.9Q260.1 46.7 259.9 46.3Q259.6 45.9 259.6 45.3L259.6 45.3Q259.6 44.8 259.8 44.5Q260.0 44.1 260.3 43.9Q260.6 43.7 261.0 43.6Q261.4 43.5 261.9 43.5L261.9 43.5Q262.4 43.4 262.7 43.4Q263.0 43.3 263.2 43.2Q263.3 43.1 263.3 42.9L263.3 42.9L263.3 42.9Q263.3 42.7 263.2 42.5Q263.1 42.3 262.9 42.2Q262.7 42.1 262.4 42.1L262.4 42.1Q262.1 42.1 261.8 42.2Q261.6 42.3 261.5 42.5Q261.3 42.6 261.3 42.8L261.3 42.8L259.8 42.6Q259.9 42.0 260.3 41.7Q260.7 41.3 261.2 41.1Q261.7 40.9 262.4 40.9L262.4 40.9Q262.9 40.9 263.3 41.0Q263.8 41.2 264.1 41.4Q264.5 41.6 264.7 42.0Q264.9 42.4 264.9 43.0L264.9 43.0L264.9 47L263.4 47L263.4 46.2L263.4 46.2Q263.2 46.4 263.0 46.7Q262.7 46.9 262.4 47.0Q262.0 47.1 261.6 47.1ZM262.1 46.0L262.1 46.0Q262.4 46.0 262.7 45.8Q263.0 45.7 263.2 45.4Q263.3 45.2 263.3 44.9L263.3 44.9L263.3 44.2Q263.3 44.3 263.1 44.3Q263.0 44.3 262.8 44.4Q262.6 44.4 262.4 44.4Q262.3 44.5 262.1 44.5L262.1 44.5Q261.8 44.5 261.6 44.6Q261.4 44.7 261.3 44.9Q261.1 45.0 261.1 45.3L261.1 45.3Q261.1 45.5 261.3 45.7Q261.4 45.8 261.6 45.9Q261.8 46.0 262.1 46.0ZM269.0 49.4L269.0 49.4Q268.2 49.4 267.7 49.2Q267.1 49.0 266.8 48.7Q266.4 48.3 266.3 47.9L266.3 47.9L267.7 47.5Q267.7 47.7 267.9 47.8Q268.1 48.0 268.3 48.1Q268.6 48.2 269.0 48.2L269.0 48.2Q269.6 48.2 269.9 47.9Q270.3 47.6 270.3 47.0L270.3 47.0L270.3 45.9L270.2 45.9Q270.1 46.2 269.9 46.4Q269.7 46.6 269.3 46.8Q269.0 46.9 268.5 46.9L268.5 46.9Q267.8 46.9 267.3 46.6Q266.7 46.3 266.4 45.6Q266.1 45.0 266.1 44.0L266.1 44.0Q266.1 43.0 266.4 42.3Q266.7 41.6 267.3 41.3Q267.8 40.9 268.5 40.9L268.5 40.9Q269.0 40.9 269.4 41.1Q269.7 41.3 269.9 41.5Q270.1 41.8 270.2 42.0L270.2 42.0L270.3 42.0L270.3 41.0L271.9 41.0L271.9 47.0Q271.9 47.8 271.5 48.3Q271.1 48.8 270.5 49.1Q269.8 49.4 269.0 49.4ZM269.0 45.7L269.0 45.7Q269.4 45.7 269.7 45.5Q270.0 45.3 270.1 44.9Q270.3 44.5 270.3 44.0L270.3 44.0Q270.3 43.4 270.1 43.0Q270.0 42.6 269.7 42.4Q269.4 42.2 269.0 42.2L269.0 42.2Q268.6 42.2 268.3 42.4Q268.0 42.7 267.9 43.1Q267.7 43.5 267.7 44.0L267.7 44.0Q267.7 44.5 267.9 44.9Q268.0 45.3 268.3 45.5Q268.6 45.7 269.0 45.7ZM274.9 47L273.3 47L273.3 41.0L274.8 41.0L274.8 42.0L274.9 42.0Q275.1 41.5 275.4 41.2Q275.8 40.9 276.3 40.9L276.3 40.9Q276.5 40.9 276.6 40.9Q276.7 40.9 276.9 41.0L276.9 41.0L276.9 42.4Q276.7 42.4 276.5 42.3Q276.3 42.3 276.2 42.3L276.2 42.3Q275.8 42.3 275.5 42.5Q275.2 42.6 275.0 42.9Q274.9 43.2 274.9 43.6L274.9 43.6L274.9 47ZM279.4 47.1L279.4 47.1Q278.8 47.1 278.4 46.9Q277.9 46.7 277.7 46.3Q277.4 45.9 277.4 45.3L277.4 45.3Q277.4 44.8 277.6 44.5Q277.8 44.1 278.1 43.9Q278.4 43.7 278.8 43.6Q279.2 43.5 279.7 43.5L279.7 43.5Q280.2 43.4 280.5 43.4Q280.8 43.3 281.0 43.2Q281.1 43.1 281.1 42.9L281.1 42.9L281.1 42.9Q281.1 42.7 281.0 42.5Q280.9 42.3 280.7 42.2Q280.5 42.1 280.2 42.1L280.2 42.1Q279.9 42.1 279.7 42.2Q279.4 42.3 279.3 42.5Q279.1 42.6 279.1 42.8L279.1 42.8L277.6 42.6Q277.7 42.0 278.1 41.7Q278.5 41.3 279.0 41.1Q279.5 40.9 280.2 40.9L280.2 40.9Q280.7 40.9 281.1 41.0Q281.6 41.2 282.0 41.4Q282.3 41.6 282.5 42.0Q282.8 42.4 282.8 43.0L282.8 43.0L282.8 47L281.2 47L281.2 46.2L281.2 46.2Q281.0 46.4 280.8 46.7Q280.5 46.9 280.2 47.0Q279.9 47.1 279.4 47.1ZM279.9 46.0L279.9 46.0Q280.3 46.0 280.5 45.8Q280.8 45.7 281.0 45.4Q281.2 45.2 281.2 44.9L281.2 44.9L281.2 44.2Q281.1 44.3 280.9 44.3Q280.8 44.3 280.6 44.4Q280.4 44.4 280.3 44.4Q280.1 44.5 280.0 44.5L280.0 44.5Q279.7 44.5 279.4 44.6Q279.2 44.7 279.1 44.9Q279.0 45.0 279.0 45.3L279.0 45.3Q279.0 45.5 279.1 45.7Q279.2 45.8 279.4 45.9Q279.6 46.0 279.9 46.0ZM284.2 43.1L287.8 43.1L287.8 44.4L284.2 44.4L284.2 43.1ZM290.9 47L289.3 47L289.3 41.0L290.8 41.0L290.8 42.2Q291.0 41.8 291.1 41.6L291.1 41.6Q291.4 41.2 291.8 41.1Q292.1 40.9 292.5 40.9L292.5 40.9Q293.2 40.9 293.6 41.3L293.6 41.3Q293.9 41.6 294.1 42.2L294.1 42.2Q294.2 41.9 294.4 41.6L294.4 41.6Q294.7 41.3 295.1 41.1Q295.6 40.9 296.0 40.9L296.0 40.9Q296.6 40.9 297.0 41.1Q297.4 41.4 297.7 41.8Q297.9 42.3 297.9 43.0L297.9 43.0L297.9 47L296.3 47L296.3 43.3Q296.3 42.7 296.0 42.5Q295.8 42.3 295.4 42.3L295.4 42.3Q295.1 42.3 294.8 42.4Q294.6 42.5 294.5 42.8Q294.4 43.0 294.4 43.3L294.4 43.3L294.4 47L292.8 47L292.8 43.2Q292.8 42.8 292.6 42.5Q292.3 42.3 291.9 42.3L291.9 42.3Q291.6 42.3 291.4 42.4Q291.1 42.5 291.0 42.8Q290.9 43.0 290.9 43.4L290.9 43.4L290.9 47ZM302.0 47.1L302.0 47.1Q301.1 47.1 300.4 46.7Q299.8 46.4 299.4 45.7Q299.1 45.0 299.1 44.0L299.1 44.0Q299.1 43.1 299.4 42.4Q299.8 41.7 300.4 41.3Q301.1 40.9 301.9 40.9L301.9 40.9Q302.5 40.9 303.0 41.1Q303.6 41.3 303.9 41.7Q304.3 42.1 304.5 42.6Q304.8 43.2 304.8 44.0L304.8 44.0L304.8 44.4L300.7 44.4Q300.7 44.9 300.8 45.2L300.8 45.2Q301.0 45.5 301.3 45.7Q301.6 45.9 302.1 45.9L302.1 45.9Q302.3 45.9 302.6 45.8Q302.8 45.7 303.0 45.6Q303.1 45.4 303.2 45.2L303.2 45.2L304.7 45.5Q304.5 46.0 304.2 46.3Q303.8 46.7 303.3 46.9Q302.7 47.1 302.0 47.1ZM300.7 43.4L300.7 43.4L303.2 43.4Q303.2 43.1 303.1 42.9L303.1 42.9Q302.9 42.5 302.7 42.3Q302.4 42.1 302.0 42.1L302.0 42.1Q301.5 42.1 301.2 42.3Q301.0 42.5 300.8 42.8L300.8 42.8Q300.7 43.1 300.7 43.4ZM307.5 43.5L307.5 43.5L307.5 47L305.9 47L305.9 39.0L307.4 39.0L307.4 42.1Q307.7 41.6 308.0 41.3L308.0 41.3Q308.5 40.9 309.3 40.9L309.3 40.9Q309.9 40.9 310.4 41.2Q310.8 41.5 311.1 42.0Q311.3 42.5 311.3 43.2L311.3 43.2L311.3 47L309.7 47L309.7 43.5Q309.7 42.9 309.4 42.6Q309.2 42.3 308.6 42.3L308.6 42.3Q308.3 42.3 308.0 42.4Q307.8 42.6 307.6 42.8Q307.5 43.1 307.5 43.5ZM314.6 41.0L315.7 41.0L315.7 42.2L314.6 42.2L314.6 45.2Q314.6 45.5 314.7 45.7Q314.8 45.8 315.1 45.8L315.1 45.8Q315.2 45.8 315.4 45.8Q315.5 45.8 315.6 45.7L315.6 45.7L315.9 46.9Q315.6 47.0 315.3 47.1Q315.1 47.1 314.8 47.1L314.8 47.1Q313.9 47.1 313.4 46.6Q313.0 46.2 313.0 45.4L313.0 45.4L313.0 42.2L312.1 42.2L312.1 41.0L313.0 41.0L313.0 39.6L314.6 39.6L314.6 41.0ZM318.4 47.1L318.4 47.1Q317.8 47.1 317.4 46.9Q316.9 46.7 316.7 46.3Q316.4 45.9 316.4 45.3L316.4 45.3Q316.4 44.8 316.6 44.5Q316.8 44.1 317.1 43.9Q317.4 43.7 317.8 43.6Q318.2 43.5 318.7 43.5L318.7 43.5Q319.2 43.4 319.5 43.4Q319.8 43.3 320.0 43.2Q320.1 43.1 320.1 42.9L320.1 42.9L320.1 42.9Q320.1 42.7 320.0 42.5Q319.9 42.3 319.7 42.2Q319.5 42.1 319.2 42.1L319.2 42.1Q318.9 42.1 318.7 42.2Q318.4 42.3 318.3 42.5Q318.1 42.6 318.1 42.8L318.1 42.8L316.6 42.6Q316.7 42.0 317.1 41.7Q317.5 41.3 318.0 41.1Q318.5 40.9 319.2 40.9L319.2 40.9Q319.7 40.9 320.1 41.0Q320.6 41.2 321.0 41.4Q321.3 41.6 321.5 42.0Q321.8 42.4 321.8 43.0L321.8 43.0L321.8 47L320.2 47L320.2 46.2L320.2 46.2Q320.0 46.4 319.8 46.7Q319.5 46.9 319.2 47.0Q318.9 47.1 318.4 47.1ZM318.9 46.0L318.9 46.0Q319.3 46.0 319.5 45.8Q319.8 45.7 320.0 45.4Q320.2 45.2 320.2 44.9L320.2 44.9L320.2 44.2Q320.1 44.3 319.9 44.3Q319.8 44.3 319.6 44.4Q319.4 44.4 319.3 44.4Q319.1 44.5 319.0 44.5L319.0 44.5Q318.7 44.5 318.4 44.6Q318.2 44.7 318.1 44.9Q318.0 45.0 318.0 45.3L318.0 45.3Q318.0 45.5 318.1 45.7Q318.2 45.8 318.4 45.9Q318.6 46.0 318.9 46.0ZM323.2 43.1L326.8 43.1L326.8 44.4L323.2 44.4L323.2 43.1ZM329.9 47.1L329.9 47.1Q329.4 47.1 328.9 46.9Q328.5 46.7 328.2 46.3Q328.0 45.9 328.0 45.3L328.0 45.3Q328.0 44.8 328.1 44.5Q328.3 44.1 328.6 43.9Q329.0 43.7 329.4 43.6Q329.8 43.5 330.2 43.5L330.2 43.5Q330.7 43.4 331.1 43.4Q331.4 43.3 331.5 43.2Q331.7 43.1 331.7 42.9L331.7 42.9L331.7 42.9Q331.7 42.7 331.6 42.5Q331.5 42.3 331.2 42.2Q331.0 42.1 330.7 42.1L330.7 42.1Q330.4 42.1 330.2 42.2Q330.0 42.3 329.8 42.5Q329.7 42.6 329.6 42.8L329.6 42.8L328.1 42.6Q328.3 42.0 328.6 41.7Q329.0 41.3 329.5 41.1Q330.1 40.9 330.7 40.9L330.7 40.9Q331.2 40.9 331.7 41.0Q332.1 41.2 332.5 41.4Q332.9 41.6 333.1 42.0Q333.3 42.4 333.3 43.0L333.3 43.0L333.3 47L331.8 47L331.8 46.2L331.7 46.2Q331.6 46.4 331.3 46.7Q331.1 46.9 330.7 47.0Q330.4 47.1 329.9 47.1ZM330.4 46.0L330.4 46.0Q330.8 46.0 331.1 45.8Q331.4 45.7 331.5 45.4Q331.7 45.2 331.7 44.9L331.7 44.9L331.7 44.2Q331.6 44.3 331.5 44.3Q331.3 44.3 331.1 44.4Q331.0 44.4 330.8 44.4Q330.6 44.5 330.5 44.5L330.5 44.5Q330.2 44.5 330.0 44.6Q329.7 44.7 329.6 44.9Q329.5 45.0 329.5 45.3L329.5 45.3Q329.5 45.5 329.6 45.7Q329.7 45.8 329.9 45.9Q330.1 46.0 330.4 46.0ZM337.5 47.1L337.5 47.1Q336.7 47.1 336.0 46.8Q335.3 46.5 334.9 46.0Q334.5 45.5 334.5 44.9L334.5 44.9Q334.5 44.4 334.7 43.9Q334.9 43.5 335.3 43.2Q335.7 42.9 336.2 42.9L336.2 42.9L336.2 42.8Q335.6 42.7 335.2 42.2Q334.8 41.7 334.8 41.0L334.8 41.0Q334.8 40.4 335.1 39.9Q335.5 39.4 336.1 39.2Q336.7 38.9 337.5 38.9L337.5 38.9Q338.3 38.9 339.0 39.2Q339.6 39.4 340.0 39.9Q340.3 40.4 340.3 41.0L340.3 41.0Q340.3 41.7 339.9 42.2Q339.5 42.7 338.9 42.8L338.9 42.8L338.9 42.9Q339.4 42.9 339.8 43.2Q340.2 43.5 340.4 43.9Q340.6 44.4 340.6 44.9L340.6 44.9Q340.6 45.5 340.2 46.0Q339.8 46.5 339.1 46.8Q338.4 47.1 337.5 47.1ZM337.5 45.9L337.5 45.9Q338.0 45.9 338.3 45.7Q338.6 45.6 338.7 45.3Q338.9 45.1 338.9 44.7L338.9 44.7Q338.9 44.4 338.7 44.1Q338.6 43.8 338.3 43.7Q337.9 43.5 337.5 43.5L337.5 43.5Q337.2 43.5 336.8 43.7Q336.5 43.8 336.4 44.1Q336.2 44.4 336.2 44.7L336.2 44.7Q336.2 45.1 336.3 45.3Q336.5 45.6 336.8 45.7Q337.1 45.9 337.5 45.9ZM337.5 42.3L337.5 42.3Q337.9 42.3 338.2 42.2Q338.4 42.0 338.6 41.8Q338.7 41.5 338.7 41.2L338.7 41.2Q338.7 40.9 338.6 40.7Q338.4 40.4 338.2 40.3Q337.9 40.1 337.5 40.1L337.5 40.1Q337.2 40.1 336.9 40.3Q336.7 40.4 336.5 40.7Q336.4 40.9 336.4 41.2L336.4 41.2Q336.4 41.5 336.5 41.8Q336.7 42.0 336.9 42.2Q337.2 42.3 337.5 42.3ZM344.8 47.1L344.8 47.1Q344.2 47.1 343.6 46.9Q343.1 46.7 342.6 46.2Q342.2 45.8 341.9 45.0Q341.6 44.3 341.6 43.2L341.6 43.2Q341.6 42.2 341.9 41.4Q342.1 40.6 342.5 40.0Q342.9 39.5 343.5 39.2Q344.1 38.9 344.9 38.9L344.9 38.9Q345.7 38.9 346.3 39.2Q346.9 39.5 347.2 40.0Q347.6 40.6 347.7 41.2L347.7 41.2L346.1 41.2Q346.0 40.8 345.7 40.5Q345.3 40.3 344.9 40.3L344.9 40.3Q344.3 40.3 344.0 40.6Q343.6 40.9 343.4 41.5Q343.2 42.1 343.2 42.9L343.2 42.9L343.3 42.9Q343.5 42.5 343.8 42.3Q344.1 42.0 344.5 41.9Q344.9 41.7 345.3 41.7L345.3 41.7Q346.0 41.7 346.6 42.1Q347.1 42.4 347.5 43.0Q347.8 43.6 347.8 44.3L347.8 44.3Q347.8 45.1 347.4 45.8Q347.0 46.4 346.4 46.8Q345.7 47.1 344.8 47.1ZM344.8 45.8L344.8 45.8Q345.2 45.8 345.5 45.6Q345.8 45.4 346.0 45.1Q346.2 44.8 346.2 44.4L346.2 44.4Q346.2 44.0 346.0 43.6Q345.8 43.3 345.5 43.1Q345.2 42.9 344.8 42.9L344.8 42.9Q344.5 42.9 344.3 43.1Q344.0 43.2 343.8 43.4Q343.6 43.6 343.5 43.8Q343.4 44.1 343.4 44.4L343.4 44.4Q343.4 44.8 343.6 45.1Q343.8 45.4 344.1 45.6Q344.4 45.8 344.8 45.8ZM351.7 47.1L351.7 47.1Q350.9 47.1 350.3 46.8Q349.7 46.5 349.3 46.0Q348.9 45.4 348.9 44.8L348.9 44.8L350.5 44.8Q350.6 45.2 350.9 45.5Q351.2 45.7 351.7 45.7L351.7 45.7Q352.2 45.7 352.6 45.4Q352.9 45.1 353.1 44.5Q353.3 43.9 353.3 43.1L353.3 43.1L353.3 43.1Q353.1 43.5 352.8 43.7Q352.5 44.0 352.1 44.1Q351.7 44.3 351.3 44.3L351.3 44.3Q350.5 44.3 350.0 43.9Q349.4 43.6 349.1 43.0Q348.8 42.4 348.8 41.7L348.8 41.7Q348.8 40.9 349.2 40.2Q349.5 39.6 350.2 39.2Q350.9 38.9 351.8 38.9L351.8 38.9Q352.4 38.9 352.9 39.1Q353.5 39.3 353.9 39.7Q354.4 40.2 354.7 41.0Q354.9 41.7 354.9 42.8L354.9 42.8Q354.9 43.8 354.7 44.6Q354.5 45.4 354.0 46.0Q353.6 46.5 353.0 46.8Q352.4 47.1 351.7 47.1ZM351.7 43.1L351.7 43.1Q352.0 43.1 352.3 42.9Q352.6 42.8 352.7 42.6Q352.9 42.4 353.0 42.2Q353.1 41.9 353.1 41.6L353.1 41.6Q353.1 41.2 353.0 40.9Q352.8 40.6 352.5 40.4Q352.2 40.2 351.8 40.2L351.8 40.2Q351.4 40.2 351.1 40.4Q350.7 40.6 350.6 40.9Q350.4 41.2 350.4 41.6L350.4 41.6Q350.4 42.0 350.6 42.3Q350.7 42.7 351.0 42.9Q351.4 43.1 351.7 43.1ZM357.7 39.0L359.4 39.0L359.4 47L357.8 47L357.8 40.4L357.7 40.4L355.9 41.7L355.9 40.2L357.7 39.0ZM363.8 47.1L363.8 47.1Q363.2 47.1 362.7 46.9Q362.1 46.7 361.6 46.2Q361.2 45.8 360.9 45.0Q360.7 44.3 360.7 43.2L360.7 43.2Q360.7 42.2 360.9 41.4Q361.1 40.6 361.5 40.0Q362.0 39.5 362.6 39.2Q363.2 38.9 363.9 38.9L363.9 38.9Q364.7 38.9 365.3 39.2Q365.9 39.5 366.3 40.0Q366.6 40.6 366.7 41.2L366.7 41.2L365.1 41.2Q365.0 40.8 364.7 40.5Q364.4 40.3 363.9 40.3L363.9 40.3Q363.4 40.3 363.0 40.6Q362.6 40.9 362.5 41.5Q362.3 42.1 362.3 42.9L362.3 42.9L362.3 42.9Q362.5 42.5 362.8 42.3Q363.1 42.0 363.5 41.9Q363.9 41.7 364.3 41.7L364.3 41.7Q365.0 41.7 365.6 42.1Q366.2 42.4 366.5 43.0Q366.8 43.6 366.8 44.3L366.8 44.3Q366.8 45.1 366.4 45.8Q366.1 46.4 365.4 46.8Q364.7 47.1 363.8 47.1ZM363.8 45.8L363.8 45.8Q364.2 45.8 364.5 45.6Q364.8 45.4 365.0 45.1Q365.2 44.8 365.2 44.4L365.2 44.4Q365.2 44.0 365.0 43.6Q364.9 43.3 364.5 43.1Q364.2 42.9 363.8 42.9L363.8 42.9Q363.5 42.9 363.3 43.1Q363.0 43.2 362.8 43.4Q362.7 43.6 362.5 43.8Q362.4 44.1 362.4 44.4L362.4 44.4Q362.4 44.8 362.6 45.1Q362.8 45.4 363.1 45.6Q363.4 45.8 363.8 45.8ZM373.6 47L368.0 47L368.0 45.8L370.8 43.2Q371.2 42.8 371.4 42.5Q371.7 42.2 371.8 42.0Q371.9 41.7 371.9 41.4L371.9 41.4Q371.9 41.0 371.8 40.7Q371.6 40.5 371.3 40.3Q371.1 40.2 370.7 40.2L370.7 40.2Q370.3 40.2 370.0 40.4Q369.8 40.5 369.6 40.8Q369.5 41.1 369.5 41.5L369.5 41.5L367.9 41.5Q367.9 40.7 368.3 40.1Q368.6 39.5 369.2 39.2Q369.9 38.9 370.7 38.9L370.7 38.9Q371.6 38.9 372.2 39.2Q372.8 39.5 373.2 40.0Q373.5 40.6 373.5 41.3L373.5 41.3Q373.5 41.7 373.3 42.1Q373.2 42.6 372.7 43.1Q372.3 43.6 371.5 44.4L371.5 44.4L370.2 45.6L370.2 45.7L373.6 45.7L373.6 47ZM377.6 47.1L377.6 47.1Q376.8 47.1 376.1 46.8Q375.5 46.5 375.1 46.0Q374.8 45.4 374.7 44.8L374.7 44.8L376.3 44.8Q376.3 45.1 376.5 45.3Q376.7 45.5 377.0 45.7Q377.3 45.8 377.6 45.8L377.6 45.8Q378.0 45.8 378.3 45.6Q378.6 45.4 378.8 45.1Q379.0 44.8 379.0 44.4L379.0 44.4Q379.0 44.0 378.8 43.6Q378.6 43.3 378.3 43.1Q378.0 42.9 377.6 42.9L377.6 42.9Q377.2 42.9 376.9 43.1Q376.6 43.2 376.4 43.5L376.4 43.5L374.9 43.2L375.3 39.0L380.1 39.0L380.1 40.4L376.6 40.4L376.4 42.4L376.5 42.4Q376.7 42.1 377.1 41.9Q377.5 41.7 378.1 41.7L378.1 41.7Q378.6 41.7 379.1 41.9Q379.5 42.1 379.9 42.4Q380.2 42.8 380.4 43.3Q380.6 43.8 380.6 44.3L380.6 44.3Q380.6 45.1 380.2 45.8Q379.8 46.4 379.2 46.8Q378.5 47.1 377.6 47.1ZM384.7 47.1L384.7 47.1Q383.8 47.1 383.1 46.8Q382.4 46.5 382.0 46.0Q381.6 45.5 381.6 44.9L381.6 44.9Q381.6 44.4 381.8 43.9Q382.0 43.5 382.4 43.2Q382.8 42.9 383.3 42.9L383.3 42.9L383.3 42.8Q382.7 42.7 382.3 42.2Q381.9 41.7 381.9 41.0L381.9 41.0Q381.9 40.4 382.2 39.9Q382.6 39.4 383.2 39.2Q383.8 38.9 384.7 38.9L384.7 38.9Q385.5 38.9 386.1 39.2Q386.7 39.4 387.1 39.9Q387.4 40.4 387.4 41.0L387.4 41.0Q387.4 41.7 387.0 42.2Q386.6 42.7 386.0 42.8L386.0 42.8L386.0 42.9Q386.5 42.9 386.9 43.2Q387.3 43.5 387.5 43.9Q387.7 44.4 387.7 44.9L387.7 44.9Q387.7 45.5 387.3 46.0Q386.9 46.5 386.2 46.8Q385.5 47.1 384.7 47.1ZM384.7 45.9L384.7 45.9Q385.1 45.9 385.4 45.7Q385.7 45.6 385.9 45.3Q386.0 45.1 386.0 44.7L386.0 44.7Q386.0 44.4 385.8 44.1Q385.7 43.8 385.4 43.7Q385.1 43.5 384.7 43.5L384.7 43.5Q384.3 43.5 383.9 43.7Q383.6 43.8 383.5 44.1Q383.3 44.4 383.3 44.7L383.3 44.7Q383.3 45.1 383.5 45.3Q383.6 45.6 383.9 45.7Q384.2 45.9 384.7 45.9ZM384.7 42.3L384.7 42.3Q385.0 42.3 385.3 42.2Q385.5 42.0 385.7 41.8Q385.8 41.5 385.8 41.2L385.8 41.2Q385.8 40.9 385.7 40.7Q385.5 40.4 385.3 40.3Q385.0 40.1 384.7 40.1L384.7 40.1Q384.3 40.1 384.0 40.3Q383.8 40.4 383.6 40.7Q383.5 40.9 383.5 41.2L383.5 41.2Q383.5 41.5 383.6 41.8Q383.8 42.0 384.0 42.2Q384.3 42.3 384.7 42.3Z "/></g><mask id="satori_om-id-0-2"><rect x="417" y="22" width="79" height="27" fill="#fff"/></mask><mask id="satori_om-id-0-2-0"><rect x="417" y="22" width="79" height="12" fill="#fff"/></mask><g  ><path fill="rgba(33,187,133,0.4)" d="M419.6 24.4L420.4 24.4L418.0 33.1L417.2 33.1L419.6 24.4ZM423.2 24.4L424.0 24.4L421.6 33.1L420.8 33.1L423.2 24.4Z M427.8 24.7L428.7 24.7L428.7 32L427.8 32L427.8 24.7ZM432.4 32.1L432.4 32.1Q431.7 32.1 431.1 31.8Q430.6 31.4 430.3 30.8Q429.9 30.1 429.9 29.3L429.9 29.3Q429.9 28.5 430.3 27.8Q430.6 27.2 431.1 26.8Q431.7 26.5 432.4 26.5L432.4 26.5Q433.2 26.5 433.7 26.8Q434.3 27.2 434.6 27.8Q434.9 28.5 434.9 29.3L434.9 29.3Q434.9 30.1 434.6 30.8Q434.3 31.4 433.7 31.8Q433.2 32.1 432.4 32.1ZM432.4 31.3L432.4 31.3Q433.0 31.3 433.3 31.0Q433.7 30.8 433.9 30.3Q434.0 29.8 434.0 29.3L434.0 29.3Q434.0 28.8 433.9 28.3Q433.7 27.8 433.3 27.5Q433.0 27.3 432.4 27.3L432.4 27.3Q431.9 27.3 431.5 27.5Q431.2 27.8 431.0 28.3Q430.8 28.8 430.8 29.3L430.8 29.3Q430.8 29.8 431.0 30.3Q431.2 30.8 431.5 31.0Q431.9 31.3 432.4 31.3ZM438.4 32.1L438.4 32.1Q437.7 32.1 437.1 31.8Q436.6 31.4 436.3 30.8Q435.9 30.1 435.9 29.3L435.9 29.3Q435.9 28.5 436.3 27.8Q436.6 27.2 437.1 26.8Q437.7 26.5 438.4 26.5L438.4 26.5Q438.8 26.5 439.2 26.6Q439.5 26.7 439.8 26.9Q440.1 27.1 440.3 27.3Q440.5 27.6 440.6 28.0L440.6 28.0L439.8 28.2Q439.7 28.0 439.6 27.8Q439.5 27.7 439.3 27.5Q439.1 27.4 438.9 27.3Q438.7 27.3 438.4 27.3L438.4 27.3Q437.9 27.3 437.5 27.5Q437.2 27.8 437.0 28.3Q436.8 28.8 436.8 29.3L436.8 29.3Q436.8 29.8 437.0 30.3Q437.2 30.8 437.5 31.0Q437.9 31.3 438.4 31.3L438.4 31.3Q438.7 31.3 438.9 31.3Q439.2 31.2 439.3 31.1Q439.5 30.9 439.6 30.7Q439.8 30.5 439.8 30.3L439.8 30.3L440.7 30.6Q440.6 30.9 440.3 31.2Q440.1 31.5 439.8 31.7Q439.5 31.9 439.2 32.0Q438.8 32.1 438.4 32.1Z "/></g><mask id="satori_om-id-0-2-1"><rect x="417" y="36" width="79" height="13" fill="#fff"/></mask><g  ><path fill="rgba(33,230,160,0.8)" d="M419.4 47L417.7 47L417.7 39.0L420.2 39.0L421.5 42.7Q421.6 42.9 421.7 43.3Q421.8 43.7 421.9 44.2L421.9 44.2Q422.0 44.7 422.1 45.1L422.1 45.1Q422.2 44.7 422.3 44.2L422.3 44.2Q422.4 43.8 422.5 43.3Q422.6 42.9 422.7 42.7L422.7 42.7L424.0 39.0L426.5 39.0L426.5 47L424.9 47L424.9 43.2Q424.9 43.0 424.9 42.6Q424.9 42.2 424.9 41.7Q424.9 41.3 424.9 40.8L424.9 40.8Q424.9 40.6 424.9 40.4L424.9 40.4Q424.9 40.6 424.8 40.9L424.8 40.9Q424.7 41.3 424.6 41.8Q424.4 42.2 424.3 42.6Q424.2 43.0 424.1 43.2L424.1 43.2L422.8 47L421.4 47L420.1 43.2Q420.0 43.0 419.9 42.6Q419.8 42.2 419.7 41.8Q419.5 41.4 419.4 40.9L419.4 40.9Q419.3 40.7 419.3 40.5L419.3 40.5Q419.3 40.6 419.3 40.8L419.3 40.8Q419.3 41.2 419.3 41.7Q419.3 42.2 419.3 42.6Q419.4 43.0 419.4 43.2L419.4 43.2L419.4 47ZM430.0 47.1L430.0 47.1Q429.4 47.1 428.9 46.8Q428.4 46.5 428.2 46.0Q427.9 45.5 427.9 44.8L427.9 44.8L427.9 41.0L429.5 41.0L429.5 44.5Q429.5 45.1 429.8 45.4Q430.1 45.7 430.6 45.7L430.6 45.7Q431.0 45.7 431.2 45.6Q431.5 45.4 431.6 45.1Q431.8 44.9 431.8 44.5L431.8 44.5L431.8 41.0L433.4 41.0L433.4 47L431.9 47L431.9 45.7Q431.6 46.3 431.2 46.7L431.2 46.7Q430.8 47.1 430.0 47.1ZM436.4 47L434.8 47L434.8 41.0L436.3 41.0L436.3 42.2Q436.5 41.8 436.7 41.6L436.7 41.6Q436.9 41.2 437.3 41.1Q437.7 40.9 438.1 40.9L438.1 40.9Q438.7 40.9 439.1 41.3L439.1 41.3Q439.4 41.6 439.6 42.2L439.6 42.2Q439.7 41.9 439.9 41.6L439.9 41.6Q440.2 41.3 440.7 41.1Q441.1 40.9 441.5 40.9L441.5 40.9Q442.1 40.9 442.5 41.1Q442.9 41.4 443.2 41.8Q443.4 42.3 443.4 43.0L443.4 43.0L443.4 47L441.8 47L441.8 43.3Q441.8 42.7 441.6 42.5Q441.3 42.3 440.9 42.3L440.9 42.3Q440.6 42.3 440.4 42.4Q440.1 42.5 440.0 42.8Q439.9 43.0 439.9 43.3L439.9 43.3L439.9 47L438.3 47L438.3 43.2Q438.3 42.8 438.1 42.5Q437.8 42.3 437.4 42.3L437.4 42.3Q437.1 42.3 436.9 42.4Q436.7 42.5 436.5 42.8Q436.4 43.0 436.4 43.4L436.4 43.4L436.4 47ZM448.2 47.1L448.2 47.1Q447.7 47.1 447.4 46.9Q447.0 46.8 446.8 46.5Q446.6 46.3 446.5 46.0L446.5 46.0L446.4 46.0L446.4 47L444.8 47L444.8 39.0L446.4 39.0L446.4 42.0L446.5 42.0Q446.6 41.8 446.8 41.5Q447.0 41.3 447.3 41.1Q447.7 40.9 448.2 40.9L448.2 40.9Q448.9 40.9 449.4 41.3Q450.0 41.6 450.3 42.3Q450.6 43.0 450.6 44.0L450.6 44.0Q450.6 45.0 450.3 45.7Q450.0 46.4 449.4 46.7Q448.9 47.1 448.2 47.1ZM447.7 45.8L447.7 45.8Q448.1 45.8 448.4 45.6Q448.7 45.3 448.8 44.9Q449.0 44.5 449.0 44.0L449.0 44.0Q449.0 43.5 448.8 43.1Q448.7 42.7 448.4 42.4Q448.1 42.2 447.7 42.2L447.7 42.2Q447.3 42.2 447.0 42.4Q446.7 42.7 446.5 43.1Q446.4 43.5 446.4 44.0L446.4 44.0Q446.4 44.5 446.5 45.0Q446.7 45.4 447.0 45.6Q447.3 45.8 447.7 45.8ZM453.4 47.1L453.4 47.1Q452.9 47.1 452.4 46.9Q452.0 46.7 451.7 46.3Q451.4 45.9 451.4 45.3L451.4 45.3Q451.4 44.8 451.6 44.5Q451.8 44.1 452.1 43.9Q452.4 43.7 452.8 43.6Q453.3 43.5 453.7 43.5L453.7 43.5Q454.2 43.4 454.5 43.4Q454.9 43.3 455.0 43.2Q455.2 43.1 455.2 42.9L455.2 42.9L455.2 42.9Q455.2 42.7 455.0 42.5Q454.9 42.3 454.7 42.2Q454.5 42.1 454.2 42.1L454.2 42.1Q453.9 42.1 453.7 42.2Q453.4 42.3 453.3 42.5Q453.2 42.6 453.1 42.8L453.1 42.8L451.6 42.6Q451.8 42.0 452.1 41.7Q452.5 41.3 453.0 41.1Q453.6 40.9 454.2 40.9L454.2 40.9Q454.7 40.9 455.2 41.0Q455.6 41.2 456.0 41.4Q456.3 41.6 456.6 42.0Q456.8 42.4 456.8 43.0L456.8 43.0L456.8 47L455.2 47L455.2 46.2L455.2 46.2Q455.0 46.4 454.8 46.7Q454.6 46.9 454.2 47.0Q453.9 47.1 453.4 47.1ZM453.9 46.0L453.9 46.0Q454.3 46.0 454.6 45.8Q454.8 45.7 455.0 45.4Q455.2 45.2 455.2 44.9L455.2 44.9L455.2 44.2Q455.1 44.3 455.0 44.3Q454.8 44.3 454.6 44.4Q454.5 44.4 454.3 44.4Q454.1 44.5 454.0 44.5L454.0 44.5Q453.7 44.5 453.5 44.6Q453.2 44.7 453.1 44.9Q453.0 45.0 453.0 45.3L453.0 45.3Q453.0 45.5 453.1 45.7Q453.2 45.8 453.4 45.9Q453.6 46.0 453.9 46.0ZM459.8 47L458.1 47L458.1 41.0L459.8 41.0L459.8 47ZM458.9 40.2L458.9 40.2Q458.6 40.2 458.3 40.0Q458.1 39.7 458.1 39.4L458.1 39.4Q458.1 39.0 458.3 38.8Q458.6 38.6 458.9 38.6L458.9 38.6Q459.3 38.6 459.6 38.8Q459.8 39.0 459.8 39.4L459.8 39.4Q459.8 39.7 459.6 40.0Q459.3 40.2 458.9 40.2Z M464.9 44.1L464.9 44.1Q464.5 44.1 464.2 43.9Q463.9 43.6 463.9 43.2L463.9 43.2Q463.9 42.8 464.2 42.5Q464.5 42.3 464.9 42.3L464.9 42.3Q465.3 42.3 465.5 42.5Q465.8 42.8 465.8 43.2L465.8 43.2Q465.8 43.6 465.5 43.9Q465.3 44.1 464.9 44.1Z M470.0 39.0L471.7 39.0L471.7 47L470.0 47L470.0 39.0ZM474.7 43.5L474.7 43.5L474.7 47L473.1 47L473.1 41.0L474.6 41.0L474.6 42.2Q474.9 41.7 475.3 41.3L475.3 41.3Q475.7 40.9 476.5 40.9L476.5 40.9Q477.1 40.9 477.6 41.2Q478.1 41.5 478.3 42.0Q478.6 42.5 478.6 43.2L478.6 43.2L478.6 47L477.0 47L477.0 43.5Q477.0 42.9 476.7 42.6Q476.4 42.3 475.9 42.3L475.9 42.3Q475.5 42.3 475.3 42.4Q475.0 42.6 474.9 42.8Q474.7 43.1 474.7 43.5ZM482.1 47.1L482.1 47.1Q481.4 47.1 480.9 46.7Q480.3 46.4 480.0 45.7Q479.7 45.0 479.7 44.0L479.7 44.0Q479.7 43.0 480.0 42.3Q480.4 41.6 480.9 41.3Q481.5 40.9 482.1 40.9L482.1 40.9Q482.6 40.9 483.0 41.1Q483.3 41.3 483.5 41.5Q483.7 41.8 483.8 42.0L483.8 42.0L483.9 42.0L483.9 39.0L485.5 39.0L485.5 47L483.9 47L483.9 46.0L483.8 46.0Q483.7 46.3 483.5 46.5Q483.3 46.8 483.0 46.9Q482.6 47.1 482.1 47.1ZM482.6 45.8L482.6 45.8Q483.0 45.8 483.3 45.6Q483.6 45.4 483.8 45.0Q483.9 44.5 483.9 44.0L483.9 44.0Q483.9 43.5 483.8 43.1Q483.6 42.7 483.3 42.4Q483.0 42.2 482.6 42.2L482.6 42.2Q482.2 42.2 481.9 42.4Q481.6 42.7 481.5 43.1Q481.3 43.5 481.3 44.0L481.3 44.0Q481.3 44.5 481.5 44.9Q481.6 45.3 481.9 45.6Q482.2 45.8 482.6 45.8ZM488.5 47L486.9 47L486.9 41.0L488.5 41.0L488.5 47ZM487.7 40.2L487.7 40.2Q487.3 40.2 487.1 40.0Q486.8 39.7 486.8 39.4L486.8 39.4Q486.8 39.0 487.1 38.8Q487.3 38.6 487.7 38.6L487.7 38.6Q488.0 38.6 488.3 38.8Q488.6 39.0 488.6 39.4L488.6 39.4Q488.6 39.7 488.3 40.0Q488.0 40.2 487.7 40.2ZM491.5 47.1L491.5 47.1Q491.0 47.1 490.5 46.9Q490.1 46.7 489.8 46.3Q489.5 45.9 489.5 45.3L489.5 45.3Q489.5 44.8 489.7 44.5Q489.9 44.1 490.2 43.9Q490.5 43.7 491.0 43.6Q491.4 43.5 491.8 43.5L491.8 43.5Q492.3 43.4 492.6 43.4Q493.0 43.3 493.1 43.2Q493.3 43.1 493.3 42.9L493.3 42.9L493.3 42.9Q493.3 42.7 493.2 42.5Q493.0 42.3 492.8 42.2Q492.6 42.1 492.3 42.1L492.3 42.1Q492.0 42.1 491.8 42.2Q491.5 42.3 491.4 42.5Q491.3 42.6 491.2 42.8L491.2 42.8L489.7 42.6Q489.9 42.0 490.2 41.7Q490.6 41.3 491.1 41.1Q491.7 40.9 492.3 40.9L492.3 40.9Q492.8 40.9 493.3 41.0Q493.7 41.2 494.1 41.4Q494.4 41.6 494.7 42.0Q494.9 42.4 494.9 43.0L494.9 43.0L494.9 47L493.3 47L493.3 46.2L493.3 46.2Q493.1 46.4 492.9 46.7Q492.7 46.9 492.3 47.0Q492.0 47.1 491.5 47.1ZM492.0 46.0L492.0 46.0Q492.4 46.0 492.7 45.8Q492.9 45.7 493.1 45.4Q493.3 45.2 493.3 44.9L493.3 44.9L493.3 44.2Q493.2 44.3 493.1 44.3Q492.9 44.3 492.7 44.4Q492.6 44.4 492.4 44.4Q492.2 44.5 492.1 44.5L492.1 44.5Q491.8 44.5 491.6 44.6Q491.3 44.7 491.2 44.9Q491.1 45.0 491.1 45.3L491.1 45.3Q491.1 45.5 491.2 45.7Q491.3 45.8 491.5 45.9Q491.7 46.0 492.0 46.0Z "/></g><mask id="satori_om-id-1"><rect x="596" y="29" width="223" height="12" fill="#fff"/></mask><g  ><path fill="rgba(33,187,133,0.2)" d="M597.7 39L596.8 39L596.8 31.7L597.7 31.7L597.7 35.9L597.8 35.9L600.1 33.5L601.2 33.5L598.9 35.9L601.4 39L600.2 39L598.2 36.4L597.7 37.0L597.7 39ZM604.1 39.1L604.1 39.1Q603.6 39.1 603.1 38.8Q602.7 38.6 602.5 38.2Q602.3 37.7 602.3 37.0L602.3 37.0L602.3 33.5L603.1 33.5L603.1 36.9Q603.1 37.6 603.5 37.9Q603.8 38.3 604.4 38.3L604.4 38.3Q604.8 38.3 605.1 38.1Q605.4 37.9 605.6 37.6Q605.7 37.3 605.7 36.8L605.7 36.8L605.7 33.5L606.6 33.5L606.6 39L605.8 39L605.8 38.0Q605.5 38.5 605.2 38.8L605.2 38.8Q604.7 39.1 604.1 39.1ZM610.0 39.1L610.0 39.1Q609.5 39.1 609.0 39.0Q608.6 38.8 608.3 38.5Q608.0 38.1 607.9 37.7L607.9 37.7L608.8 37.5Q608.9 37.9 609.2 38.1Q609.5 38.3 610.0 38.3L610.0 38.3Q610.6 38.3 610.9 38.1Q611.3 37.9 611.3 37.5L611.3 37.5Q611.3 37.2 611.1 37.0Q610.9 36.9 610.5 36.8L610.5 36.8L609.6 36.6Q608.8 36.4 608.5 36.0Q608.1 35.6 608.1 35.1L608.1 35.1Q608.1 34.6 608.4 34.2Q608.6 33.9 609.1 33.7Q609.5 33.5 610.1 33.5L610.1 33.5Q610.7 33.5 611.1 33.6Q611.5 33.8 611.7 34.1Q612.0 34.4 612.1 34.8L612.1 34.8L611.3 35.0Q611.2 34.7 610.9 34.5Q610.6 34.2 610.1 34.2L610.1 34.2Q609.6 34.2 609.3 34.4Q609.0 34.7 609.0 35.0L609.0 35.0Q609.0 35.3 609.2 35.5Q609.4 35.7 609.9 35.8L609.9 35.8L610.7 36.0Q611.5 36.2 611.8 36.5Q612.2 36.9 612.2 37.5L612.2 37.5Q612.2 37.9 611.9 38.3Q611.6 38.7 611.2 38.9Q610.7 39.1 610.0 39.1ZM614.3 35.7L614.3 35.7L614.3 39L613.5 39L613.5 31.7L614.3 31.7L614.3 34.5Q614.6 34.0 614.9 33.8L614.9 33.8Q615.4 33.5 616.0 33.5L616.0 33.5Q616.5 33.5 616.9 33.7Q617.4 33.9 617.6 34.4Q617.8 34.8 617.8 35.5L617.8 35.5L617.8 39L616.9 39L616.9 35.6Q616.9 35.0 616.6 34.6Q616.3 34.3 615.7 34.3L615.7 34.3Q615.3 34.3 615.0 34.4Q614.7 34.6 614.5 34.9Q614.3 35.3 614.3 35.7ZM620.9 39.1L620.9 39.1Q620.4 39.1 620.0 38.9Q619.5 38.7 619.3 38.4Q619.0 38.0 619.0 37.4L619.0 37.4Q619.0 37.0 619.2 36.7Q619.4 36.4 619.7 36.2Q620.0 36.1 620.4 36.0Q620.8 35.9 621.2 35.8L621.2 35.8Q621.6 35.8 622.0 35.7Q622.3 35.7 622.4 35.6Q622.6 35.5 622.6 35.3L622.6 35.3L622.6 35.3Q622.6 35.0 622.4 34.7Q622.3 34.5 622.0 34.4Q621.8 34.2 621.4 34.2L621.4 34.2Q621.0 34.2 620.7 34.4Q620.5 34.5 620.3 34.7Q620.1 34.9 620.0 35.0L620.0 35.0L619.2 34.8Q619.4 34.3 619.8 34.0Q620.1 33.7 620.5 33.6Q621.0 33.5 621.4 33.5L621.4 33.5Q621.7 33.5 622.0 33.5Q622.4 33.6 622.7 33.8Q623.0 34.0 623.2 34.4Q623.4 34.8 623.4 35.4L623.4 35.4L623.4 39L622.6 39L622.6 38.3L622.5 38.3Q622.4 38.4 622.2 38.7Q622.0 38.9 621.7 39.0Q621.4 39.1 620.9 39.1ZM621.0 38.4L621.0 38.4Q621.5 38.4 621.9 38.2Q622.2 38.0 622.4 37.7Q622.6 37.4 622.6 37.0L622.6 37.0L622.6 36.3Q622.5 36.3 622.3 36.4Q622.1 36.4 621.9 36.5Q621.7 36.5 621.5 36.5Q621.2 36.6 621.1 36.6L621.1 36.6Q620.8 36.6 620.5 36.7Q620.2 36.8 620.1 37.0Q619.9 37.2 619.9 37.5L619.9 37.5Q619.9 37.8 620.1 38.0Q620.2 38.2 620.5 38.3Q620.7 38.4 621.0 38.4ZM627.2 41.2L627.2 41.2Q626.6 41.2 626.1 41.0Q625.7 40.9 625.4 40.6Q625.1 40.3 624.9 40.0L624.9 40.0L625.7 39.6Q625.8 39.7 625.9 39.9Q626.1 40.1 626.4 40.3Q626.7 40.4 627.2 40.4L627.2 40.4Q627.8 40.4 628.3 40.1Q628.7 39.8 628.7 39.1L628.7 39.1L628.7 38.0L628.6 38.0Q628.5 38.2 628.3 38.4Q628.2 38.6 627.9 38.7Q627.5 38.9 627.0 38.9L627.0 38.9Q626.4 38.9 625.8 38.6Q625.3 38.3 625.0 37.7Q624.7 37.1 624.7 36.2L624.7 36.2Q624.7 35.4 625.0 34.8Q625.3 34.2 625.8 33.8Q626.4 33.5 627.0 33.5L627.0 33.5Q627.6 33.5 627.9 33.6Q628.2 33.8 628.4 34.0Q628.5 34.3 628.6 34.4L628.6 34.4L628.7 34.4L628.7 33.5L629.6 33.5L629.6 39.1Q629.6 39.8 629.3 40.3Q628.9 40.7 628.4 40.9Q627.9 41.2 627.2 41.2ZM627.2 38.1L627.2 38.1Q627.7 38.1 628.0 37.9Q628.3 37.7 628.5 37.2Q628.7 36.8 628.7 36.2L628.7 36.2Q628.7 35.6 628.5 35.2Q628.4 34.8 628.0 34.5Q627.7 34.3 627.2 34.3L627.2 34.3Q626.6 34.3 626.3 34.5Q626.0 34.8 625.8 35.2Q625.6 35.7 625.6 36.2L625.6 36.2Q625.6 36.8 625.8 37.2Q626.0 37.6 626.3 37.9Q626.7 38.1 627.2 38.1ZM632.0 39L631.1 39L631.1 33.5L632.0 33.5L632.0 34.4L632.0 34.4Q632.2 34.0 632.6 33.7Q632.9 33.5 633.4 33.5L633.4 33.5Q633.5 33.5 633.7 33.5Q633.8 33.5 633.9 33.5L633.9 33.5L633.9 34.4Q633.8 34.4 633.7 34.3Q633.5 34.3 633.4 34.3L633.4 34.3Q633.0 34.3 632.7 34.5Q632.3 34.6 632.2 34.9Q632.0 35.2 632.0 35.6L632.0 35.6L632.0 39ZM636.4 39.1L636.4 39.1Q635.9 39.1 635.5 38.9Q635.0 38.7 634.8 38.4Q634.5 38.0 634.5 37.4L634.5 37.4Q634.5 37.0 634.7 36.7Q634.9 36.4 635.2 36.2Q635.5 36.1 635.9 36.0Q636.3 35.9 636.7 35.8L636.7 35.8Q637.2 35.8 637.5 35.7Q637.8 35.7 637.9 35.6Q638.1 35.5 638.1 35.3L638.1 35.3L638.1 35.3Q638.1 35.0 637.9 34.7Q637.8 34.5 637.6 34.4Q637.3 34.2 636.9 34.2L636.9 34.2Q636.5 34.2 636.3 34.4Q636.0 34.5 635.8 34.7Q635.6 34.9 635.5 35.0L635.5 35.0L634.7 34.8Q634.9 34.3 635.3 34.0Q635.6 33.7 636.1 33.6Q636.5 33.5 636.9 33.5L636.9 33.5Q637.2 33.5 637.5 33.5Q637.9 33.6 638.2 33.8Q638.5 34.0 638.7 34.4Q638.9 34.8 638.9 35.4L638.9 35.4L638.9 39L638.1 39L638.1 38.3L638.0 38.3Q637.9 38.4 637.7 38.7Q637.5 38.9 637.2 39.0Q636.9 39.1 636.4 39.1ZM636.6 38.4L636.6 38.4Q637.0 38.4 637.4 38.2Q637.7 38.0 637.9 37.7Q638.1 37.4 638.1 37.0L638.1 37.0L638.1 36.3Q638.0 36.3 637.8 36.4Q637.7 36.4 637.4 36.5Q637.2 36.5 637.0 36.5Q636.8 36.6 636.6 36.6L636.6 36.6Q636.3 36.6 636.0 36.7Q635.8 36.8 635.6 37.0Q635.4 37.2 635.4 37.5L635.4 37.5Q635.4 37.8 635.6 38.0Q635.7 38.2 636.0 38.3Q636.2 38.4 636.6 38.4ZM642.8 39.1L642.8 39.1Q642.1 39.1 641.5 38.8Q640.9 38.6 640.6 38.1Q640.3 37.7 640.3 37.1L640.3 37.1Q640.3 36.6 640.5 36.2Q640.7 35.8 641.0 35.6Q641.3 35.3 641.7 35.2L641.7 35.2L641.7 35.2Q641.2 35.0 640.9 34.6Q640.6 34.1 640.6 33.6L640.6 33.6Q640.6 33.0 640.9 32.6Q641.2 32.1 641.7 31.9Q642.2 31.6 642.8 31.6L642.8 31.6Q643.5 31.6 644.0 31.9Q644.5 32.1 644.7 32.6Q645.0 33.0 645.0 33.6L645.0 33.6Q645.0 34.1 644.7 34.6Q644.4 35.0 643.9 35.2L643.9 35.2L643.9 35.2Q644.3 35.3 644.6 35.6Q644.9 35.8 645.1 36.2Q645.3 36.6 645.3 37.1L645.3 37.1Q645.3 37.7 645.0 38.1Q644.7 38.6 644.1 38.8Q643.5 39.1 642.8 39.1ZM642.8 38.3L642.8 38.3Q643.3 38.3 643.6 38.1Q644.0 38.0 644.2 37.7Q644.4 37.4 644.4 37.0L644.4 37.0Q644.4 36.6 644.2 36.3Q644.0 36.0 643.6 35.8Q643.3 35.6 642.8 35.6L642.8 35.6Q642.4 35.6 642.0 35.8Q641.6 36.0 641.4 36.3Q641.2 36.6 641.2 37.0L641.2 37.0Q641.2 37.4 641.4 37.7Q641.6 38.0 642.0 38.1Q642.3 38.3 642.8 38.3ZM642.8 34.9L642.8 34.9Q643.2 34.9 643.5 34.7Q643.8 34.6 644.0 34.3Q644.1 34.0 644.1 33.6L644.1 33.6Q644.1 33.3 644.0 33.0Q643.8 32.7 643.5 32.6Q643.2 32.4 642.8 32.4L642.8 32.4Q642.4 32.4 642.1 32.6Q641.8 32.7 641.6 33.0Q641.5 33.3 641.5 33.6L641.5 33.6Q641.5 34.0 641.6 34.3Q641.8 34.6 642.1 34.7Q642.4 34.9 642.8 34.9ZM648.0 31.7L649.1 31.7L649.1 39L648.2 39L648.2 32.6L648.1 32.6L646.4 33.9L646.4 32.9L648.0 31.7ZM652.9 39.1L652.9 39.1Q652.3 39.1 651.8 38.9Q651.3 38.6 651.0 38.2Q650.7 37.7 650.6 37.1L650.6 37.1L651.5 37.1Q651.7 37.6 652.0 38.0Q652.3 38.3 652.9 38.3L652.9 38.3Q653.5 38.3 653.9 38.0Q654.3 37.6 654.5 37.0Q654.7 36.4 654.7 35.5L654.7 35.5L654.7 35.5Q654.5 35.8 654.2 36.0Q653.9 36.2 653.6 36.4Q653.2 36.5 652.9 36.5L652.9 36.5Q652.2 36.5 651.7 36.2Q651.2 35.9 650.9 35.3Q650.6 34.8 650.6 34.1L650.6 34.1Q650.6 33.4 650.9 32.8Q651.2 32.3 651.7 31.9Q652.3 31.6 653.0 31.6L653.0 31.6Q653.5 31.6 653.9 31.8Q654.4 32.0 654.8 32.4Q655.1 32.7 655.4 33.4Q655.6 34.1 655.6 35.1L655.6 35.1Q655.6 36.0 655.4 36.8Q655.2 37.5 654.9 38.1Q654.5 38.6 654.0 38.8Q653.5 39.1 652.9 39.1ZM653.0 35.7L653.0 35.7Q653.3 35.7 653.6 35.5Q653.9 35.4 654.1 35.2Q654.3 34.9 654.5 34.7Q654.6 34.4 654.6 34.0L654.6 34.0Q654.6 33.6 654.4 33.3Q654.2 32.9 653.8 32.7Q653.5 32.4 653.0 32.4L653.0 32.4Q652.6 32.4 652.2 32.7Q651.9 32.9 651.7 33.2Q651.5 33.6 651.5 34.1L651.5 34.1Q651.5 34.5 651.7 34.9Q651.9 35.2 652.2 35.5Q652.6 35.7 653.0 35.7Z M660.4 36.2L660.4 36.2Q660.2 36.2 660.0 36.0Q659.8 35.8 659.8 35.5L659.8 35.5Q659.8 35.3 660.0 35.1Q660.2 34.9 660.4 34.9L660.4 34.9Q660.7 34.9 660.9 35.1Q661.1 35.3 661.1 35.5L661.1 35.5Q661.1 35.8 660.9 36.0Q660.7 36.2 660.4 36.2Z M666.3 41.0L665.5 41.0L665.5 33.5L666.3 33.5L666.3 34.4L666.4 34.4Q666.5 34.3 666.7 34.0Q666.8 33.8 667.1 33.6Q667.5 33.5 668.0 33.5L668.0 33.5Q668.7 33.5 669.2 33.8Q669.7 34.2 670.0 34.8Q670.3 35.4 670.3 36.3L670.3 36.3Q670.3 37.2 670.0 37.8Q669.7 38.4 669.2 38.8Q668.7 39.1 668.0 39.1L668.0 39.1Q667.5 39.1 667.2 38.9Q666.8 38.8 666.7 38.5Q666.5 38.3 666.4 38.2L666.4 38.2L666.3 38.2L666.3 41.0ZM667.9 38.3L667.9 38.3Q668.4 38.3 668.7 38.1Q669.1 37.8 669.2 37.3Q669.4 36.8 669.4 36.3L669.4 36.3Q669.4 35.7 669.2 35.3Q669.1 34.8 668.7 34.5Q668.4 34.3 667.9 34.3L667.9 34.3Q667.4 34.3 667.0 34.5Q666.7 34.8 666.5 35.2Q666.3 35.7 666.3 36.3L666.3 36.3Q666.3 36.9 666.5 37.3Q666.7 37.8 667.0 38.1Q667.4 38.3 667.9 38.3ZM673.8 39.1L673.8 39.1Q673.1 39.1 672.5 38.8Q671.9 38.4 671.6 37.8Q671.3 37.1 671.3 36.3L671.3 36.3Q671.3 35.5 671.6 34.8Q671.9 34.2 672.5 33.8Q673.1 33.5 673.8 33.5L673.8 33.5Q674.5 33.5 675.1 33.8Q675.7 34.2 676.0 34.8Q676.3 35.5 676.3 36.3L676.3 36.3Q676.3 37.1 676.0 37.8Q675.7 38.4 675.1 38.8Q674.5 39.1 673.8 39.1ZM673.8 38.3L673.8 38.3Q674.3 38.3 674.7 38.0Q675.1 37.8 675.2 37.3Q675.4 36.8 675.4 36.3L675.4 36.3Q675.4 35.8 675.2 35.3Q675.1 34.8 674.7 34.5Q674.3 34.3 673.8 34.3L673.8 34.3Q673.3 34.3 672.9 34.5Q672.5 34.8 672.4 35.3Q672.2 35.8 672.2 36.3L672.2 36.3Q672.2 36.8 672.4 37.3Q672.5 37.8 672.9 38.0Q673.3 38.3 673.8 38.3ZM679.7 39L678.8 39L677.1 33.5L678.1 33.5L678.7 35.9Q678.9 36.4 679.0 37.0L679.0 37.0Q679.1 37.5 679.3 38.1L679.3 38.1Q679.4 37.5 679.5 37.1L679.5 37.1Q679.6 36.4 679.8 35.9L679.8 35.9L680.4 33.5L681.4 33.5L682.0 35.9Q682.2 36.4 682.3 37.0L682.3 37.0Q682.4 37.5 682.5 38.0L682.5 38.0Q682.6 37.5 682.8 37.1L682.8 37.1Q682.9 36.4 683.0 35.9L683.0 35.9L683.7 33.5L684.6 33.5L683.0 39L682.1 39L681.4 36.5Q681.3 36.2 681.2 35.8Q681.1 35.4 681.0 35.0L681.0 35.0Q680.9 34.8 680.9 34.5L680.9 34.5Q680.8 34.7 680.8 35.0L680.8 35.0Q680.7 35.4 680.6 35.8Q680.5 36.2 680.4 36.5L680.4 36.5L679.7 39ZM688.1 39.1L688.1 39.1Q687.3 39.1 686.7 38.8Q686.1 38.4 685.8 37.8Q685.5 37.2 685.5 36.3Q685.5 35.5 685.8 34.8Q686.1 34.2 686.7 33.8Q687.2 33.5 687.9 33.5L687.9 33.5Q688.4 33.5 688.8 33.6Q689.2 33.8 689.6 34.1Q689.9 34.4 690.1 34.9Q690.3 35.4 690.3 36.2L690.3 36.2L690.3 36.6L686.4 36.6Q686.4 37.1 686.6 37.5L686.6 37.5Q686.8 37.9 687.2 38.1Q687.6 38.3 688.1 38.3L688.1 38.3Q688.4 38.3 688.6 38.2Q688.9 38.2 689.1 38.0Q689.3 37.8 689.4 37.5L689.4 37.5L690.2 37.7Q690.1 38.1 689.8 38.5Q689.5 38.8 689.1 38.9Q688.6 39.1 688.1 39.1ZM686.4 35.8L686.4 35.8L689.4 35.8Q689.4 35.5 689.3 35.1L689.3 35.1Q689.1 34.7 688.8 34.5Q688.4 34.3 687.9 34.3Q687.5 34.3 687.1 34.5Q686.8 34.7 686.6 35.1L686.6 35.1Q686.4 35.5 686.4 35.8ZM692.5 39L691.6 39L691.6 33.5L692.4 33.5L692.4 34.4L692.5 34.4Q692.6 34.0 693.0 33.7Q693.4 33.5 693.9 33.5L693.9 33.5Q694.0 33.5 694.1 33.5Q694.3 33.5 694.4 33.5L694.4 33.5L694.4 34.4Q694.3 34.4 694.2 34.3Q694.0 34.3 693.8 34.3L693.8 34.3Q693.4 34.3 693.1 34.5Q692.8 34.6 692.6 34.9Q692.5 35.2 692.5 35.6L692.5 35.6L692.5 39ZM697.6 39.1L697.6 39.1Q696.9 39.1 696.3 38.8Q695.7 38.4 695.4 37.8Q695.1 37.2 695.1 36.3Q695.1 35.5 695.4 34.8Q695.7 34.2 696.2 33.8Q696.8 33.5 697.5 33.5L697.5 33.5Q698.0 33.5 698.4 33.6Q698.8 33.8 699.2 34.1Q699.5 34.4 699.7 34.9Q699.9 35.4 699.9 36.2L699.9 36.2L699.9 36.6L696.0 36.6Q696.0 37.1 696.2 37.5L696.2 37.5Q696.4 37.9 696.8 38.1Q697.2 38.3 697.7 38.3L697.7 38.3Q698.0 38.3 698.2 38.2Q698.5 38.2 698.7 38.0Q698.9 37.8 699.0 37.5L699.0 37.5L699.8 37.7Q699.7 38.1 699.4 38.5Q699.1 38.8 698.7 38.9Q698.2 39.1 697.6 39.1ZM696.0 35.8L696.0 35.8L699.0 35.8Q699.0 35.5 698.9 35.1L698.9 35.1Q698.7 34.7 698.4 34.5Q698.0 34.3 697.5 34.3Q697.0 34.3 696.7 34.5Q696.3 34.7 696.2 35.1L696.2 35.1Q696.0 35.5 696.0 35.8ZM703.2 39.1L703.2 39.1Q702.5 39.1 702.0 38.8Q701.5 38.4 701.2 37.8Q700.9 37.2 700.9 36.3L700.9 36.3Q700.9 35.4 701.2 34.8Q701.5 34.2 702.0 33.8Q702.6 33.5 703.2 33.5L703.2 33.5Q703.8 33.5 704.1 33.6Q704.4 33.8 704.6 34.0Q704.7 34.3 704.8 34.4L704.8 34.4L704.9 34.4L704.9 31.7L705.8 31.7L705.8 39L704.9 39L704.9 38.2L704.8 38.2Q704.7 38.3 704.6 38.5Q704.4 38.8 704.1 38.9Q703.7 39.1 703.2 39.1ZM703.4 38.3L703.4 38.3Q703.9 38.3 704.2 38.1Q704.5 37.8 704.7 37.3Q704.9 36.9 704.9 36.3L704.9 36.3Q704.9 35.7 704.7 35.2Q704.5 34.8 704.2 34.5Q703.9 34.3 703.4 34.3L703.4 34.3Q702.8 34.3 702.5 34.5Q702.2 34.8 702.0 35.3Q701.8 35.7 701.8 36.3L701.8 36.3Q701.8 36.8 702.0 37.3Q702.2 37.8 702.5 38.1Q702.9 38.3 703.4 38.3Z M712.7 39.1L712.7 39.1Q712.1 39.1 711.8 38.9Q711.5 38.8 711.3 38.5Q711.2 38.3 711.1 38.2L711.1 38.2L711.0 38.2L711.0 39L710.1 39L710.1 31.7L711.0 31.7L711.0 34.4L711.1 34.4Q711.2 34.3 711.3 34.0Q711.5 33.8 711.8 33.6Q712.1 33.5 712.6 33.5L712.6 33.5Q713.3 33.5 713.8 33.8Q714.4 34.2 714.7 34.8Q715.0 35.4 715.0 36.3L715.0 36.3Q715.0 37.2 714.7 37.8Q714.4 38.4 713.9 38.8Q713.3 39.1 712.7 39.1ZM712.5 38.3L712.5 38.3Q713.0 38.3 713.4 38.1Q713.7 37.8 713.9 37.3Q714.1 36.8 714.1 36.3L714.1 36.3Q714.1 35.7 713.9 35.3Q713.7 34.8 713.4 34.5Q713.0 34.3 712.5 34.3L712.5 34.3Q712.0 34.3 711.7 34.5Q711.3 34.8 711.2 35.2Q711.0 35.7 711.0 36.3L711.0 36.3Q711.0 36.9 711.2 37.3Q711.3 37.8 711.7 38.1Q712.0 38.3 712.5 38.3ZM716.2 41.0L716.2 41.0L716.4 40.2L716.5 40.2Q716.7 40.3 717.0 40.3Q717.2 40.2 717.4 40.1Q717.5 39.9 717.7 39.5L717.7 39.5L717.8 39.0L715.7 33.5L716.7 33.5L717.9 36.8Q718.0 37.3 718.2 37.8L718.2 37.8Q718.2 38.0 718.3 38.2L718.3 38.2Q718.3 38.0 718.4 37.8L718.4 37.8Q718.5 37.3 718.7 36.8L718.7 36.8L719.9 33.5L720.8 33.5L718.4 39.8Q718.3 40.3 718.0 40.5Q717.8 40.8 717.5 40.9Q717.2 41.1 716.8 41.1L716.8 41.1Q716.6 41.1 716.4 41.0Q716.2 41.0 716.2 41.0Z M725.6 39L724.7 39L724.7 33.5L725.5 33.5L725.5 34.4L725.6 34.4Q725.7 34.0 726.1 33.7Q726.5 33.5 727.0 33.5L727.0 33.5Q727.1 33.5 727.2 33.5Q727.4 33.5 727.4 33.5L727.4 33.5L727.4 34.4Q727.4 34.4 727.2 34.3Q727.1 34.3 726.9 34.3L726.9 34.3Q726.5 34.3 726.2 34.5Q725.9 34.6 725.7 34.9Q725.6 35.2 725.6 35.6L725.6 35.6L725.6 39ZM730.7 39.1L730.7 39.1Q729.9 39.1 729.4 38.8Q728.8 38.4 728.5 37.8Q728.2 37.2 728.2 36.3Q728.2 35.5 728.5 34.8Q728.8 34.2 729.3 33.8Q729.9 33.5 730.6 33.5L730.6 33.5Q731.1 33.5 731.5 33.6Q731.9 33.8 732.3 34.1Q732.6 34.4 732.8 34.9Q733.0 35.4 733.0 36.2L733.0 36.2L733.0 36.6L729.1 36.6Q729.1 37.1 729.3 37.5L729.3 37.5Q729.5 37.9 729.9 38.1Q730.2 38.3 730.7 38.3L730.7 38.3Q731.1 38.3 731.3 38.2Q731.6 38.2 731.8 38.0Q732.0 37.8 732.1 37.5L732.1 37.5L732.9 37.7Q732.8 38.1 732.5 38.5Q732.2 38.8 731.7 38.9Q731.3 39.1 730.7 39.1ZM729.1 35.8L729.1 35.8L732.1 35.8Q732.1 35.5 732.0 35.1L732.0 35.1Q731.8 34.7 731.5 34.5Q731.1 34.3 730.6 34.3Q730.1 34.3 729.8 34.5Q729.4 34.7 729.2 35.1L729.2 35.1Q729.1 35.5 729.1 35.8ZM735.8 39.1L735.8 39.1Q735.3 39.1 734.9 38.9Q734.4 38.7 734.2 38.4Q733.9 38.0 733.9 37.4L733.9 37.4Q733.9 37.0 734.1 36.7Q734.3 36.4 734.6 36.2Q734.9 36.1 735.3 36.0Q735.7 35.9 736.1 35.8L736.1 35.8Q736.5 35.8 736.9 35.7Q737.2 35.7 737.3 35.6Q737.5 35.5 737.5 35.3L737.5 35.3L737.5 35.3Q737.5 35.0 737.3 34.7Q737.2 34.5 737.0 34.4Q736.7 34.2 736.3 34.2L736.3 34.2Q735.9 34.2 735.6 34.4Q735.4 34.5 735.2 34.7Q735.0 34.9 734.9 35.0L734.9 35.0L734.1 34.8Q734.3 34.3 734.7 34.0Q735.0 33.7 735.4 33.6Q735.9 33.5 736.3 33.5L736.3 33.5Q736.6 33.5 736.9 33.5Q737.3 33.6 737.6 33.8Q737.9 34.0 738.1 34.4Q738.3 34.8 738.3 35.4L738.3 35.4L738.3 39L737.5 39L737.5 38.3L737.4 38.3Q737.3 38.4 737.1 38.7Q736.9 38.9 736.6 39.0Q736.3 39.1 735.8 39.1ZM735.9 38.4L735.9 38.4Q736.4 38.4 736.8 38.2Q737.1 38.0 737.3 37.7Q737.5 37.4 737.5 37.0L737.5 37.0L737.5 36.3Q737.4 36.3 737.2 36.4Q737.0 36.4 736.8 36.5Q736.6 36.5 736.4 36.5Q736.1 36.6 736.0 36.6L736.0 36.6Q735.7 36.6 735.4 36.7Q735.2 36.8 735.0 37.0Q734.8 37.2 734.8 37.5L734.8 37.5Q734.8 37.8 735.0 38.0Q735.1 38.2 735.4 38.3Q735.6 38.4 735.9 38.4ZM741.9 39.1L741.9 39.1Q741.2 39.1 740.7 38.8Q740.2 38.4 739.9 37.8Q739.6 37.2 739.6 36.3L739.6 36.3Q739.6 35.4 739.9 34.8Q740.2 34.2 740.7 33.8Q741.3 33.5 741.9 33.5L741.9 33.5Q742.5 33.5 742.8 33.6Q743.1 33.8 743.3 34.0Q743.4 34.3 743.5 34.4L743.5 34.4L743.6 34.4L743.6 31.7L744.5 31.7L744.5 39L743.6 39L743.6 38.2L743.5 38.2Q743.4 38.3 743.3 38.5Q743.1 38.8 742.8 38.9Q742.5 39.1 741.9 39.1ZM742.1 38.3L742.1 38.3Q742.6 38.3 742.9 38.1Q743.2 37.8 743.4 37.3Q743.6 36.9 743.6 36.3L743.6 36.3Q743.6 35.7 743.4 35.2Q743.2 34.8 742.9 34.5Q742.6 34.3 742.1 34.3L742.1 34.3Q741.5 34.3 741.2 34.5Q740.9 34.8 740.7 35.3Q740.5 35.7 740.5 36.3L740.5 36.3Q740.5 36.8 740.7 37.3Q740.9 37.8 741.2 38.1Q741.6 38.3 742.1 38.3ZM746.9 39L746.0 39L746.0 33.5L746.9 33.5L746.9 34.5Q747.0 34.2 747.2 34.0L747.2 34.0Q747.4 33.7 747.7 33.6Q748.0 33.4 748.4 33.4L748.4 33.4Q749.0 33.4 749.4 33.8L749.4 33.8Q749.7 34.1 749.8 34.6L749.8 34.6Q749.9 34.3 750.1 34.1L750.1 34.1Q750.3 33.8 750.7 33.6Q751.1 33.4 751.5 33.4L751.5 33.4Q752.0 33.4 752.4 33.6Q752.8 33.9 753.0 34.3Q753.2 34.7 753.2 35.3L753.2 35.3L753.2 39L752.3 39L752.3 35.3Q752.3 34.8 752.0 34.5Q751.7 34.2 751.2 34.2L751.2 34.2Q750.9 34.2 750.6 34.4Q750.3 34.6 750.2 34.8Q750.1 35.1 750.1 35.4L750.1 35.4L750.1 39L749.2 39L749.2 35.3Q749.2 34.8 748.9 34.5Q748.6 34.2 748.1 34.2L748.1 34.2Q747.8 34.2 747.5 34.4Q747.2 34.5 747.1 34.8Q746.9 35.1 746.9 35.6L746.9 35.6L746.9 39ZM757.1 39.1L757.1 39.1Q756.3 39.1 755.7 38.8Q755.1 38.4 754.8 37.8Q754.5 37.2 754.5 36.3Q754.5 35.5 754.8 34.8Q755.1 34.2 755.7 33.8Q756.2 33.5 757.0 33.5L757.0 33.5Q757.4 33.5 757.8 33.6Q758.2 33.8 758.6 34.1Q758.9 34.4 759.1 34.9Q759.3 35.4 759.3 36.2L759.3 36.2L759.3 36.6L755.4 36.6Q755.4 37.1 755.6 37.5L755.6 37.5Q755.8 37.9 756.2 38.1Q756.6 38.3 757.1 38.3L757.1 38.3Q757.4 38.3 757.7 38.2Q757.9 38.2 758.1 38.0Q758.3 37.8 758.4 37.5L758.4 37.5L759.2 37.7Q759.1 38.1 758.8 38.5Q758.5 38.8 758.1 38.9Q757.6 39.1 757.1 39.1ZM755.4 35.8L755.4 35.8L758.4 35.8Q758.4 35.5 758.3 35.1L758.3 35.1Q758.1 34.7 757.8 34.5Q757.5 34.3 757.0 34.3Q756.5 34.3 756.1 34.5Q755.8 34.7 755.6 35.1L755.6 35.1Q755.4 35.5 755.4 35.8ZM760.5 35.5L763.7 35.5L763.7 36.3L760.5 36.3L760.5 35.5ZM766.7 39.1L766.7 39.1Q766.2 39.1 765.8 38.9Q765.4 38.7 765.1 38.4Q764.9 38.0 764.9 37.4L764.9 37.4Q764.9 37.0 765.0 36.7Q765.2 36.4 765.5 36.2Q765.9 36.1 766.2 36.0Q766.6 35.9 767.0 35.8L767.0 35.8Q767.5 35.8 767.8 35.7Q768.1 35.7 768.2 35.6Q768.4 35.5 768.4 35.3L768.4 35.3L768.4 35.3Q768.4 35.0 768.3 34.7Q768.1 34.5 767.9 34.4Q767.6 34.2 767.2 34.2L767.2 34.2Q766.9 34.2 766.6 34.4Q766.3 34.5 766.1 34.7Q766.0 34.9 765.9 35.0L765.9 35.0L765.0 34.8Q765.2 34.3 765.6 34.0Q765.9 33.7 766.4 33.6Q766.8 33.5 767.2 33.5L767.2 33.5Q767.5 33.5 767.8 33.5Q768.2 33.6 768.5 33.8Q768.8 34.0 769.1 34.4Q769.3 34.8 769.3 35.4L769.3 35.4L769.3 39L768.4 39L768.4 38.3L768.3 38.3Q768.3 38.4 768.0 38.7Q767.8 38.9 767.5 39.0Q767.2 39.1 766.7 39.1ZM766.9 38.4L766.9 38.4Q767.4 38.4 767.7 38.2Q768.0 38.0 768.2 37.7Q768.4 37.4 768.4 37.0L768.4 37.0L768.4 36.3Q768.3 36.3 768.2 36.4Q768.0 36.4 767.7 36.5Q767.5 36.5 767.3 36.5Q767.1 36.6 766.9 36.6L766.9 36.6Q766.6 36.6 766.4 36.7Q766.1 36.8 765.9 37.0Q765.7 37.2 765.7 37.5L765.7 37.5Q765.7 37.8 765.9 38.0Q766.0 38.2 766.3 38.3Q766.5 38.4 766.9 38.4ZM772.7 39.1L772.7 39.1Q772.1 39.1 771.7 38.8Q771.3 38.6 771.0 38.2Q770.8 37.7 770.8 37.0L770.8 37.0L770.8 33.5L771.7 33.5L771.7 36.9Q771.7 37.6 772.0 37.9Q772.4 38.3 772.9 38.3L772.9 38.3Q773.3 38.3 773.6 38.1Q773.9 37.9 774.1 37.6Q774.3 37.3 774.3 36.8L774.3 36.8L774.3 33.5L775.2 33.5L775.2 39L774.3 39L774.3 38.0Q774.1 38.5 773.7 38.8L773.7 38.8Q773.3 39.1 772.7 39.1ZM777.6 39L776.7 39L776.7 33.5L777.6 33.5L777.6 34.4L777.6 34.4Q777.8 34.0 778.2 33.7Q778.6 33.5 779.0 33.5L779.0 33.5Q779.1 33.5 779.3 33.5Q779.4 33.5 779.5 33.5L779.5 33.5L779.5 34.4Q779.5 34.4 779.3 34.3Q779.1 34.3 779.0 34.3L779.0 34.3Q778.6 34.3 778.3 34.5Q778.0 34.6 777.8 34.9Q777.6 35.2 777.6 35.6L777.6 35.6L777.6 39ZM782.0 39.1L782.0 39.1Q781.5 39.1 781.1 38.9Q780.7 38.7 780.4 38.4Q780.2 38.0 780.2 37.4L780.2 37.4Q780.2 37.0 780.3 36.7Q780.5 36.4 780.8 36.2Q781.1 36.1 781.5 36.0Q781.9 35.9 782.3 35.8L782.3 35.8Q782.8 35.8 783.1 35.7Q783.4 35.7 783.5 35.6Q783.7 35.5 783.7 35.3L783.7 35.3L783.7 35.3Q783.7 35.0 783.6 34.7Q783.4 34.5 783.2 34.4Q782.9 34.2 782.5 34.2L782.5 34.2Q782.1 34.2 781.9 34.4Q781.6 34.5 781.4 34.7Q781.2 34.9 781.2 35.0L781.2 35.0L780.3 34.8Q780.5 34.3 780.9 34.0Q781.2 33.7 781.7 33.6Q782.1 33.5 782.5 33.5L782.5 33.5Q782.8 33.5 783.1 33.5Q783.5 33.6 783.8 33.8Q784.1 34.0 784.3 34.4Q784.6 34.8 784.6 35.4L784.6 35.4L784.6 39L783.7 39L783.7 38.3L783.6 38.3Q783.5 38.4 783.3 38.7Q783.1 38.9 782.8 39.0Q782.5 39.1 782.0 39.1ZM782.2 38.4L782.2 38.4Q782.7 38.4 783.0 38.2Q783.3 38.0 783.5 37.7Q783.7 37.4 783.7 37.0L783.7 37.0L783.7 36.3Q783.6 36.3 783.4 36.4Q783.3 36.4 783.0 36.5Q782.8 36.5 782.6 36.5Q782.4 36.6 782.2 36.6L782.2 36.6Q781.9 36.6 781.6 36.7Q781.4 36.8 781.2 37.0Q781.0 37.2 781.0 37.5L781.0 37.5Q781.0 37.8 781.2 38.0Q781.3 38.2 781.6 38.3Q781.8 38.4 782.2 38.4Z M789.6 36.2L789.6 36.2Q789.3 36.2 789.1 36.0Q788.9 35.8 788.9 35.5L788.9 35.5Q788.9 35.3 789.1 35.1Q789.3 34.9 789.6 34.9L789.6 34.9Q789.9 34.9 790.1 35.1Q790.2 35.3 790.2 35.5L790.2 35.5Q790.2 35.8 790.1 36.0Q789.9 36.2 789.6 36.2Z M799.2 39L794.6 39L794.6 38.3L797.0 35.7Q797.4 35.3 797.7 34.9Q797.9 34.6 798.1 34.3Q798.2 34.0 798.2 33.7L798.2 33.7Q798.2 33.3 798.0 33.0Q797.9 32.7 797.6 32.6Q797.2 32.4 796.9 32.4L796.9 32.4Q796.4 32.4 796.1 32.6Q795.8 32.8 795.7 33.1Q795.5 33.4 795.5 33.8L795.5 33.8L794.6 33.8Q794.6 33.1 794.9 32.7Q795.2 32.2 795.7 31.9Q796.2 31.6 796.9 31.6L796.9 31.6Q797.5 31.6 798.0 31.9Q798.5 32.2 798.8 32.6Q799.1 33.1 799.1 33.7L799.1 33.7Q799.1 34.1 799.0 34.4Q798.8 34.8 798.5 35.3Q798.1 35.7 797.5 36.4L797.5 36.4L795.9 38.1L795.9 38.2L799.2 38.2L799.2 39ZM803.1 39.1L803.1 39.1Q802.3 39.1 801.7 38.7Q801.1 38.2 800.8 37.4Q800.5 36.6 800.5 35.4L800.5 35.4Q800.5 34.2 800.8 33.4Q801.1 32.5 801.7 32.1Q802.3 31.6 803.1 31.6L803.1 31.6Q803.9 31.6 804.5 32.1Q805.0 32.5 805.3 33.4Q805.6 34.2 805.6 35.4L805.6 35.4Q805.6 36.5 805.3 37.4Q805.0 38.2 804.5 38.7Q803.9 39.1 803.1 39.1ZM803.1 38.3L803.1 38.3Q803.6 38.3 804.0 37.9Q804.4 37.6 804.6 36.9Q804.8 36.3 804.8 35.4L804.8 35.4Q804.8 34.4 804.6 33.8Q804.4 33.1 804.0 32.8Q803.6 32.4 803.1 32.4L803.1 32.4Q802.6 32.4 802.2 32.8Q801.8 33.1 801.6 33.8Q801.4 34.4 801.4 35.4L801.4 35.4Q801.4 36.3 801.6 36.9Q801.8 37.6 802.2 37.9Q802.6 38.3 803.1 38.3ZM811.6 39L807.0 39L807.0 38.3L809.4 35.7Q809.8 35.3 810.1 34.9Q810.4 34.6 810.5 34.3Q810.6 34.0 810.6 33.7L810.6 33.7Q810.6 33.3 810.4 33.0Q810.3 32.7 810.0 32.6Q809.7 32.4 809.3 32.4L809.3 32.4Q808.8 32.4 808.5 32.6Q808.2 32.8 808.1 33.1Q807.9 33.4 807.9 33.8L807.9 33.8L807.0 33.8Q807.0 33.1 807.3 32.7Q807.6 32.2 808.1 31.9Q808.6 31.6 809.3 31.6L809.3 31.6Q809.9 31.6 810.4 31.9Q810.9 32.2 811.2 32.6Q811.5 33.1 811.5 33.7L811.5 33.7Q811.5 34.1 811.4 34.4Q811.2 34.8 810.9 35.3Q810.5 35.7 809.9 36.4L809.9 36.4L808.3 38.1L808.3 38.2L811.6 38.2L811.6 39ZM815.5 39.1L815.5 39.1Q815.0 39.1 814.6 38.9Q814.1 38.8 813.8 38.4Q813.4 38.0 813.2 37.3Q812.9 36.6 812.9 35.6L812.9 35.6Q812.9 34.7 813.1 33.9Q813.3 33.2 813.7 32.7Q814.0 32.2 814.5 31.9Q815.0 31.6 815.6 31.6L815.6 31.6Q816.2 31.6 816.7 31.9Q817.2 32.1 817.5 32.5Q817.8 33.0 817.9 33.6L817.9 33.6L817.0 33.6Q816.9 33.1 816.5 32.8Q816.2 32.4 815.6 32.4L815.6 32.4Q815.1 32.4 814.6 32.8Q814.2 33.1 814.0 33.7Q813.8 34.3 813.8 35.2L813.8 35.2L813.9 35.2Q814.1 34.9 814.3 34.7Q814.6 34.5 815.0 34.4Q815.3 34.2 815.7 34.2L815.7 34.2Q816.3 34.2 816.8 34.6Q817.3 34.9 817.6 35.4Q817.9 35.9 817.9 36.7L817.9 36.7Q817.9 37.3 817.6 37.9Q817.3 38.4 816.8 38.8Q816.2 39.1 815.5 39.1ZM815.5 38.3L815.5 38.3Q815.9 38.3 816.3 38.1Q816.6 37.8 816.8 37.5Q817.0 37.1 817.0 36.7L817.0 36.7Q817.0 36.2 816.9 35.8Q816.7 35.5 816.3 35.3Q816.0 35.0 815.5 35.0L815.5 35.0Q815.2 35.0 814.9 35.2Q814.6 35.3 814.4 35.5Q814.2 35.8 814.1 36.1Q813.9 36.3 813.9 36.7L813.9 36.7Q813.9 37.1 814.1 37.5Q814.3 37.8 814.7 38.1Q815.1 38.3 815.5 38.3Z "/></g></svg>