<!-- Generated by readme-aura https://github.com/collectioneur/readme-aura -->
<svg width="860" height="160" viewBox="0 0 860 160" xmlns="http://www.w3.org/2000/svg"><defs><clipPath id="satori_bc-id"><path x="0" y="0" width="860" height="160" d="M16,0 h828 a16,16 0 0 1 16,16 v128 a16,16 0 0 1 -16,16 h-828 a16,16 0 0 1 -16,-16 v-128 a16,16 0 0 1 16,-16"/></clipPath></defs><mask id="satori_om-id"><rect x="1" y="1" width="858" height="158" fill="#fff"/><path width="860" height="160" fill="none" stroke="#000" stroke-width="2" d="M4.686,4.686 A16,16 0 0 1 16,0 h828 a16,16 0 0 1 16,16 v128 a16,16 0 0 1 -16,16 h-828 a16,16 0 0 1 -16,-16 v-128 A16,16 0 0 1 4.686,4.686"/></mask><path x="0" y="0" width="860" height="160" fill="#080c0a" d="M16,0 h828 a16,16 0 0 1 16,16 v128 a16,16 0 0 1 -16,16 h-828 a16,16 0 0 1 -16,-16 v-128 a16,16 0 0 1 16,-16"/><path width="860" height="160" clip-path="url(#satori_bc-id)" fill="none" stroke="rgba(33,187,133,0.2)" stroke-width="2" d="M4.686,4.686 A16,16 0 0 1 16,0 h828 a16,16 0 0 1 16,16 v128 a16,16 0 0 1 -16,16 h-828 a16,16 0 0 1 -16,-16 v-128 A16,16 0 0 1 4.686,4.686"/><mask id="satori_om-id-0"><rect x="41" y="23" width="778" height="15" fill="#fff"/></mask><g  ><path fill="#21bb85" d="M44.1 27.8L41.4 27.8L41.4 26.3L48.6 26.3L48.6 27.8L45.9 27.8L45.9 35L44.1 35L44.1 27.8ZM57.7 35L51.8 35L51.8 26.3L57.6 26.3L57.6 27.8L53.6 27.8L53.6 29.9L57.3 29.9L57.3 31.3L53.6 31.3L53.6 33.5L57.7 33.5L57.7 35ZM64.9 35.1L64.9 35.1Q63.7 35.1 62.8 34.6Q61.9 34.1 61.4 33.1Q60.8 32.1 60.8 30.6L60.8 30.6Q60.8 29.2 61.4 28.2Q61.9 27.2 62.8 26.7Q63.8 26.2 64.9 26.2L64.9 26.2Q65.6 26.2 66.3 26.4Q66.9 26.6 67.4 27.0Q67.9 27.4 68.2 27.9Q68.6 28.5 68.7 29.3L68.7 29.3L66.8 29.3Q66.8 28.9 66.6 28.6Q66.5 28.3 66.2 28.1Q66.0 27.9 65.6 27.8Q65.3 27.7 64.9 27.7L64.9 27.7Q64.3 27.7 63.7 28.1Q63.2 28.4 63.0 29.1Q62.7 29.7 62.7 30.6L62.7 30.6Q62.7 31.6 63.0 32.2Q63.2 32.9 63.8 33.2Q64.3 33.5 64.9 33.5L64.9 33.5Q65.3 33.5 65.6 33.4Q65.9 33.3 66.2 33.1Q66.5 32.9 66.6 32.7Q66.8 32.4 66.9 32.0L66.9 32.0L68.7 32.0Q68.6 32.6 68.3 33.2Q68.0 33.7 67.5 34.2Q67.1 34.6 66.4 34.9Q65.7 35.1 64.9 35.1ZM73.8 35L72.0 35L72.0 26.3L73.8 26.3L73.8 29.8L77.6 29.8L77.6 26.3L79.3 26.3L79.3 35L77.6 35L77.6 31.3L73.8 31.3L73.8 35Z M91.0 35.1L91.0 35.1Q89.9 35.1 89.1 34.8Q88.4 34.5 87.9 33.9Q87.5 33.2 87.5 32.3L87.5 32.3L89.2 32.3Q89.3 32.7 89.5 33.0Q89.7 33.3 90.1 33.5Q90.5 33.6 91.0 33.6L91.0 33.6Q91.4 33.6 91.8 33.5Q92.1 33.3 92.3 33.1Q92.5 32.8 92.5 32.5L92.5 32.5Q92.5 32.2 92.4 32.0Q92.2 31.8 91.9 31.7Q91.5 31.5 91.0 31.4L91.0 31.4L90.1 31.2Q89.0 30.9 88.3 30.3Q87.7 29.7 87.7 28.8L87.7 28.8Q87.7 28.0 88.1 27.4Q88.6 26.8 89.3 26.5Q90.0 26.2 91.0 26.2L91.0 26.2Q92.0 26.2 92.7 26.5Q93.4 26.8 93.8 27.4Q94.2 28.0 94.2 28.8L94.2 28.8L92.5 28.8Q92.4 28.2 92.0 27.9Q91.6 27.7 91.0 27.7L91.0 27.7Q90.5 27.7 90.2 27.8Q89.9 27.9 89.7 28.1Q89.5 28.4 89.5 28.7L89.5 28.7Q89.5 29.0 89.7 29.2Q89.9 29.4 90.3 29.5Q90.6 29.7 90.9 29.8L90.9 29.8L91.7 30.0Q92.3 30.1 92.8 30.3Q93.2 30.5 93.6 30.8Q93.9 31.1 94.1 31.5Q94.3 32.0 94.3 32.5L94.3 32.5Q94.3 33.3 93.9 33.9Q93.5 34.5 92.8 34.8Q92.0 35.1 91.0 35.1ZM100.0 27.8L97.3 27.8L97.3 26.3L104.4 26.3L104.4 27.8L101.7 27.8L101.7 35L100.0 35L100.0 27.8ZM109.1 35L107.1 35L110.1 26.3L112.5 26.3L115.5 35L113.5 35L112.9 33.0L109.8 33.0L109.1 35ZM110.2 31.6L112.4 31.6L112.1 30.8Q111.9 30.0 111.6 29L111.6 29Q111.5 28.4 111.3 27.7L111.3 27.7Q111.1 28.4 110.9 29.0L110.9 29.0Q110.7 30.0 110.5 30.8L110.5 30.8L110.2 31.6ZM122.4 35.1L122.4 35.1Q121.3 35.1 120.3 34.6Q119.4 34.1 118.9 33.1Q118.4 32.1 118.4 30.6L118.4 30.6Q118.4 29.2 118.9 28.2Q119.4 27.2 120.3 26.7Q121.3 26.2 122.4 26.2L122.4 26.2Q123.2 26.2 123.8 26.4Q124.4 26.6 124.9 27.0Q125.4 27.4 125.8 27.9Q126.1 28.5 126.2 29.3L126.2 29.3L124.4 29.3Q124.3 28.9 124.1 28.6Q124.0 28.3 123.7 28.1Q123.5 27.9 123.1 27.8Q122.8 27.7 122.4 27.7L122.4 27.7Q121.8 27.7 121.3 28.1Q120.7 28.4 120.5 29.1Q120.2 29.7 120.2 30.6L120.2 30.6Q120.2 31.6 120.5 32.2Q120.8 32.9 121.3 33.2Q121.8 33.5 122.4 33.5L122.4 33.5Q122.8 33.5 123.1 33.4Q123.5 33.3 123.7 33.1Q124.0 32.9 124.1 32.7Q124.3 32.4 124.4 32.0L124.4 32.0L126.2 32.0Q126.1 32.6 125.8 33.2Q125.5 33.7 125.0 34.2Q124.6 34.6 123.9 34.9Q123.2 35.1 122.4 35.1ZM131.3 35L129.5 35L129.5 26.3L131.3 26.3L131.3 28.7L131.2 30.6Q131.3 30.6 131.3 30.5L131.3 30.5Q131.6 30.1 131.9 29.7Q132.2 29.3 132.6 28.8L132.6 28.8L134.7 26.3L136.9 26.3L133.7 30.0L137.0 35L134.9 35L132.4 31.2L131.3 32.5L131.3 35Z "/></g><mask id="satori_om-id-1"><rect x="41" y="52" width="778" height="77" fill="#fff"/></mask><mask id="satori_om-id-1-0"><rect x="41" y="52" width="778" height="19" fill="#fff"/></mask><mask id="satori_om-id-1-0-0"><rect x="41" y="55" width="110" height="13" fill="#fff"/></mask><g  ><path fill="rgba(33,187,133,0.4)" d="M43.8 57.6L44.7 57.6L42.1 67.2L41.2 67.2L43.8 57.6ZM47.8 57.6L48.7 57.6L46.1 67.2L45.2 67.2L47.8 57.6Z M55.3 66.1L55.3 66.1Q54.5 66.1 53.9 65.7Q53.3 65.4 52.9 64.7Q52.6 64.0 52.6 63.0L52.6 63.0Q52.6 62.1 52.9 61.4Q53.3 60.7 53.9 60.3Q54.5 59.9 55.3 59.9L55.3 59.9Q55.7 59.9 56.1 60.0Q56.5 60.1 56.8 60.4Q57.2 60.6 57.4 60.9Q57.6 61.2 57.7 61.6L57.7 61.6L56.8 61.8Q56.8 61.6 56.6 61.4Q56.5 61.2 56.3 61.1Q56.1 60.9 55.9 60.9Q55.6 60.8 55.3 60.8L55.3 60.8Q54.7 60.8 54.3 61.1Q53.9 61.4 53.8 61.9Q53.6 62.4 53.6 63.0L53.6 63.0Q53.6 63.6 53.8 64.1Q53.9 64.6 54.3 65.0Q54.7 65.3 55.3 65.3L55.3 65.3Q55.6 65.3 55.9 65.2Q56.1 65.1 56.3 65.0Q56.5 64.8 56.6 64.6Q56.8 64.4 56.8 64.2L56.8 64.2L57.8 64.4Q57.7 64.8 57.4 65.1Q57.2 65.5 56.9 65.7Q56.5 65.9 56.1 66.0Q55.8 66.1 55.3 66.1ZM61.6 66.1L61.6 66.1Q60.8 66.1 60.2 65.7Q59.6 65.4 59.2 64.7Q58.9 64.0 58.9 63.0L58.9 63.0Q58.9 62.1 59.2 61.4Q59.6 60.7 60.2 60.3Q60.8 59.9 61.6 59.9L61.6 59.9Q62.4 59.9 63.0 60.3Q63.7 60.7 64.0 61.4Q64.3 62.1 64.3 63.0L64.3 63.0Q64.3 64.0 64.0 64.7Q63.7 65.4 63.0 65.7Q62.4 66.1 61.6 66.1ZM61.6 65.3L61.6 65.3Q62.2 65.3 62.6 65.0Q63.0 64.6 63.2 64.1Q63.4 63.6 63.4 63.0L63.4 63.0Q63.4 62.4 63.2 61.9Q63.0 61.4 62.6 61.1Q62.2 60.8 61.6 60.8L61.6 60.8Q61.0 60.8 60.6 61.1Q60.2 61.4 60.0 61.9Q59.8 62.4 59.8 63.0L59.8 63.0Q59.8 63.6 60.0 64.1Q60.2 64.6 60.6 65.0Q61.0 65.3 61.6 65.3ZM66.7 66L65.8 66L65.8 60.0L66.7 60.0L66.7 60.9L66.7 60.9Q66.9 60.5 67.3 60.2Q67.8 59.9 68.3 59.9L68.3 59.9Q68.4 59.9 68.6 59.9Q68.7 59.9 68.8 59.9L68.8 59.9L68.8 60.9Q68.8 60.9 68.6 60.9Q68.4 60.8 68.2 60.8L68.2 60.8Q67.8 60.8 67.4 61.0Q67.1 61.2 66.9 61.5Q66.7 61.8 66.7 62.2L66.7 62.2L66.7 66ZM72.4 66.1L72.4 66.1Q71.5 66.1 70.9 65.7Q70.3 65.4 69.9 64.7Q69.6 64.0 69.6 63.0Q69.6 62.1 69.9 61.4Q70.3 60.7 70.9 60.3Q71.5 59.9 72.3 59.9L72.3 59.9Q72.8 59.9 73.2 60.1Q73.7 60.2 74.1 60.6Q74.5 60.9 74.7 61.5Q74.9 62.1 74.9 62.9L74.9 62.9L74.9 63.3L70.6 63.3Q70.6 63.9 70.8 64.3L70.8 64.3Q71.0 64.8 71.5 65.0Q71.9 65.3 72.4 65.3L72.4 65.3Q72.8 65.3 73.1 65.2Q73.4 65.1 73.6 64.9Q73.8 64.7 73.9 64.3L73.9 64.3L74.8 64.6Q74.7 65.1 74.3 65.4Q74.0 65.7 73.5 65.9Q73.0 66.1 72.4 66.1ZM70.6 62.5L70.6 62.5L73.9 62.5Q73.9 62.1 73.8 61.8L73.8 61.8Q73.6 61.3 73.2 61.0Q72.8 60.8 72.3 60.8Q71.8 60.8 71.4 61.0Q71.0 61.3 70.8 61.7L70.8 61.7Q70.6 62.1 70.6 62.5Z M80.5 66L79.5 66L79.5 58.0L81.0 58.0L82.9 63.0Q83.0 63.2 83.1 63.5Q83.2 63.8 83.3 64.1Q83.4 64.4 83.5 64.7L83.5 64.7Q83.5 64.8 83.5 64.9L83.5 64.9Q83.5 64.8 83.6 64.7L83.6 64.7Q83.7 64.4 83.8 64.1Q83.9 63.8 84.0 63.5Q84.0 63.2 84.1 63.0L84.1 63.0L86.1 58.0L87.5 58.0L87.5 66L86.5 66L86.5 61.4Q86.5 61.2 86.5 60.9Q86.5 60.5 86.5 60.2Q86.5 59.9 86.5 59.5L86.5 59.5Q86.5 59.3 86.6 59.1L86.6 59.1Q86.5 59.3 86.4 59.5L86.4 59.5Q86.3 59.9 86.2 60.3Q86.0 60.6 85.9 60.9Q85.8 61.2 85.7 61.4L85.7 61.4L84.0 66L83.1 66L81.3 61.4Q81.2 61.2 81.1 61.0Q81.0 60.7 80.9 60.3Q80.7 60.0 80.6 59.6L80.6 59.6Q80.5 59.3 80.5 59.1L80.5 59.1Q80.5 59.3 80.5 59.4L80.5 59.4Q80.5 59.8 80.5 60.1Q80.5 60.5 80.5 60.8Q80.5 61.2 80.5 61.4L80.5 61.4L80.5 66ZM94.2 66L89.5 66L89.5 58.0L90.5 58.0L90.5 65.1L94.2 65.1L94.2 66Z "/></g><mask id="satori_om-id-1-0-1"><rect x="165" y="52" width="365" height="19" fill="#fff"/></mask><defs><clipPath id="satori_bc-id-1-0-1-0"><path x="165" y="52" width="59" height="19" d="M169,52 h51 a4,4 0 0 1 4,4 v11 a4,4 0 0 1 -4,4 h-51 a4,4 0 0 1 -4,-4 v-11 a4,4 0 0 1 4,-4"/></clipPath></defs><mask id="satori_om-id-1-0-1-0"><rect x="166" y="53" width="57" height="17" fill="#fff"/><path width="59" height="19" fill="none" stroke="#000" stroke-width="2" d="M166.172,53.172 A4,4 0 0 1 169,52 h51 a4,4 0 0 1 4,4 v11 a4,4 0 0 1 -4,4 h-51 a4,4 0 0 1 -4,-4 v-11 A4,4 0 0 1 166.172,53.172"/></mask><path x="165" y="52" width="59" height="19" fill="rgba(33,187,133,0.08)" d="M169,52 h51 a4,4 0 0 1 4,4 v11 a4,4 0 0 1 -4,4 h-51 a4,4 0 0 1 -4,-4 v-11 a4,4 0 0 1 4,-4"/><path width="59" height="19" clip-path="url(#satori_bc-id-1-0-1-0)" fill="none" stroke="rgba(33,187,133,0.2)" stroke-width="2" d="M166.172,53.172 A4,4 0 0 1 169,52 h51 a4,4 0 0 1 4,4 v11 a4,4 0 0 1 -4,4 h-51 a4,4 0 0 1 -4,-4 v-11 A4,4 0 0 1 166.172,53.172"/><g  ><path fill="rgba(33,230,160,0.8)" d="M177.4 66L175.7 66L175.7 58.0L178.8 58.0Q179.8 58.0 180.4 58.3Q181.0 58.7 181.4 59.3Q181.7 59.9 181.7 60.7L181.7 60.7Q181.7 61.5 181.4 62.1Q181.0 62.7 180.4 63.0Q179.7 63.4 178.8 63.4L178.8 63.4L177.4 63.4L177.4 66ZM177.4 59.4L177.4 62.1L178.5 62.1Q179.0 62.1 179.4 61.9Q179.7 61.7 179.9 61.4Q180.0 61.1 180.0 60.7Q180.0 60.3 179.9 60.0Q179.7 59.7 179.4 59.5Q179.0 59.4 178.5 59.4L178.5 59.4L177.4 59.4ZM182.8 68.1L182.8 68.1L183.1 66.9L183.3 67.0Q183.7 67.0 183.9 67.0Q184.2 67.0 184.3 66.8Q184.5 66.6 184.5 66.3L184.5 66.3L184.5 66.0L182.3 60.0L184.0 60.0L185.0 63.1Q185.2 63.7 185.3 64.3L185.3 64.3Q185.4 64.5 185.4 64.7L185.4 64.7Q185.4 64.5 185.5 64.3L185.5 64.3Q185.6 63.7 185.8 63.1L185.8 63.1L186.9 60.0L188.6 60.0L186.0 66.7Q185.8 67.2 185.6 67.5Q185.3 67.9 184.9 68.1Q184.4 68.3 183.8 68.3L183.8 68.3Q183.5 68.3 183.2 68.2Q182.9 68.2 182.8 68.1ZM191.3 60.0L192.4 60.0L192.4 61.2L191.3 61.2L191.3 64.2Q191.3 64.5 191.4 64.7Q191.5 64.8 191.8 64.8L191.8 64.8Q191.9 64.8 192.1 64.8Q192.3 64.8 192.4 64.7L192.4 64.7L192.6 65.9Q192.3 66.0 192.1 66.1Q191.8 66.1 191.5 66.1L191.5 66.1Q190.6 66.1 190.2 65.6Q189.7 65.2 189.7 64.4L189.7 64.4L189.7 61.2L188.9 61.2L188.9 60.0L189.7 60.0L189.7 58.6L191.3 58.6L191.3 60.0ZM195.1 62.5L195.1 62.5L195.1 66L193.5 66L193.5 58.0L195.0 58.0L195.0 61.1Q195.3 60.6 195.6 60.3L195.6 60.3Q196.1 59.9 196.9 59.9L196.9 59.9Q197.5 59.9 198.0 60.2Q198.4 60.5 198.7 61.0Q198.9 61.5 198.9 62.2L198.9 62.2L198.9 66L197.3 66L197.3 62.5Q197.3 61.9 197.0 61.6Q196.8 61.3 196.2 61.3L196.2 61.3Q195.9 61.3 195.6 61.4Q195.4 61.6 195.2 61.8Q195.1 62.1 195.1 62.5ZM203.0 66.1L203.0 66.1Q202.1 66.1 201.4 65.7Q200.8 65.3 200.4 64.6Q200.1 63.9 200.1 63.0L200.1 63.0Q200.1 62.1 200.4 61.4Q200.8 60.7 201.4 60.3Q202.1 59.9 203.0 59.9L203.0 59.9Q203.9 59.9 204.6 60.3Q205.2 60.7 205.6 61.4Q205.9 62.1 205.9 63.0L205.9 63.0Q205.9 63.9 205.6 64.6Q205.2 65.3 204.6 65.7Q203.9 66.1 203.0 66.1ZM203.0 64.9L203.0 64.9Q203.4 64.9 203.7 64.6Q204.0 64.4 204.2 64.0Q204.3 63.5 204.3 63.0L204.3 63.0Q204.3 62.5 204.2 62.1Q204.0 61.7 203.7 61.4Q203.4 61.2 203.0 61.2L203.0 61.2Q202.6 61.2 202.3 61.4Q202.0 61.7 201.9 62.1Q201.7 62.5 201.7 63.0L201.7 63.0Q201.7 63.5 201.9 64.0Q202.0 64.4 202.3 64.6Q202.6 64.9 203.0 64.9ZM208.7 62.5L208.7 62.5L208.7 66L207.1 66L207.1 60.0L208.6 60.0L208.6 61.2Q208.8 60.7 209.2 60.3L209.2 60.3Q209.7 59.9 210.5 59.9L210.5 59.9Q211.1 59.9 211.6 60.2Q212.0 60.5 212.3 61.0Q212.5 61.5 212.5 62.2L212.5 62.2L212.5 66L210.9 66L210.9 62.5Q210.9 61.9 210.6 61.6Q210.3 61.3 209.8 61.3L209.8 61.3Q209.5 61.3 209.2 61.4Q209.0 61.6 208.8 61.8Q208.7 62.1 208.7 62.5Z "/></g><defs><clipPath id="satori_bc-id-1-0-1-1"><path x="231" y="52" width="60" height="19" d="M235,52 h52 a4,4 0 0 1 4,4 v11 a4,4 0 0 1 -4,4 h-52 a4,4 0 0 1 -4,-4 v-11 a4,4 0 0 1 4,-4"/></clipPath></defs><mask id="satori_om-id-1-0-1-1"><rect x="232" y="53" width="58" height="17" fill="#fff"/><path width="60" height="19" fill="none" stroke="#000" stroke-width="2" d="M232.172,53.172 A4,4 0 0 1 235,52 h52 a4,4 0 0 1 4,4 v11 a4,4 0 0 1 -4,4 h-52 a4,4 0 0 1 -4,-4 v-11 A4,4 0 0 1 232.172,53.172"/></mask><path x="231" y="52" width="60" height="19" fill="rgba(33,187,133,0.08)" d="M235,52 h52 a4,4 0 0 1 4,4 v11 a4,4 0 0 1 -4,4 h-52 a4,4 0 0 1 -4,-4 v-11 a4,4 0 0 1 4,-4"/><path width="60" height="19" clip-path="url(#satori_bc-id-1-0-1-1)" fill="none" stroke="rgba(33,187,133,0.2)" stroke-width="2" d="M232.172,53.172 A4,4 0 0 1 235,52 h52 a4,4 0 0 1 4,4 v11 a4,4 0 0 1 -4,4 h-52 a4,4 0 0 1 -4,-4 v-11 A4,4 0 0 1 232.172,53.172"/><g  ><path fill="rgba(33,230,160,0.8)" d="M243.4 66L241.7 66L241.7 58.0L243.6 58.0L246.1 62.0Q246.3 62.4 246.5 62.7Q246.7 63.1 246.9 63.5L246.9 63.5Q247.0 63.8 247.1 64.0L247.1 64.0Q247.1 63.8 247.1 63.6L247.1 63.6Q247.0 63.1 247.0 62.6Q247.0 62.2 247.0 61.8L247.0 61.8L247.0 58.0L248.7 58.0L248.7 66L246.8 66L244.5 62.3Q244.3 61.9 244.1 61.5Q243.8 61.1 243.6 60.7L243.6 60.7Q243.5 60.4 243.3 60.0L243.3 60.0Q243.3 60.3 243.3 60.7L243.3 60.7Q243.4 61.2 243.4 61.6Q243.4 62.0 243.4 62.3L243.4 62.3L243.4 66ZM252.1 66.1L252.1 66.1Q251.5 66.1 251.0 65.8Q250.6 65.5 250.3 65.0Q250.1 64.5 250.1 63.8L250.1 63.8L250.1 60.0L251.7 60.0L251.7 63.5Q251.7 64.1 252.0 64.4Q252.3 64.7 252.8 64.7L252.8 64.7Q253.1 64.7 253.4 64.6Q253.6 64.4 253.8 64.1Q253.9 63.9 253.9 63.5L253.9 63.5L253.9 60.0L255.6 60.0L255.6 66L254.0 66L254.0 64.7Q253.8 65.3 253.4 65.7L253.4 65.7Q252.9 66.1 252.1 66.1ZM258.5 66L256.9 66L256.9 60.0L258.4 60.0L258.5 61.2Q258.6 60.8 258.8 60.6L258.8 60.6Q259.1 60.2 259.4 60.1Q259.8 59.9 260.2 59.9L260.2 59.9Q260.8 59.9 261.2 60.3L261.2 60.3Q261.6 60.6 261.7 61.2L261.7 61.2Q261.9 60.9 262.1 60.6L262.1 60.6Q262.4 60.3 262.8 60.1Q263.2 59.9 263.7 59.9L263.7 59.9Q264.2 59.9 264.7 60.1Q265.1 60.4 265.3 60.8Q265.6 61.3 265.6 62.0L265.6 62.0L265.6 66L264.0 66L264.0 62.3Q264.0 61.7 263.7 61.5Q263.4 61.3 263.0 61.3L263.0 61.3Q262.7 61.3 262.5 61.4Q262.3 61.5 262.1 61.8Q262.0 62.0 262.0 62.3L262.0 62.3L262.0 66L260.5 66L260.5 62.2Q260.5 61.8 260.2 61.5Q259.9 61.3 259.5 61.3L259.5 61.3Q259.3 61.3 259.0 61.4Q258.8 61.5 258.7 61.8Q258.5 62.0 258.5 62.4L258.5 62.4L258.5 66ZM268.6 66L267.0 66L267.0 58.0L270.1 58.0Q271.0 58.0 271.7 58.3Q272.3 58.7 272.6 59.3Q273.0 59.9 273.0 60.7L273.0 60.7Q273.0 61.5 272.6 62.1Q272.3 62.7 271.7 63.0Q271.0 63.4 270.1 63.4L270.1 63.4L268.6 63.4L268.6 66ZM268.6 59.4L268.6 62.1L269.8 62.1Q270.3 62.1 270.6 61.9Q271.0 61.7 271.1 61.4Q271.3 61.1 271.3 60.7Q271.3 60.3 271.1 60.0Q271.0 59.7 270.6 59.5Q270.3 59.4 269.8 59.4L269.8 59.4L268.6 59.4ZM274.0 68.1L274.0 68.1L274.4 66.9L274.6 67.0Q274.9 67.0 275.2 67.0Q275.4 67.0 275.6 66.8Q275.7 66.6 275.8 66.3L275.8 66.3L275.8 66.0L273.6 60.0L275.3 60.0L276.3 63.1Q276.5 63.7 276.6 64.3L276.6 64.3Q276.6 64.5 276.7 64.7L276.7 64.7Q276.7 64.5 276.8 64.3L276.8 64.3Q276.9 63.7 277.1 63.1L277.1 63.1L278.2 60.0L279.8 60.0L277.3 66.7Q277.1 67.2 276.8 67.5Q276.5 67.9 276.1 68.1Q275.7 68.3 275.1 68.3L275.1 68.3Q274.8 68.3 274.5 68.2Q274.2 68.2 274.0 68.1Z "/></g><defs><clipPath id="satori_bc-id-1-0-1-2"><path x="298" y="52" width="60" height="19" d="M302,52 h52 a4,4 0 0 1 4,4 v11 a4,4 0 0 1 -4,4 h-52 a4,4 0 0 1 -4,-4 v-11 a4,4 0 0 1 4,-4"/></clipPath></defs><mask id="satori_om-id-1-0-1-2"><rect x="299" y="53" width="58" height="17" fill="#fff"/><path width="60" height="19" fill="none" stroke="#000" stroke-width="2" d="M299.172,53.172 A4,4 0 0 1 302,52 h52 a4,4 0 0 1 4,4 v11 a4,4 0 0 1 -4,4 h-52 a4,4 0 0 1 -4,-4 v-11 A4,4 0 0 1 299.172,53.172"/></mask><path x="298" y="52" width="60" height="19" fill="rgba(33,187,133,0.08)" d="M302,52 h52 a4,4 0 0 1 4,4 v11 a4,4 0 0 1 -4,4 h-52 a4,4 0 0 1 -4,-4 v-11 a4,4 0 0 1 4,-4"/><path width="60" height="19" clip-path="url(#satori_bc-id-1-0-1-2)" fill="none" stroke="rgba(33,187,133,0.2)" stroke-width="2" d="M299.172,53.172 A4,4 0 0 1 302,52 h52 a4,4 0 0 1 4,4 v11 a4,4 0 0 1 -4,4 h-52 a4,4 0 0 1 -4,-4 v-11 A4,4 0 0 1 299.172,53.172"/><g  ><path fill="rgba(33,230,160,0.8)" d="M310.4 66L308.7 66L308.7 58.0L311.8 58.0Q312.8 58.0 313.4 58.3Q314.0 58.7 314.4 59.3Q314.7 59.9 314.7 60.7L314.7 60.7Q314.7 61.5 314.4 62.1Q314.0 62.7 313.4 63.0Q312.7 63.4 311.8 63.4L311.8 63.4L310.4 63.4L310.4 66ZM310.4 59.4L310.4 62.1L311.5 62.1Q312.0 62.1 312.4 61.9Q312.7 61.7 312.9 61.4Q313.0 61.1 313.0 60.7Q313.0 60.3 312.9 60.0Q312.7 59.7 312.4 59.5Q312.0 59.4 311.5 59.4L311.5 59.4L310.4 59.4ZM317.5 66.1L317.5 66.1Q316.9 66.1 316.5 65.9Q316.0 65.7 315.8 65.3Q315.5 64.9 315.5 64.3L315.5 64.3Q315.5 63.8 315.7 63.5Q315.9 63.1 316.2 62.9Q316.5 62.7 316.9 62.6Q317.3 62.5 317.8 62.5L317.8 62.5Q318.3 62.4 318.6 62.4Q318.9 62.3 319.1 62.2Q319.2 62.1 319.2 61.9L319.2 61.9L319.2 61.9Q319.2 61.7 319.1 61.5Q319 61.3 318.8 61.2Q318.6 61.1 318.3 61.1L318.3 61.1Q318.0 61.1 317.7 61.2Q317.5 61.3 317.4 61.5Q317.2 61.6 317.1 61.8L317.1 61.8L315.7 61.6Q315.8 61.0 316.2 60.7Q316.5 60.3 317.1 60.1Q317.6 59.9 318.3 59.9L318.3 59.9Q318.8 59.9 319.2 60.0Q319.7 60.2 320.0 60.4Q320.4 60.6 320.6 61.0Q320.8 61.4 320.8 62.0L320.8 62.0L320.8 66L319.3 66L319.3 65.2L319.2 65.2Q319.1 65.4 318.9 65.7Q318.6 65.9 318.3 66.0Q317.9 66.1 317.5 66.1ZM317.9 65.0L317.9 65.0Q318.3 65.0 318.6 64.8Q318.9 64.7 319.1 64.4Q319.2 64.2 319.2 63.9L319.2 63.9L319.2 63.2Q319.2 63.3 319.0 63.3Q318.9 63.3 318.7 63.4Q318.5 63.4 318.3 63.4Q318.2 63.5 318.0 63.5L318.0 63.5Q317.7 63.5 317.5 63.6Q317.3 63.7 317.2 63.9Q317.0 64.0 317.0 64.3L317.0 64.3Q317.0 64.5 317.2 64.7Q317.3 64.8 317.5 64.9Q317.7 65.0 317.9 65.0ZM323.8 62.5L323.8 62.5L323.8 66L322.2 66L322.2 60.0L323.7 60.0L323.7 61.2Q324.0 60.7 324.4 60.3L324.4 60.3Q324.8 59.9 325.6 59.9L325.6 59.9Q326.2 59.9 326.7 60.2Q327.2 60.5 327.4 61.0Q327.7 61.5 327.7 62.2L327.7 62.2L327.7 66L326.1 66L326.1 62.5Q326.1 61.9 325.8 61.6Q325.5 61.3 325.0 61.3L325.0 61.3Q324.6 61.3 324.4 61.4Q324.1 61.6 324.0 61.8Q323.8 62.1 323.8 62.5ZM331.2 66.1L331.2 66.1Q330.6 66.1 330.0 65.7Q329.4 65.4 329.1 64.7Q328.8 64.0 328.8 63.0L328.8 63.0Q328.8 62.0 329.1 61.3Q329.5 60.6 330.0 60.3Q330.6 59.9 331.2 59.9L331.2 59.9Q331.7 59.9 332.1 60.1Q332.4 60.3 332.6 60.5Q332.8 60.8 332.9 61.0L332.9 61.0L333.0 61.0L333.0 58.0L334.6 58.0L334.6 66L333.0 66L333.0 65.0L332.9 65.0Q332.8 65.3 332.6 65.5Q332.4 65.8 332.1 65.9Q331.7 66.1 331.2 66.1ZM331.7 64.8L331.7 64.8Q332.1 64.8 332.4 64.6Q332.7 64.4 332.9 64.0Q333.0 63.5 333.0 63.0L333.0 63.0Q333.0 62.5 332.9 62.1Q332.7 61.7 332.4 61.4Q332.2 61.2 331.7 61.2L331.7 61.2Q331.3 61.2 331.0 61.4Q330.7 61.7 330.6 62.1Q330.5 62.5 330.5 63.0L330.5 63.0Q330.5 63.5 330.6 63.9Q330.7 64.3 331.0 64.6Q331.3 64.8 331.7 64.8ZM337.7 66.1L337.7 66.1Q337.1 66.1 336.6 65.9Q336.2 65.7 335.9 65.3Q335.7 64.9 335.7 64.3L335.7 64.3Q335.7 63.8 335.8 63.5Q336.0 63.1 336.4 62.9Q336.7 62.7 337.1 62.6Q337.5 62.5 337.9 62.5L337.9 62.5Q338.4 62.4 338.8 62.4Q339.1 62.3 339.2 62.2Q339.4 62.1 339.4 61.9L339.4 61.9L339.4 61.9Q339.4 61.7 339.3 61.5Q339.2 61.3 339.0 61.2Q338.7 61.1 338.4 61.1L338.4 61.1Q338.1 61.1 337.9 61.2Q337.7 61.3 337.5 61.5Q337.4 61.6 337.3 61.8L337.3 61.8L335.8 61.6Q336.0 61.0 336.3 60.7Q336.7 60.3 337.2 60.1Q337.8 59.9 338.4 59.9L338.4 59.9Q338.9 59.9 339.4 60.0Q339.8 60.2 340.2 60.4Q340.6 60.6 340.8 61.0Q341.0 61.4 341.0 62.0L341.0 62.0L341.0 66L339.5 66L339.5 65.2L339.4 65.2Q339.3 65.4 339.0 65.7Q338.8 65.9 338.4 66.0Q338.1 66.1 337.7 66.1ZM338.1 65.0L338.1 65.0Q338.5 65.0 338.8 64.8Q339.1 64.7 339.2 64.4Q339.4 64.2 339.4 63.9L339.4 63.9L339.4 63.2Q339.3 63.3 339.2 63.3Q339.0 63.3 338.9 63.4Q338.7 63.4 338.5 63.4Q338.3 63.5 338.2 63.5L338.2 63.5Q337.9 63.5 337.7 63.6Q337.5 63.7 337.3 63.9Q337.2 64.0 337.2 64.3L337.2 64.3Q337.2 64.5 337.3 64.7Q337.4 64.8 337.6 64.9Q337.9 65.0 338.1 65.0ZM344.8 66.1L344.8 66.1Q344.0 66.1 343.5 65.9Q342.9 65.7 342.6 65.3Q342.2 64.9 342.1 64.4L342.1 64.4L343.6 64.1Q343.7 64.5 344.0 64.7Q344.3 64.9 344.8 64.9L344.8 64.9Q345.3 64.9 345.5 64.8Q345.8 64.6 345.8 64.3L345.8 64.3Q345.8 64.1 345.6 63.9Q345.4 63.8 345.0 63.7L345.0 63.7L344.0 63.5Q343.1 63.3 342.7 62.9Q342.3 62.5 342.3 61.8L342.3 61.8Q342.3 61.2 342.6 60.8Q342.9 60.4 343.5 60.1Q344.0 59.9 344.8 59.9L344.8 59.9Q345.5 59.9 346.0 60.1Q346.5 60.3 346.9 60.7Q347.2 61.0 347.3 61.5L347.3 61.5L345.9 61.8Q345.8 61.5 345.5 61.3Q345.2 61.1 344.8 61.1L344.8 61.1Q344.4 61.1 344.1 61.2Q343.9 61.4 343.9 61.7L343.9 61.7Q343.9 61.9 344.0 62.1Q344.2 62.2 344.6 62.3L344.6 62.3L345.7 62.5Q346.6 62.7 347.0 63.1Q347.4 63.5 347.4 64.1L347.4 64.1Q347.4 64.7 347.1 65.2Q346.8 65.6 346.1 65.9Q345.5 66.1 344.8 66.1Z "/></g><defs><clipPath id="satori_bc-id-1-0-1-3"><path x="365" y="52" width="75" height="19" d="M369,52 h67 a4,4 0 0 1 4,4 v11 a4,4 0 0 1 -4,4 h-67 a4,4 0 0 1 -4,-4 v-11 a4,4 0 0 1 4,-4"/></clipPath></defs><mask id="satori_om-id-1-0-1-3"><rect x="366" y="53" width="73" height="17" fill="#fff"/><path width="75" height="19" fill="none" stroke="#000" stroke-width="2" d="M366.172,53.172 A4,4 0 0 1 369,52 h67 a4,4 0 0 1 4,4 v11 a4,4 0 0 1 -4,4 h-67 a4,4 0 0 1 -4,-4 v-11 A4,4 0 0 1 366.172,53.172"/></mask><path x="365" y="52" width="75" height="19" fill="rgba(33,187,133,0.08)" d="M369,52 h67 a4,4 0 0 1 4,4 v11 a4,4 0 0 1 -4,4 h-67 a4,4 0 0 1 -4,-4 v-11 a4,4 0 0 1 4,-4"/><path width="75" height="19" clip-path="url(#satori_bc-id-1-0-1-3)" fill="none" stroke="rgba(33,187,133,0.2)" stroke-width="2" d="M366.172,53.172 A4,4 0 0 1 369,52 h67 a4,4 0 0 1 4,4 v11 a4,4 0 0 1 -4,4 h-67 a4,4 0 0 1 -4,-4 v-11 A4,4 0 0 1 366.172,53.172"/><g  ><path fill="rgba(33,230,160,0.8)" d="M377.4 66L375.7 66L375.7 58.0L378.2 58.0L379.5 61.7Q379.6 61.9 379.7 62.3Q379.8 62.7 379.9 63.2L379.9 63.2Q380.0 63.7 380.1 64.1L380.1 64.1Q380.2 63.7 380.3 63.2L380.3 63.2Q380.4 62.8 380.5 62.3Q380.6 61.9 380.7 61.7L380.7 61.7L382.0 58.0L384.5 58.0L384.5 66L382.9 66L382.9 62.2Q382.9 62.0 382.9 61.6Q382.9 61.2 382.9 60.7Q382.9 60.3 382.9 59.8L382.9 59.8Q382.9 59.6 382.9 59.4L382.9 59.4Q382.9 59.6 382.8 59.9L382.8 59.9Q382.7 60.3 382.6 60.8Q382.4 61.2 382.3 61.6Q382.2 62.0 382.1 62.2L382.1 62.2L380.8 66L379.4 66L378.1 62.2Q378.0 62.0 377.9 61.6Q377.8 61.2 377.7 60.8Q377.5 60.4 377.4 59.9L377.4 59.9Q377.3 59.7 377.3 59.5L377.3 59.5Q377.3 59.6 377.3 59.8L377.3 59.8Q377.3 60.2 377.3 60.7Q377.3 61.2 377.3 61.6Q377.4 62.0 377.4 62.2L377.4 62.2L377.4 66ZM387.6 66.1L387.6 66.1Q387.0 66.1 386.6 65.9Q386.1 65.7 385.9 65.3Q385.6 64.9 385.6 64.3L385.6 64.3Q385.6 63.8 385.8 63.5Q386.0 63.1 386.3 62.9Q386.6 62.7 387.0 62.6Q387.4 62.5 387.9 62.5L387.9 62.5Q388.4 62.4 388.7 62.4Q389.0 62.3 389.2 62.2Q389.3 62.1 389.3 61.9L389.3 61.9L389.3 61.9Q389.3 61.7 389.2 61.5Q389.1 61.3 388.9 61.2Q388.7 61.1 388.4 61.1L388.4 61.1Q388.1 61.1 387.9 61.2Q387.6 61.3 387.5 61.5Q387.3 61.6 387.3 61.8L387.3 61.8L385.8 61.6Q385.9 61.0 386.3 60.7Q386.7 60.3 387.2 60.1Q387.7 59.9 388.4 59.9L388.4 59.9Q388.9 59.9 389.3 60.0Q389.8 60.2 390.2 60.4Q390.5 60.6 390.7 61.0Q390.9 61.4 390.9 62.0L390.9 62.0L390.9 66L389.4 66L389.4 65.2L389.4 65.2Q389.2 65.4 389.0 65.7Q388.7 65.9 388.4 66.0Q388.1 66.1 387.6 66.1ZM388.1 65.0L388.1 65.0Q388.4 65.0 388.7 64.8Q389.0 64.7 389.2 64.4Q389.3 64.2 389.3 63.9L389.3 63.9L389.3 63.2Q389.3 63.3 389.1 63.3Q389.0 63.3 388.8 63.4Q388.6 63.4 388.5 63.4Q388.3 63.5 388.2 63.5L388.2 63.5Q387.9 63.5 387.6 63.6Q387.4 63.7 387.3 63.9Q387.2 64.0 387.2 64.3L387.2 64.3Q387.2 64.5 387.3 64.7Q387.4 64.8 387.6 64.9Q387.8 65.0 388.1 65.0ZM394.2 60.0L395.3 60.0L395.3 61.2L394.2 61.2L394.2 64.2Q394.2 64.5 394.3 64.7Q394.4 64.8 394.7 64.8L394.7 64.8Q394.8 64.8 395.0 64.8Q395.2 64.8 395.2 64.7L395.2 64.7L395.5 65.9Q395.2 66.0 394.9 66.1Q394.7 66.1 394.4 66.1L394.4 66.1Q393.5 66.1 393.0 65.6Q392.6 65.2 392.6 64.4L392.6 64.4L392.6 61.2L391.7 61.2L391.7 60.0L392.6 60.0L392.6 58.6L394.2 58.6L394.2 60.0ZM398.0 68.2L396.4 68.2L396.4 60.0L397.9 60.0L397.9 61.0L398.0 61.0Q398.1 60.8 398.3 60.5Q398.5 60.3 398.9 60.1Q399.2 59.9 399.7 59.9L399.7 59.9Q400.4 59.9 400.9 60.3Q401.5 60.6 401.8 61.3Q402.2 62.0 402.2 63.0L402.2 63.0Q402.2 64.0 401.8 64.7Q401.5 65.4 401.0 65.7Q400.4 66.1 399.7 66.1L399.7 66.1Q399.2 66.1 398.9 65.9Q398.5 65.8 398.3 65.5Q398.1 65.3 398.0 65.0L398.0 65.0L398.0 65.0L398.0 68.2ZM399.2 64.8L399.2 64.8Q399.6 64.8 399.9 64.6Q400.2 64.3 400.4 63.9Q400.5 63.5 400.5 63.0L400.5 63.0Q400.5 62.5 400.4 62.1Q400.2 61.7 399.9 61.4Q399.6 61.2 399.2 61.2L399.2 61.2Q398.8 61.2 398.5 61.4Q398.2 61.7 398.1 62.1Q397.9 62.5 397.9 63.0L397.9 63.0Q397.9 63.5 398.1 64.0Q398.2 64.4 398.5 64.6Q398.8 64.8 399.2 64.8ZM403.3 58.0L404.9 58.0L404.9 66L403.3 66L403.3 58.0ZM409.0 66.1L409.0 66.1Q408.0 66.1 407.4 65.7Q406.7 65.3 406.4 64.6Q406.0 63.9 406.0 63.0L406.0 63.0Q406.0 62.1 406.4 61.4Q406.7 60.7 407.4 60.3Q408.0 59.9 409.0 59.9L409.0 59.9Q409.9 59.9 410.5 60.3Q411.2 60.7 411.5 61.4Q411.9 62.1 411.9 63.0L411.9 63.0Q411.9 63.9 411.5 64.6Q411.2 65.3 410.5 65.7Q409.9 66.1 409.0 66.1ZM409.0 64.9L409.0 64.9Q409.4 64.9 409.7 64.6Q410.0 64.4 410.1 64.0Q410.3 63.5 410.3 63.0L410.3 63.0Q410.3 62.5 410.1 62.1Q410.0 61.7 409.7 61.4Q409.4 61.2 409.0 61.2L409.0 61.2Q408.5 61.2 408.2 61.4Q407.9 61.7 407.8 62.1Q407.7 62.5 407.7 63.0L407.7 63.0Q407.7 63.5 407.8 64.0Q407.9 64.4 408.2 64.6Q408.5 64.9 409.0 64.9ZM414.9 60.0L416.0 60.0L416.0 61.2L414.9 61.2L414.9 64.2Q414.9 64.5 415.0 64.7Q415.1 64.8 415.4 64.8L415.4 64.8Q415.5 64.8 415.7 64.8Q415.8 64.8 415.9 64.7L415.9 64.7L416.2 65.9Q415.9 66.0 415.6 66.1Q415.4 66.1 415.1 66.1L415.1 66.1Q414.2 66.1 413.7 65.6Q413.3 65.2 413.3 64.4L413.3 64.4L413.3 61.2L412.4 61.2L412.4 60.0L413.3 60.0L413.3 58.6L414.9 58.6L414.9 60.0ZM417.0 58.0L418.7 58.0L418.7 66L417.0 66L417.0 58.0ZM421.6 66L420.0 66L420.0 60.0L421.6 60.0L421.6 66ZM420.8 59.2L420.8 59.2Q420.5 59.2 420.2 59.0Q419.9 58.7 419.9 58.4L419.9 58.4Q419.9 58.0 420.2 57.8Q420.5 57.6 420.8 57.6L420.8 57.6Q421.2 57.6 421.5 57.8Q421.7 58.0 421.7 58.4L421.7 58.4Q421.7 58.7 421.5 59.0Q421.2 59.2 420.8 59.2ZM426.4 66.1L426.4 66.1Q425.9 66.1 425.5 65.9Q425.2 65.8 425.0 65.5Q424.8 65.3 424.7 65.0L424.7 65.0L424.6 65.0L424.6 66L423.0 66L423.0 58.0L424.6 58.0L424.6 61.0L424.7 61.0Q424.8 60.8 425.0 60.5Q425.2 60.3 425.5 60.1Q425.9 59.9 426.4 59.9L426.4 59.9Q427.0 59.9 427.6 60.3Q428.1 60.6 428.5 61.3Q428.8 62.0 428.8 63.0L428.8 63.0Q428.8 64.0 428.5 64.7Q428.2 65.4 427.6 65.7Q427.1 66.1 426.4 66.1ZM425.9 64.8L425.9 64.8Q426.3 64.8 426.6 64.6Q426.9 64.3 427.0 63.9Q427.2 63.5 427.2 63.0L427.2 63.0Q427.2 62.5 427.0 62.1Q426.9 61.7 426.6 61.4Q426.3 61.2 425.9 61.2L425.9 61.2Q425.5 61.2 425.2 61.4Q424.9 61.7 424.7 62.1Q424.6 62.5 424.6 63.0L424.6 63.0Q424.6 63.5 424.7 64.0Q424.9 64.4 425.2 64.6Q425.5 64.8 425.9 64.8Z "/></g><defs><clipPath id="satori_bc-id-1-0-1-4"><path x="447" y="52" width="83" height="19" d="M451,52 h75 a4,4 0 0 1 4,4 v11 a4,4 0 0 1 -4,4 h-75 a4,4 0 0 1 -4,-4 v-11 a4,4 0 0 1 4,-4"/></clipPath></defs><mask id="satori_om-id-1-0-1-4"><rect x="448" y="53" width="81" height="17" fill="#fff"/><path width="83" height="19" fill="none" stroke="#000" stroke-width="2" d="M448.172,53.172 A4,4 0 0 1 451,52 h75 a4,4 0 0 1 4,4 v11 a4,4 0 0 1 -4,4 h-75 a4,4 0 0 1 -4,-4 v-11 A4,4 0 0 1 448.172,53.172"/></mask><path x="447" y="52" width="83" height="19" fill="rgba(33,187,133,0.08)" d="M451,52 h75 a4,4 0 0 1 4,4 v11 a4,4 0 0 1 -4,4 h-75 a4,4 0 0 1 -4,-4 v-11 a4,4 0 0 1 4,-4"/><path width="83" height="19" clip-path="url(#satori_bc-id-1-0-1-4)" fill="none" stroke="rgba(33,187,133,0.2)" stroke-width="2" d="M448.172,53.172 A4,4 0 0 1 451,52 h75 a4,4 0 0 1 4,4 v11 a4,4 0 0 1 -4,4 h-75 a4,4 0 0 1 -4,-4 v-11 A4,4 0 0 1 448.172,53.172"/><g  ><path fill="rgba(33,230,160,0.8)" d="M460.7 66.1L460.7 66.1Q459.7 66.1 459.0 65.8Q458.3 65.5 457.9 64.9Q457.5 64.4 457.5 63.5L457.5 63.5L459.1 63.5Q459.1 63.9 459.3 64.2Q459.5 64.5 459.9 64.6Q460.2 64.7 460.6 64.7L460.6 64.7Q461.1 64.7 461.4 64.6Q461.7 64.5 461.9 64.2Q462.1 64.0 462.1 63.7L462.1 63.7Q462.1 63.4 461.9 63.3Q461.8 63.1 461.5 62.9Q461.2 62.8 460.7 62.7L460.7 62.7L459.8 62.5Q458.8 62.2 458.2 61.7Q457.7 61.2 457.7 60.3L457.7 60.3Q457.7 59.6 458.1 59.0Q458.5 58.5 459.1 58.2Q459.8 57.9 460.7 57.9L460.7 57.9Q461.6 57.9 462.2 58.2Q462.9 58.5 463.3 59.0Q463.6 59.6 463.6 60.3L463.6 60.3L462.1 60.3Q462.0 59.8 461.6 59.5Q461.3 59.3 460.7 59.3L460.7 59.3Q460.2 59.3 460.0 59.4Q459.7 59.5 459.5 59.7Q459.4 59.9 459.4 60.2L459.4 60.2Q459.4 60.5 459.5 60.7Q459.7 60.9 460.0 61.0Q460.3 61.1 460.6 61.2L460.6 61.2L461.4 61.4Q461.9 61.5 462.3 61.7Q462.7 61.9 463.1 62.2Q463.4 62.4 463.6 62.8Q463.7 63.2 463.7 63.7L463.7 63.7Q463.7 64.4 463.4 65.0Q463.0 65.5 462.3 65.8Q461.6 66.1 460.7 66.1ZM467.6 66.1L467.6 66.1Q466.7 66.1 466.0 65.7Q465.4 65.3 465.0 64.6Q464.6 63.9 464.6 63.0L464.6 63.0Q464.6 62.1 465.0 61.4Q465.4 60.7 466.0 60.3Q466.7 59.9 467.6 59.9L467.6 59.9Q468.1 59.9 468.6 60.1Q469.0 60.2 469.4 60.5Q469.7 60.7 469.9 61.1Q470.2 61.5 470.2 61.9L470.2 61.9L468.7 62.2Q468.7 62.0 468.6 61.8Q468.5 61.6 468.3 61.5Q468.2 61.3 468.0 61.3Q467.8 61.2 467.6 61.2L467.6 61.2Q467.2 61.2 466.9 61.4Q466.6 61.6 466.4 62.1Q466.3 62.5 466.3 63.0L466.3 63.0Q466.3 63.6 466.4 64.0Q466.6 64.4 466.9 64.6Q467.2 64.9 467.6 64.9L467.6 64.9Q467.8 64.9 468.0 64.8Q468.2 64.7 468.4 64.6Q468.5 64.4 468.6 64.2Q468.7 64.0 468.8 63.8L468.8 63.8L470.3 64.1Q470.2 64.6 469.9 64.9Q469.7 65.3 469.4 65.6Q469.0 65.8 468.6 66.0Q468.1 66.1 467.6 66.1ZM473.0 66L471.4 66L471.4 60.0L473.0 60.0L473.0 66ZM472.2 59.2L472.2 59.2Q471.8 59.2 471.5 59.0Q471.3 58.7 471.3 58.4L471.3 58.4Q471.3 58.0 471.5 57.8Q471.8 57.6 472.2 57.6L472.2 57.6Q472.5 57.6 472.8 57.8Q473.1 58.0 473.1 58.4L473.1 58.4Q473.1 58.7 472.8 59.0Q472.5 59.2 472.2 59.2ZM476.0 66L474.3 66L474.3 58.0L476.0 58.0L476.0 62.3L476.0 62.3L478.0 60.0L479.9 60.0L477.6 62.6L480.0 66L478.1 66L476.4 63.6L476.0 64.1L476.0 66ZM482.3 66L480.7 66L480.7 60.0L482.3 60.0L482.3 66ZM481.5 59.2L481.5 59.2Q481.2 59.2 480.9 59.0Q480.6 58.7 480.6 58.4L480.6 58.4Q480.6 58.0 480.9 57.8Q481.2 57.6 481.5 57.6L481.5 57.6Q481.9 57.6 482.2 57.8Q482.4 58.0 482.4 58.4L482.4 58.4Q482.4 58.7 482.2 59.0Q481.9 59.2 481.5 59.2ZM485.6 60.0L486.7 60.0L486.7 61.2L485.6 61.2L485.6 64.2Q485.6 64.5 485.7 64.7Q485.8 64.8 486.1 64.8L486.1 64.8Q486.2 64.8 486.4 64.8Q486.5 64.8 486.6 64.7L486.6 64.7L486.9 65.9Q486.6 66.0 486.3 66.1Q486.1 66.1 485.8 66.1L485.8 66.1Q484.9 66.1 484.4 65.6Q484.0 65.2 484.0 64.4L484.0 64.4L484.0 61.2L483.1 61.2L483.1 60.0L484.0 60.0L484.0 58.6L485.6 58.6L485.6 60.0ZM487.8 62.1L491.4 62.1L491.4 63.4L487.8 63.4L487.8 62.1ZM492.9 58.0L494.5 58.0L494.5 66L492.9 66L492.9 58.0ZM498.6 66.1L498.6 66.1Q497.7 66.1 497.0 65.7Q496.3 65.4 496.0 64.7Q495.6 64.0 495.6 63.0L495.6 63.0Q495.6 62.1 496.0 61.4Q496.3 60.7 497.0 60.3Q497.6 59.9 498.5 59.9L498.5 59.9Q499.1 59.9 499.6 60.1Q500.1 60.3 500.5 60.7Q500.9 61.1 501.1 61.6Q501.3 62.2 501.3 63.0L501.3 63.0L501.3 63.4L497.2 63.4Q497.2 63.9 497.4 64.2L497.4 64.2Q497.6 64.5 497.9 64.7Q498.2 64.9 498.6 64.9L498.6 64.9Q498.9 64.9 499.1 64.8Q499.3 64.7 499.5 64.6Q499.7 64.4 499.8 64.2L499.8 64.2L501.2 64.5Q501.1 65.0 500.7 65.3Q500.4 65.7 499.8 65.9Q499.3 66.1 498.6 66.1ZM497.2 62.4L497.2 62.4L499.8 62.4Q499.7 62.1 499.6 61.9L499.6 61.9Q499.5 61.5 499.2 61.3Q498.9 61.1 498.5 61.1L498.5 61.1Q498.1 61.1 497.8 61.3Q497.5 61.5 497.4 61.8L497.4 61.8Q497.2 62.1 497.2 62.4ZM504.1 66.1L504.1 66.1Q503.5 66.1 503.1 65.9Q502.6 65.7 502.4 65.3Q502.1 64.9 502.1 64.3L502.1 64.3Q502.1 63.8 502.3 63.5Q502.5 63.1 502.8 62.9Q503.1 62.7 503.5 62.6Q503.9 62.5 504.4 62.5L504.4 62.5Q504.9 62.4 505.2 62.4Q505.5 62.3 505.7 62.2Q505.8 62.1 505.8 61.9L505.8 61.9L505.8 61.9Q505.8 61.7 505.7 61.5Q505.6 61.3 505.4 61.2Q505.2 61.1 504.9 61.1L504.9 61.1Q504.6 61.1 504.3 61.2Q504.1 61.3 504.0 61.5Q503.8 61.6 503.7 61.8L503.7 61.8L502.3 61.6Q502.4 61.0 502.8 60.7Q503.1 60.3 503.7 60.1Q504.2 59.9 504.9 59.9L504.9 59.9Q505.4 59.9 505.8 60.0Q506.3 60.2 506.6 60.4Q507.0 60.6 507.2 61.0Q507.4 61.4 507.4 62.0L507.4 62.0L507.4 66L505.9 66L505.9 65.2L505.8 65.2Q505.7 65.4 505.5 65.7Q505.2 65.9 504.9 66.0Q504.5 66.1 504.1 66.1ZM504.5 65.0L504.5 65.0Q504.9 65.0 505.2 64.8Q505.5 64.7 505.7 64.4Q505.8 64.2 505.8 63.9L505.8 63.9L505.8 63.2Q505.8 63.3 505.6 63.3Q505.5 63.3 505.3 63.4Q505.1 63.4 504.9 63.4Q504.8 63.5 504.6 63.5L504.6 63.5Q504.3 63.5 504.1 63.6Q503.9 63.7 503.8 63.9Q503.6 64.0 503.6 64.3L503.6 64.3Q503.6 64.5 503.8 64.7Q503.9 64.8 504.1 64.9Q504.3 65.0 504.5 65.0ZM510.4 66L508.8 66L508.8 60.0L510.4 60.0L510.4 61.0L510.4 61.0Q510.6 60.5 511.0 60.2Q511.4 59.9 511.9 59.9L511.9 59.9Q512.0 59.9 512.1 59.9Q512.3 59.9 512.4 60.0L512.4 60.0L512.4 61.4Q512.3 61.4 512.1 61.3Q511.9 61.3 511.7 61.3L511.7 61.3Q511.3 61.3 511.0 61.5Q510.7 61.6 510.6 61.9Q510.4 62.2 510.4 62.6L510.4 62.6L510.4 66ZM514.9 62.5L514.9 62.5L514.9 66L513.3 66L513.3 60.0L514.8 60.0L514.8 61.2Q515.1 60.7 515.4 60.3L515.4 60.3Q515.9 59.9 516.7 59.9L516.7 59.9Q517.3 59.9 517.8 60.2Q518.2 60.5 518.5 61.0Q518.8 61.5 518.8 62.2L518.8 62.2L518.8 66L517.1 66L517.1 62.5Q517.1 61.9 516.9 61.6Q516.6 61.3 516.1 61.3L516.1 61.3Q515.7 61.3 515.5 61.4Q515.2 61.6 515.0 61.8Q514.9 62.1 514.9 62.5Z "/></g><mask id="satori_om-id-1-1"><rect x="41" y="81" width="778" height="19" fill="#fff"/></mask><mask id="satori_om-id-1-1-0"><rect x="41" y="84" width="110" height="13" fill="#fff"/></mask><g  ><path fill="rgba(33,187,133,0.4)" d="M43.8 86.6L44.7 86.6L42.1 96.2L41.2 96.2L43.8 86.6ZM47.8 86.6L48.7 86.6L46.1 96.2L45.2 96.2L47.8 86.6Z M55.1 95.1L55.1 95.1Q54.4 95.1 53.8 94.7Q53.2 94.4 52.9 93.7Q52.6 93.0 52.6 92.0L52.6 92.0Q52.6 91.1 52.9 90.4Q53.2 89.7 53.8 89.3Q54.4 88.9 55.1 88.9L55.1 88.9Q55.7 88.9 56.1 89.1Q56.4 89.3 56.6 89.6Q56.8 89.8 56.9 90.0L56.9 90.0L56.9 90.0L56.9 87.0L57.9 87.0L57.9 95L57.0 95L57.0 94.1L56.9 94.1Q56.8 94.2 56.6 94.5Q56.4 94.7 56.0 94.9Q55.7 95.1 55.1 95.1ZM55.3 94.3L55.3 94.3Q55.8 94.3 56.2 94.0Q56.6 93.7 56.8 93.2Q57.0 92.7 57.0 92.0L57.0 92.0Q57.0 91.3 56.8 90.8Q56.6 90.3 56.2 90.1Q55.8 89.8 55.3 89.8L55.3 89.8Q54.7 89.8 54.3 90.1Q53.9 90.4 53.8 90.9Q53.6 91.4 53.6 92.0L53.6 92.0Q53.6 92.6 53.8 93.1Q53.9 93.7 54.3 94.0Q54.7 94.3 55.3 94.3ZM62.1 95.1L62.1 95.1Q61.3 95.1 60.6 94.7Q60.0 94.4 59.7 93.7Q59.3 93.0 59.3 92.0Q59.3 91.1 59.6 90.4Q60.0 89.7 60.6 89.3Q61.2 88.9 62.0 88.9L62.0 88.9Q62.5 88.9 63.0 89.1Q63.4 89.2 63.8 89.6Q64.2 89.9 64.4 90.5Q64.6 91.1 64.6 91.9L64.6 91.9L64.6 92.3L60.3 92.3Q60.3 92.9 60.5 93.3L60.5 93.3Q60.8 93.8 61.2 94.0Q61.6 94.3 62.1 94.3L62.1 94.3Q62.5 94.3 62.8 94.2Q63.1 94.1 63.3 93.9Q63.5 93.7 63.6 93.3L63.6 93.3L64.5 93.6Q64.4 94.1 64.1 94.4Q63.7 94.7 63.2 94.9Q62.7 95.1 62.1 95.1ZM60.3 91.5L60.3 91.5L63.6 91.5Q63.6 91.1 63.5 90.8L63.5 90.8Q63.3 90.3 62.9 90.0Q62.6 89.8 62.0 89.8Q61.5 89.8 61.1 90.0Q60.7 90.3 60.5 90.7L60.5 90.7Q60.3 91.1 60.3 91.5ZM68.5 95.1L68.5 95.1Q67.7 95.1 67.0 94.7Q66.4 94.4 66.1 93.7Q65.7 93.0 65.7 92.0Q65.7 91.1 66.1 90.4Q66.4 89.7 67.0 89.3Q67.6 88.9 68.4 88.9L68.4 88.9Q68.9 88.9 69.4 89.1Q69.8 89.2 70.2 89.6Q70.6 89.9 70.8 90.5Q71.0 91.1 71.0 91.9L71.0 91.9L71.0 92.3L66.7 92.3Q66.7 92.9 66.9 93.3L66.9 93.3Q67.2 93.8 67.6 94.0Q68.0 94.3 68.5 94.3L68.5 94.3Q68.9 94.3 69.2 94.2Q69.5 94.1 69.7 93.9Q69.9 93.7 70.0 93.3L70.0 93.3L70.9 93.6Q70.8 94.1 70.5 94.4Q70.1 94.7 69.7 94.9Q69.2 95.1 68.5 95.1ZM66.7 91.5L66.7 91.5L70.1 91.5Q70.0 91.1 69.9 90.8L69.9 90.8Q69.7 90.3 69.3 90.0Q69.0 89.8 68.4 89.8Q67.9 89.8 67.5 90.0Q67.1 90.3 66.9 90.7L66.9 90.7Q66.7 91.1 66.7 91.5ZM73.4 97.2L72.4 97.2L72.4 89.0L73.4 89.0L73.4 90.0L73.5 90.0Q73.6 89.8 73.8 89.6Q73.9 89.3 74.3 89.1Q74.6 88.9 75.2 88.9L75.2 88.9Q76.0 88.9 76.5 89.3Q77.1 89.7 77.4 90.4Q77.8 91.1 77.8 92.0L77.8 92.0Q77.8 93.0 77.4 93.7Q77.1 94.4 76.5 94.7Q76.0 95.1 75.2 95.1L75.2 95.1Q74.6 95.1 74.3 94.9Q74.0 94.7 73.8 94.5Q73.6 94.2 73.5 94.1L73.5 94.1L73.4 94.1L73.4 97.2ZM75.1 94.3L75.1 94.3Q75.6 94.3 76.0 94.0Q76.4 93.7 76.6 93.1Q76.8 92.6 76.8 92.0L76.8 92.0Q76.8 91.4 76.6 90.9Q76.4 90.4 76.0 90.1Q75.6 89.8 75.1 89.8L75.1 89.8Q74.5 89.8 74.1 90.1Q73.8 90.3 73.6 90.8Q73.4 91.3 73.4 92.0L73.4 92.0Q73.4 92.7 73.6 93.2Q73.8 93.7 74.2 94.0Q74.5 94.3 75.1 94.3Z M82.3 87.0L83.2 87.0L83.2 95L82.3 95L82.3 87.0ZM87.4 95.1L87.4 95.1Q86.6 95.1 85.9 94.7Q85.3 94.4 85.0 93.7Q84.6 93.0 84.6 92.0Q84.6 91.1 85.0 90.4Q85.3 89.7 85.9 89.3Q86.5 88.9 87.3 88.9L87.3 88.9Q87.8 88.9 88.3 89.1Q88.7 89.2 89.1 89.6Q89.5 89.9 89.7 90.5Q90.0 91.1 90.0 91.9L90.0 91.9L90.0 92.3L85.6 92.3Q85.6 92.9 85.8 93.3L85.8 93.3Q86.1 93.8 86.5 94.0Q86.9 94.3 87.5 94.3L87.5 94.3Q87.8 94.3 88.1 94.2Q88.4 94.1 88.6 93.9Q88.8 93.7 88.9 93.3L88.9 93.3L89.9 93.6Q89.7 94.1 89.4 94.4Q89.0 94.7 88.6 94.9Q88.1 95.1 87.4 95.1ZM85.6 91.5L85.6 91.5L89.0 91.5Q88.9 91.1 88.8 90.8L88.8 90.8Q88.6 90.3 88.2 90.0Q87.9 89.8 87.3 89.8Q86.8 89.8 86.4 90.0Q86.0 90.3 85.8 90.7L85.8 90.7Q85.6 91.1 85.6 91.5ZM93.0 95.1L93.0 95.1Q92.4 95.1 92.0 94.9Q91.5 94.7 91.2 94.3Q91.0 93.9 91.0 93.3L91.0 93.3Q91.0 92.8 91.2 92.5Q91.4 92.1 91.7 91.9Q92.1 91.8 92.5 91.7Q92.9 91.6 93.3 91.5L93.3 91.5Q93.8 91.5 94.2 91.4Q94.5 91.4 94.7 91.3Q94.9 91.2 94.9 91.0L94.9 91.0L94.9 90.9Q94.9 90.6 94.7 90.3Q94.6 90.0 94.3 89.9Q94.0 89.8 93.6 89.8L93.6 89.8Q93.2 89.8 92.9 89.9Q92.6 90.0 92.4 90.2Q92.2 90.4 92.1 90.6L92.1 90.6L91.1 90.3Q91.4 89.8 91.8 89.5Q92.2 89.2 92.6 89.0Q93.1 88.9 93.6 88.9L93.6 88.9Q93.9 88.9 94.3 89.0Q94.6 89.1 95.0 89.3Q95.4 89.5 95.6 89.9Q95.8 90.3 95.8 91.0L95.8 91.0L95.8 95L94.9 95L94.9 94.2L94.8 94.2Q94.7 94.4 94.5 94.6Q94.2 94.8 93.9 95.0Q93.5 95.1 93.0 95.1ZM93.2 94.3L93.2 94.3Q93.7 94.3 94.1 94.1Q94.5 93.9 94.7 93.5Q94.9 93.2 94.9 92.8L94.9 92.8L94.9 92.0Q94.8 92.1 94.6 92.1Q94.4 92.2 94.1 92.2Q93.9 92.3 93.6 92.3Q93.4 92.3 93.3 92.3L93.3 92.3Q92.9 92.4 92.6 92.5Q92.3 92.6 92.1 92.8Q91.9 93.0 91.9 93.3L91.9 93.3Q91.9 93.7 92.1 93.9Q92.3 94.1 92.5 94.2Q92.8 94.3 93.2 94.3ZM98.5 95L97.5 95L97.5 89.0L98.4 89.0L98.4 89.9L98.5 89.9Q98.7 89.5 99.1 89.2Q99.5 88.9 100.1 88.9L100.1 88.9Q100.2 88.9 100.3 88.9Q100.5 88.9 100.6 88.9L100.6 88.9L100.6 89.9Q100.5 89.9 100.3 89.9Q100.2 89.8 100.0 89.8L100.0 89.8Q99.6 89.8 99.2 90.0Q98.9 90.2 98.7 90.5Q98.5 90.8 98.5 91.2L98.5 91.2L98.5 95ZM102.6 91.4L102.6 91.4L102.6 95L101.7 95L101.7 89.0L102.6 89.0L102.6 90.1Q102.8 89.5 103.2 89.3L103.2 89.3Q103.7 88.9 104.4 88.9L104.4 88.9Q105.0 88.9 105.5 89.2Q105.9 89.4 106.2 89.9Q106.5 90.4 106.5 91.2L106.5 91.2L106.5 95L105.5 95L105.5 91.3Q105.5 90.6 105.1 90.2Q104.8 89.8 104.1 89.8L104.1 89.8Q103.7 89.8 103.4 90.0Q103.0 90.2 102.8 90.5Q102.6 90.9 102.6 91.4ZM109.1 95L108.2 95L108.2 89.0L109.1 89.0L109.1 95ZM108.6 88.0L108.6 88.0Q108.4 88.0 108.2 87.8Q108.0 87.6 108.0 87.4L108.0 87.4Q108.0 87.1 108.2 86.9Q108.4 86.7 108.6 86.7L108.6 86.7Q108.9 86.7 109.1 86.9Q109.3 87.1 109.3 87.4L109.3 87.4Q109.3 87.6 109.1 87.8Q108.9 88.0 108.6 88.0ZM111.8 91.4L111.8 91.4L111.8 95L110.8 95L110.8 89.0L111.7 89.0L111.8 90.1Q112.0 89.5 112.4 89.3L112.4 89.3Q112.9 88.9 113.6 88.9L113.6 88.9Q114.2 88.9 114.7 89.2Q115.1 89.4 115.4 89.9Q115.6 90.4 115.6 91.2L115.6 91.2L115.6 95L114.7 95L114.7 91.3Q114.7 90.6 114.3 90.2Q113.9 89.8 113.3 89.8L113.3 89.8Q112.9 89.8 112.5 90.0Q112.2 90.2 112.0 90.5Q111.8 90.9 111.8 91.4ZM119.8 97.4L119.8 97.4Q119.1 97.4 118.6 97.2Q118.1 97.0 117.8 96.8Q117.5 96.5 117.3 96.1L117.3 96.1L118.1 95.6Q118.2 95.8 118.4 96.0Q118.6 96.2 118.9 96.4Q119.2 96.5 119.8 96.5L119.8 96.5Q120.5 96.5 120.9 96.2Q121.4 95.8 121.4 95.1L121.4 95.1L121.4 93.9L121.3 93.9Q121.2 94.1 121.0 94.3Q120.8 94.5 120.5 94.7Q120.1 94.9 119.6 94.9L119.6 94.9Q118.8 94.9 118.3 94.6Q117.7 94.2 117.4 93.6Q117.0 92.9 117.0 92.0L117.0 92.0Q117.0 91.0 117.4 90.4Q117.7 89.7 118.3 89.3Q118.8 88.9 119.6 88.9L119.6 88.9Q120.2 88.9 120.5 89.1Q120.9 89.3 121.0 89.5Q121.2 89.8 121.3 90.0L121.3 90.0L121.4 90.0L121.4 89.0L122.4 89.0L122.4 95.2Q122.4 95.9 122.0 96.4Q121.7 96.9 121.1 97.1Q120.5 97.4 119.8 97.4ZM119.7 94.0L119.7 94.0Q120.3 94.0 120.6 93.8Q121.0 93.5 121.2 93.1Q121.4 92.6 121.4 91.9L121.4 91.9Q121.4 91.3 121.2 90.8Q121.0 90.3 120.7 90.1Q120.3 89.8 119.7 89.8L119.7 89.8Q119.2 89.8 118.8 90.1Q118.4 90.4 118.2 90.9Q118.0 91.3 118.0 91.9L118.0 91.9Q118.0 92.6 118.2 93.0Q118.4 93.5 118.8 93.8Q119.2 94.0 119.7 94.0Z "/></g><mask id="satori_om-id-1-1-1"><rect x="165" y="81" width="364" height="19" fill="#fff"/></mask><defs><clipPath id="satori_bc-id-1-1-1-0"><path x="165" y="81" width="84" height="19" d="M169,81 h76 a4,4 0 0 1 4,4 v11 a4,4 0 0 1 -4,4 h-76 a4,4 0 0 1 -4,-4 v-11 a4,4 0 0 1 4,-4"/></clipPath></defs><mask id="satori_om-id-1-1-1-0"><rect x="166" y="82" width="82" height="17" fill="#fff"/><path width="84" height="19" fill="none" stroke="#000" stroke-width="2" d="M166.172,82.172 A4,4 0 0 1 169,81 h76 a4,4 0 0 1 4,4 v11 a4,4 0 0 1 -4,4 h-76 a4,4 0 0 1 -4,-4 v-11 A4,4 0 0 1 166.172,82.172"/></mask><path x="165" y="81" width="84" height="19" fill="rgba(33,187,133,0.08)" d="M169,81 h76 a4,4 0 0 1 4,4 v11 a4,4 0 0 1 -4,4 h-76 a4,4 0 0 1 -4,-4 v-11 a4,4 0 0 1 4,-4"/><path width="84" height="19" clip-path="url(#satori_bc-id-1-1-1-0)" fill="none" stroke="rgba(33,187,133,0.2)" stroke-width="2" d="M166.172,82.172 A4,4 0 0 1 169,81 h76 a4,4 0 0 1 4,4 v11 a4,4 0 0 1 -4,4 h-76 a4,4 0 0 1 -4,-4 v-11 A4,4 0 0 1 166.172,82.172"/><g  ><path fill="rgba(33,230,160,0.8)" d="M177.9 88.4L175.4 88.4L175.4 87.0L181.9 87.0L181.9 88.4L179.5 88.4L179.5 95L177.9 95L177.9 88.4ZM185.7 95.1L185.7 95.1Q184.8 95.1 184.2 94.7Q183.5 94.4 183.1 93.7Q182.8 93.0 182.8 92.0L182.8 92.0Q182.8 91.1 183.1 90.4Q183.5 89.7 184.1 89.3Q184.8 88.9 185.7 88.9L185.7 88.9Q186.3 88.9 186.8 89.1Q187.3 89.3 187.7 89.7Q188.0 90.1 188.3 90.6Q188.5 91.2 188.5 92.0L188.5 92.0L188.5 92.4L184.4 92.4Q184.4 92.9 184.5 93.2L184.5 93.2Q184.7 93.5 185.0 93.7Q185.4 93.9 185.8 93.9L185.8 93.9Q186.1 93.9 186.3 93.8Q186.5 93.7 186.7 93.6Q186.8 93.4 186.9 93.2L186.9 93.2L188.4 93.5Q188.2 94.0 187.9 94.3Q187.5 94.7 187.0 94.9Q186.4 95.1 185.7 95.1ZM184.4 91.4L184.4 91.4L186.9 91.4Q186.9 91.1 186.8 90.9L186.8 90.9Q186.7 90.5 186.4 90.3Q186.1 90.1 185.7 90.1L185.7 90.1Q185.3 90.1 185.0 90.3Q184.7 90.5 184.5 90.8L184.5 90.8Q184.4 91.1 184.4 91.4ZM191.2 91.5L191.2 91.5L191.2 95L189.6 95L189.6 89.0L191.1 89.0L191.1 90.2Q191.4 89.7 191.8 89.3L191.8 89.3Q192.2 88.9 193.0 88.9L193.0 88.9Q193.6 88.9 194.1 89.2Q194.5 89.5 194.8 90.0Q195.1 90.5 195.1 91.2L195.1 91.2L195.1 95L193.4 95L193.4 91.5Q193.4 90.9 193.2 90.6Q192.9 90.3 192.4 90.3L192.4 90.3Q192.0 90.3 191.8 90.4Q191.5 90.6 191.3 90.8Q191.2 91.1 191.2 91.5ZM198.8 95.1L198.8 95.1Q198.1 95.1 197.5 94.9Q197.0 94.7 196.6 94.3Q196.3 93.9 196.2 93.4L196.2 93.4L197.7 93.1Q197.8 93.5 198.1 93.7Q198.4 93.9 198.9 93.9L198.9 93.9Q199.3 93.9 199.6 93.8Q199.9 93.6 199.9 93.3L199.9 93.3Q199.9 93.1 199.7 92.9Q199.5 92.8 199.1 92.7L199.1 92.7L198.0 92.5Q197.2 92.3 196.7 91.9Q196.3 91.5 196.3 90.8L196.3 90.8Q196.3 90.2 196.6 89.8Q197.0 89.4 197.5 89.1Q198.1 88.9 198.8 88.9L198.8 88.9Q199.6 88.9 200.1 89.1Q200.6 89.3 200.9 89.7Q201.2 90.0 201.3 90.5L201.3 90.5L199.9 90.8Q199.8 90.5 199.6 90.3Q199.3 90.1 198.9 90.1L198.9 90.1Q198.5 90.1 198.2 90.2Q197.9 90.4 197.9 90.7L197.9 90.7Q197.9 90.9 198.1 91.1Q198.3 91.2 198.7 91.3L198.7 91.3L199.8 91.5Q200.7 91.7 201.1 92.1Q201.5 92.5 201.5 93.1L201.5 93.1Q201.5 93.7 201.2 94.2Q200.8 94.6 200.2 94.9Q199.6 95.1 198.8 95.1ZM205.3 95.1L205.3 95.1Q204.4 95.1 203.7 94.7Q203.1 94.3 202.7 93.6Q202.3 92.9 202.3 92.0L202.3 92.0Q202.3 91.1 202.7 90.4Q203.1 89.7 203.7 89.3Q204.4 88.9 205.3 88.9L205.3 88.9Q206.2 88.9 206.8 89.3Q207.5 89.7 207.9 90.4Q208.2 91.1 208.2 92.0L208.2 92.0Q208.2 92.9 207.9 93.6Q207.5 94.3 206.8 94.7Q206.2 95.1 205.3 95.1ZM205.3 93.9L205.3 93.9Q205.7 93.9 206.0 93.6Q206.3 93.4 206.4 93.0Q206.6 92.5 206.6 92.0L206.6 92.0Q206.6 91.5 206.4 91.1Q206.3 90.7 206.0 90.4Q205.7 90.2 205.3 90.2L205.3 90.2Q204.8 90.2 204.6 90.4Q204.3 90.7 204.1 91.1Q204.0 91.5 204.0 92.0L204.0 92.0Q204.0 92.5 204.1 93.0Q204.3 93.4 204.6 93.6Q204.8 93.9 205.3 93.9ZM210.9 95L209.3 95L209.3 89.0L210.9 89.0L210.9 90.0L211.0 90.0Q211.1 89.5 211.5 89.2Q211.9 88.9 212.4 88.9L212.4 88.9Q212.5 88.9 212.7 88.9Q212.8 88.9 212.9 89.0L212.9 89.0L212.9 90.4Q212.8 90.4 212.6 90.3Q212.4 90.3 212.2 90.3L212.2 90.3Q211.9 90.3 211.6 90.5Q211.3 90.6 211.1 90.9Q210.9 91.2 210.9 91.6L210.9 91.6L210.9 95ZM215.5 95L213.9 95L213.9 87.0L219.1 87.0L219.1 88.4L215.5 88.4L215.5 90.6L218.8 90.6L218.8 91.9L215.5 91.9L215.5 95ZM220.3 87.0L221.9 87.0L221.9 95L220.3 95L220.3 87.0ZM225.9 95.1L225.9 95.1Q225.0 95.1 224.4 94.7Q223.7 94.3 223.4 93.6Q223.0 92.9 223.0 92.0L223.0 92.0Q223.0 91.1 223.4 90.4Q223.7 89.7 224.4 89.3Q225.0 88.9 225.9 88.9L225.9 88.9Q226.8 88.9 227.5 89.3Q228.2 89.7 228.5 90.4Q228.9 91.1 228.9 92.0L228.9 92.0Q228.9 92.9 228.5 93.6Q228.2 94.3 227.5 94.7Q226.8 95.1 225.9 95.1ZM225.9 93.9L225.9 93.9Q226.4 93.9 226.7 93.6Q226.9 93.4 227.1 93.0Q227.2 92.5 227.2 92.0L227.2 92.0Q227.2 91.5 227.1 91.1Q226.9 90.7 226.7 90.4Q226.4 90.2 225.9 90.2L225.9 90.2Q225.5 90.2 225.2 90.4Q224.9 90.7 224.8 91.1Q224.6 91.5 224.6 92.0L224.6 92.0Q224.6 92.5 224.8 93.0Q224.9 93.4 225.2 93.6Q225.5 93.9 225.9 93.9ZM232.9 95L231.3 95L229.5 89.0L231.2 89.0L231.7 91.2Q231.8 91.8 232.0 92.5L232.0 92.5Q232.1 93.0 232.2 93.5L232.2 93.5Q232.3 93.0 232.4 92.5L232.4 92.5Q232.6 91.8 232.7 91.2L232.7 91.2L233.2 89.0L234.7 89.0L235.3 91.2Q235.4 91.8 235.6 92.5L235.6 92.5Q235.7 93.0 235.8 93.5L235.8 93.5Q235.9 93.0 236.0 92.5L236.0 92.5Q236.1 91.8 236.3 91.2L236.3 91.2L236.8 89.0L238.5 89.0L236.7 95L235.1 95L234.4 92.7Q234.3 92.3 234.2 91.9Q234.1 91.5 234.0 91.1L234.0 91.1Q234.0 91.0 234.0 90.8L234.0 90.8Q234.0 91.0 233.9 91.1L233.9 91.1Q233.8 91.5 233.7 91.9Q233.7 92.3 233.6 92.7L233.6 92.7L232.9 95Z "/></g><defs><clipPath id="satori_bc-id-1-1-1-1"><path x="256" y="81" width="52" height="19" d="M260,81 h44 a4,4 0 0 1 4,4 v11 a4,4 0 0 1 -4,4 h-44 a4,4 0 0 1 -4,-4 v-11 a4,4 0 0 1 4,-4"/></clipPath></defs><mask id="satori_om-id-1-1-1-1"><rect x="257" y="82" width="50" height="17" fill="#fff"/><path width="52" height="19" fill="none" stroke="#000" stroke-width="2" d="M257.172,82.172 A4,4 0 0 1 260,81 h44 a4,4 0 0 1 4,4 v11 a4,4 0 0 1 -4,4 h-44 a4,4 0 0 1 -4,-4 v-11 A4,4 0 0 1 257.172,82.172"/></mask><path x="256" y="81" width="52" height="19" fill="rgba(33,187,133,0.08)" d="M260,81 h44 a4,4 0 0 1 4,4 v11 a4,4 0 0 1 -4,4 h-44 a4,4 0 0 1 -4,-4 v-11 a4,4 0 0 1 4,-4"/><path width="52" height="19" clip-path="url(#satori_bc-id-1-1-1-1)" fill="none" stroke="rgba(33,187,133,0.2)" stroke-width="2" d="M257.172,82.172 A4,4 0 0 1 260,81 h44 a4,4 0 0 1 4,4 v11 a4,4 0 0 1 -4,4 h-44 a4,4 0 0 1 -4,-4 v-11 A4,4 0 0 1 257.172,82.172"/><g  ><path fill="rgba(33,230,160,0.8)" d="M268.4 95L266.7 95L266.7 87.0L268.4 87.0L268.4 89.2L268.3 91.0Q268.4 90.9 268.4 90.9L268.4 90.9Q268.7 90.5 268.9 90.1Q269.2 89.7 269.6 89.3L269.6 89.3L271.5 87.0L273.6 87.0L270.6 90.5L273.6 95L271.7 95L269.4 91.5L268.4 92.7L268.4 95ZM277.3 95.1L277.3 95.1Q276.4 95.1 275.7 94.7Q275.1 94.4 274.7 93.7Q274.3 93.0 274.3 92.0L274.3 92.0Q274.3 91.1 274.7 90.4Q275.1 89.7 275.7 89.3Q276.4 88.9 277.2 88.9L277.2 88.9Q277.8 88.9 278.3 89.1Q278.8 89.3 279.2 89.7Q279.6 90.1 279.8 90.6Q280.1 91.2 280.1 92.0L280.1 92.0L280.1 92.4L275.9 92.4Q276.0 92.9 276.1 93.2L276.1 93.2Q276.3 93.5 276.6 93.7Q276.9 93.9 277.3 93.9L277.3 93.9Q277.6 93.9 277.9 93.8Q278.1 93.7 278.2 93.6Q278.4 93.4 278.5 93.2L278.5 93.2L280.0 93.5Q279.8 94.0 279.5 94.3Q279.1 94.7 278.6 94.9Q278.0 95.1 277.3 95.1ZM276.0 91.4L276.0 91.4L278.5 91.4Q278.5 91.1 278.4 90.9L278.4 90.9Q278.2 90.5 277.9 90.3Q277.7 90.1 277.2 90.1L277.2 90.1Q276.8 90.1 276.5 90.3Q276.2 90.5 276.1 90.8L276.1 90.8Q276.0 91.1 276.0 91.4ZM282.8 95L281.2 95L281.2 89.0L282.7 89.0L282.7 90.0L282.8 90.0Q282.9 89.5 283.3 89.2Q283.7 88.9 284.2 88.9L284.2 88.9Q284.3 88.9 284.5 88.9Q284.6 88.9 284.7 89.0L284.7 89.0L284.7 90.4Q284.6 90.4 284.4 90.3Q284.2 90.3 284.0 90.3L284.0 90.3Q283.7 90.3 283.4 90.5Q283.1 90.6 282.9 90.9Q282.8 91.2 282.8 91.6L282.8 91.6L282.8 95ZM287.3 95.1L287.3 95.1Q286.7 95.1 286.3 94.9Q285.8 94.7 285.6 94.3Q285.3 93.9 285.3 93.3L285.3 93.3Q285.3 92.8 285.5 92.5Q285.7 92.1 286.0 91.9Q286.3 91.7 286.7 91.6Q287.1 91.5 287.6 91.5L287.6 91.5Q288.1 91.4 288.4 91.4Q288.7 91.3 288.9 91.2Q289.0 91.1 289.0 90.9L289.0 90.9L289.0 90.9Q289.0 90.7 288.9 90.5Q288.8 90.3 288.6 90.2Q288.4 90.1 288.1 90.1L288.1 90.1Q287.8 90.1 287.5 90.2Q287.3 90.3 287.2 90.5Q287.0 90.6 287.0 90.8L287.0 90.8L285.5 90.6Q285.6 90.0 286.0 89.7Q286.4 89.3 286.9 89.1Q287.4 88.9 288.1 88.9L288.1 88.9Q288.6 88.9 289.0 89.0Q289.5 89.2 289.9 89.4Q290.2 89.6 290.4 90.0Q290.6 90.4 290.6 91.0L290.6 91.0L290.6 95L289.1 95L289.1 94.2L289.1 94.2Q288.9 94.4 288.7 94.7Q288.4 94.9 288.1 95.0Q287.8 95.1 287.3 95.1ZM287.8 94.0L287.8 94.0Q288.1 94.0 288.4 93.8Q288.7 93.7 288.9 93.4Q289.0 93.2 289.0 92.9L289.0 92.9L289.0 92.2Q289.0 92.3 288.8 92.3Q288.7 92.3 288.5 92.4Q288.3 92.4 288.2 92.4Q288.0 92.5 287.8 92.5L287.8 92.5Q287.6 92.5 287.3 92.6Q287.1 92.7 287.0 92.9Q286.9 93.0 286.9 93.3L286.9 93.3Q286.9 93.5 287.0 93.7Q287.1 93.8 287.3 93.9Q287.5 94.0 287.8 94.0ZM294.4 95.1L294.4 95.1Q293.7 95.1 293.1 94.9Q292.6 94.7 292.2 94.3Q291.9 93.9 291.7 93.4L291.7 93.4L293.2 93.1Q293.4 93.5 293.7 93.7Q294.0 93.9 294.5 93.9L294.5 93.9Q294.9 93.9 295.2 93.8Q295.4 93.6 295.4 93.3L295.4 93.3Q295.4 93.1 295.3 92.9Q295.1 92.8 294.7 92.7L294.7 92.7L293.6 92.5Q292.8 92.3 292.3 91.9Q291.9 91.5 291.9 90.8L291.9 90.8Q291.9 90.2 292.2 89.8Q292.5 89.4 293.1 89.1Q293.7 88.9 294.4 88.9L294.4 88.9Q295.1 88.9 295.7 89.1Q296.2 89.3 296.5 89.7Q296.8 90.0 296.9 90.5L296.9 90.5L295.5 90.8Q295.4 90.5 295.2 90.3Q294.9 90.1 294.5 90.1L294.5 90.1Q294.1 90.1 293.8 90.2Q293.5 90.4 293.5 90.7L293.5 90.7Q293.5 90.9 293.7 91.1Q293.9 91.2 294.3 91.3L294.3 91.3L295.4 91.5Q296.2 91.7 296.7 92.1Q297.1 92.5 297.1 93.1L297.1 93.1Q297.1 93.7 296.7 94.2Q296.4 94.6 295.8 94.9Q295.2 95.1 294.4 95.1Z "/></g><defs><clipPath id="satori_bc-id-1-1-1-2"><path x="315" y="81" width="45" height="19" d="M319,81 h37 a4,4 0 0 1 4,4 v11 a4,4 0 0 1 -4,4 h-37 a4,4 0 0 1 -4,-4 v-11 a4,4 0 0 1 4,-4"/></clipPath></defs><mask id="satori_om-id-1-1-1-2"><rect x="316" y="82" width="43" height="17" fill="#fff"/><path width="45" height="19" fill="none" stroke="#000" stroke-width="2" d="M316.172,82.172 A4,4 0 0 1 319,81 h37 a4,4 0 0 1 4,4 v11 a4,4 0 0 1 -4,4 h-37 a4,4 0 0 1 -4,-4 v-11 A4,4 0 0 1 316.172,82.172"/></mask><path x="315" y="81" width="45" height="19" fill="rgba(33,187,133,0.08)" d="M319,81 h37 a4,4 0 0 1 4,4 v11 a4,4 0 0 1 -4,4 h-37 a4,4 0 0 1 -4,-4 v-11 a4,4 0 0 1 4,-4"/><path width="45" height="19" clip-path="url(#satori_bc-id-1-1-1-2)" fill="none" stroke="rgba(33,187,133,0.2)" stroke-width="2" d="M316.172,82.172 A4,4 0 0 1 319,81 h37 a4,4 0 0 1 4,4 v11 a4,4 0 0 1 -4,4 h-37 a4,4 0 0 1 -4,-4 v-11 A4,4 0 0 1 316.172,82.172"/><g  ><path fill="rgba(33,230,160,0.8)" d="M329.2 95.1L329.2 95.1Q328.2 95.1 327.3 94.6Q326.5 94.1 326.0 93.2Q325.5 92.3 325.5 91.0L325.5 91.0Q325.5 89.7 326.0 88.8Q326.5 87.9 327.3 87.4Q328.2 86.9 329.2 86.9L329.2 86.9Q329.9 86.9 330.5 87.1Q331.1 87.3 331.5 87.6Q332.0 88.0 332.3 88.5Q332.6 89.1 332.7 89.7L332.7 89.7L331.0 89.7Q331.0 89.4 330.8 89.1Q330.6 88.9 330.4 88.7Q330.2 88.5 329.9 88.4Q329.6 88.3 329.3 88.3L329.3 88.3Q328.6 88.3 328.2 88.7Q327.7 89.0 327.4 89.6Q327.2 90.2 327.2 91.0L327.2 91.0Q327.2 91.9 327.4 92.5Q327.7 93.1 328.2 93.4Q328.6 93.7 329.2 93.7L329.2 93.7Q329.6 93.7 329.9 93.6Q330.2 93.5 330.4 93.3Q330.6 93.1 330.8 92.8Q331.0 92.6 331.0 92.3L331.0 92.3L332.7 92.3Q332.6 92.8 332.3 93.3Q332.1 93.8 331.6 94.2Q331.2 94.6 330.6 94.9Q330.0 95.1 329.2 95.1ZM335.5 95L333.9 95L333.9 87.0L335.7 87.0L338.2 91.0Q338.4 91.4 338.6 91.7Q338.8 92.1 339.0 92.5L339.0 92.5Q339.1 92.8 339.2 93.0L339.2 93.0Q339.2 92.8 339.2 92.6L339.2 92.6Q339.2 92.1 339.1 91.6Q339.1 91.2 339.1 90.8L339.1 90.8L339.1 87.0L340.8 87.0L340.8 95L339.0 95L336.7 91.3Q336.4 90.9 336.2 90.5Q336.0 90.1 335.8 89.7L335.8 89.7Q335.6 89.4 335.4 89.0L335.4 89.0Q335.5 89.3 335.5 89.7L335.5 89.7Q335.5 90.2 335.5 90.6Q335.5 91.0 335.5 91.3L335.5 91.3L335.5 95ZM343.9 95L342.2 95L342.2 87.0L344.1 87.0L346.6 91.0Q346.8 91.4 347.0 91.7Q347.2 92.1 347.4 92.5L347.4 92.5Q347.5 92.8 347.6 93.0L347.6 93.0Q347.6 92.8 347.6 92.6L347.6 92.6Q347.5 92.1 347.5 91.6Q347.5 91.2 347.5 90.8L347.5 90.8L347.5 87.0L349.2 87.0L349.2 95L347.3 95L345.1 91.3Q344.8 90.9 344.6 90.5Q344.4 90.1 344.1 89.7L344.1 89.7Q344.0 89.4 343.8 89.0L343.8 89.0Q343.8 89.3 343.9 89.7L343.9 89.7Q343.9 90.2 343.9 90.6Q343.9 91.0 343.9 91.3L343.9 91.3L343.9 95Z "/></g><defs><clipPath id="satori_bc-id-1-1-1-3"><path x="367" y="81" width="44" height="19" d="M371,81 h36 a4,4 0 0 1 4,4 v11 a4,4 0 0 1 -4,4 h-36 a4,4 0 0 1 -4,-4 v-11 a4,4 0 0 1 4,-4"/></clipPath></defs><mask id="satori_om-id-1-1-1-3"><rect x="368" y="82" width="42" height="17" fill="#fff"/><path width="44" height="19" fill="none" stroke="#000" stroke-width="2" d="M368.172,82.172 A4,4 0 0 1 371,81 h36 a4,4 0 0 1 4,4 v11 a4,4 0 0 1 -4,4 h-36 a4,4 0 0 1 -4,-4 v-11 A4,4 0 0 1 368.172,82.172"/></mask><path x="367" y="81" width="44" height="19" fill="rgba(33,187,133,0.08)" d="M371,81 h36 a4,4 0 0 1 4,4 v11 a4,4 0 0 1 -4,4 h-36 a4,4 0 0 1 -4,-4 v-11 a4,4 0 0 1 4,-4"/><path width="44" height="19" clip-path="url(#satori_bc-id-1-1-1-3)" fill="none" stroke="rgba(33,187,133,0.2)" stroke-width="2" d="M368.172,82.172 A4,4 0 0 1 371,81 h36 a4,4 0 0 1 4,4 v11 a4,4 0 0 1 -4,4 h-36 a4,4 0 0 1 -4,-4 v-11 A4,4 0 0 1 368.172,82.172"/><g  ><path fill="rgba(33,230,160,0.8)" d="M379.4 95L377.7 95L377.7 87.0L380.8 87.0Q381.8 87.0 382.4 87.3Q383.0 87.6 383.4 88.2Q383.7 88.8 383.7 89.6Q383.7 90.4 383.4 91.0Q383.0 91.5 382.4 91.8L382.4 91.8Q382.3 91.9 382.3 91.9L382.3 91.9L384.0 95L382.2 95L380.6 92.1L379.4 92.1L379.4 95ZM379.4 88.4L379.4 90.8L380.5 90.8Q381.0 90.8 381.4 90.7Q381.7 90.5 381.9 90.3Q382.0 90.0 382.0 89.6L382.0 89.6Q382.0 89.2 381.9 88.9Q381.7 88.6 381.4 88.5Q381.0 88.4 380.5 88.4L380.5 88.4L379.4 88.4ZM386.6 95L384.9 95L384.9 87.0L386.8 87.0L389.3 91.0Q389.5 91.4 389.7 91.7Q389.9 92.1 390.1 92.5L390.1 92.5Q390.2 92.8 390.3 93.0L390.3 93.0Q390.3 92.8 390.3 92.6L390.3 92.6Q390.3 92.1 390.2 91.6Q390.2 91.2 390.2 90.8L390.2 90.8L390.2 87.0L391.9 87.0L391.9 95L390.1 95L387.8 91.3Q387.5 90.9 387.3 90.5Q387.1 90.1 386.8 89.7L386.8 89.7Q386.7 89.4 386.5 89.0L386.5 89.0Q386.5 89.3 386.6 89.7L386.6 89.7Q386.6 90.2 386.6 90.6Q386.6 91.0 386.6 91.3L386.6 91.3L386.6 95ZM395.0 95L393.3 95L393.3 87.0L395.2 87.0L397.7 91.0Q397.9 91.4 398.1 91.7Q398.3 92.1 398.5 92.5L398.5 92.5Q398.6 92.8 398.7 93.0L398.7 93.0Q398.7 92.8 398.7 92.6L398.7 92.6Q398.6 92.1 398.6 91.6Q398.6 91.2 398.6 90.8L398.6 90.8L398.6 87.0L400.3 87.0L400.3 95L398.4 95L396.1 91.3Q395.9 90.9 395.7 90.5Q395.5 90.1 395.2 89.7L395.2 89.7Q395.1 89.4 394.9 89.0L394.9 89.0Q394.9 89.3 394.9 89.7L394.9 89.7Q395.0 90.2 395.0 90.6Q395.0 91.0 395.0 91.3L395.0 91.3L395.0 95Z "/></g><defs><clipPath id="satori_bc-id-1-1-1-4"><path x="418" y="81" width="111" height="19" d="M422,81 h103 a4,4 0 0 1 4,4 v11 a4,4 0 0 1 -4,4 h-103 a4,4 0 0 1 -4,-4 v-11 a4,4 0 0 1 4,-4"/></clipPath></defs><mask id="satori_om-id-1-1-1-4"><rect x="419" y="82" width="109" height="17" fill="#fff"/><path width="111" height="19" fill="none" stroke="#000" stroke-width="2" d="M419.172,82.172 A4,4 0 0 1 422,81 h103 a4,4 0 0 1 4,4 v11 a4,4 0 0 1 -4,4 h-103 a4,4 0 0 1 -4,-4 v-11 A4,4 0 0 1 419.172,82.172"/></mask><path x="418" y="81" width="111" height="19" fill="rgba(33,187,133,0.08)" d="M422,81 h103 a4,4 0 0 1 4,4 v11 a4,4 0 0 1 -4,4 h-103 a4,4 0 0 1 -4,-4 v-11 a4,4 0 0 1 4,-4"/><path width="111" height="19" clip-path="url(#satori_bc-id-1-1-1-4)" fill="none" stroke="rgba(33,187,133,0.2)" stroke-width="2" d="M419.172,82.172 A4,4 0 0 1 422,81 h103 a4,4 0 0 1 4,4 v11 a4,4 0 0 1 -4,4 h-103 a4,4 0 0 1 -4,-4 v-11 A4,4 0 0 1 419.172,82.172"/><g  ><path fill="rgba(33,230,160,0.8)" d="M430.4 95L428.7 95L428.7 87.0L430.6 87.0L433.1 91.0Q433.3 91.4 433.5 91.7Q433.7 92.1 433.9 92.5L433.9 92.5Q434.0 92.8 434.1 93.0L434.1 93.0Q434.1 92.8 434.1 92.6L434.1 92.6Q434.0 92.1 434.0 91.6Q434.0 91.2 434.0 90.8L434.0 90.8L434.0 87.0L435.7 87.0L435.7 95L433.8 95L431.5 91.3Q431.3 90.9 431.1 90.5Q430.8 90.1 430.6 89.7L430.6 89.7Q430.5 89.4 430.3 89.0L430.3 89.0Q430.3 89.3 430.3 89.7L430.3 89.7Q430.4 90.2 430.4 90.6Q430.4 91.0 430.4 91.3L430.4 91.3L430.4 95ZM439.8 95.1L439.8 95.1Q438.9 95.1 438.2 94.7Q437.5 94.4 437.2 93.7Q436.8 93.0 436.8 92.0L436.8 92.0Q436.8 91.1 437.2 90.4Q437.5 89.7 438.2 89.3Q438.8 88.9 439.7 88.9L439.7 88.9Q440.3 88.9 440.8 89.1Q441.3 89.3 441.7 89.7Q442.1 90.1 442.3 90.6Q442.5 91.2 442.5 92.0L442.5 92.0L442.5 92.4L438.4 92.4Q438.4 92.9 438.6 93.2L438.6 93.2Q438.8 93.5 439.1 93.7Q439.4 93.9 439.8 93.9L439.8 93.9Q440.1 93.9 440.3 93.8Q440.6 93.7 440.7 93.6Q440.9 93.4 441.0 93.2L441.0 93.2L442.4 93.5Q442.3 94.0 441.9 94.3Q441.6 94.7 441.0 94.9Q440.5 95.1 439.8 95.1ZM438.4 91.4L438.4 91.4L441.0 91.4Q440.9 91.1 440.8 90.9L440.8 90.9Q440.7 90.5 440.4 90.3Q440.1 90.1 439.7 90.1L439.7 90.1Q439.3 90.1 439.0 90.3Q438.7 90.5 438.6 90.8L438.6 90.8Q438.5 91.1 438.4 91.4ZM445.7 95.1L445.7 95.1Q445.1 95.1 444.6 94.8Q444.1 94.5 443.9 94.0Q443.6 93.5 443.6 92.8L443.6 92.8L443.6 89.0L445.2 89.0L445.2 92.5Q445.2 93.1 445.5 93.4Q445.8 93.7 446.3 93.7L446.3 93.7Q446.7 93.7 446.9 93.6Q447.2 93.4 447.3 93.1Q447.5 92.9 447.5 92.5L447.5 92.5L447.5 89.0L449.1 89.0L449.1 95L447.6 95L447.6 93.7Q447.3 94.3 446.9 94.7L446.9 94.7Q446.4 95.1 445.7 95.1ZM452.1 95L450.5 95L450.5 89.0L452.0 89.0L452.0 90.0L452.1 90.0Q452.3 89.5 452.7 89.2Q453.0 88.9 453.5 88.9L453.5 88.9Q453.7 88.9 453.8 88.9Q454.0 88.9 454.1 89.0L454.1 89.0L454.1 90.4Q454.0 90.4 453.8 90.3Q453.6 90.3 453.4 90.3L453.4 90.3Q453.0 90.3 452.7 90.5Q452.4 90.6 452.2 90.9Q452.1 91.2 452.1 91.6L452.1 91.6L452.1 95ZM456.6 95.1L456.6 95.1Q456.1 95.1 455.6 94.9Q455.2 94.7 454.9 94.3Q454.6 93.9 454.6 93.3L454.6 93.3Q454.6 92.8 454.8 92.5Q455.0 92.1 455.3 91.9Q455.6 91.7 456.0 91.6Q456.5 91.5 456.9 91.5L456.9 91.5Q457.4 91.4 457.7 91.4Q458.1 91.3 458.2 91.2Q458.4 91.1 458.4 90.9L458.4 90.9L458.4 90.9Q458.4 90.7 458.2 90.5Q458.1 90.3 457.9 90.2Q457.7 90.1 457.4 90.1L457.4 90.1Q457.1 90.1 456.9 90.2Q456.6 90.3 456.5 90.5Q456.3 90.6 456.3 90.8L456.3 90.8L454.8 90.6Q455.0 90.0 455.3 89.7Q455.7 89.3 456.2 89.1Q456.7 88.9 457.4 88.9L457.4 88.9Q457.9 88.9 458.4 89.0Q458.8 89.2 459.2 89.4Q459.5 89.6 459.8 90.0Q460.0 90.4 460.0 91.0L460.0 91.0L460.0 95L458.4 95L458.4 94.2L458.4 94.2Q458.2 94.4 458.0 94.7Q457.8 94.9 457.4 95.0Q457.1 95.1 456.6 95.1ZM457.1 94.0L457.1 94.0Q457.5 94.0 457.8 93.8Q458.0 93.7 458.2 93.4Q458.4 93.2 458.4 92.9L458.4 92.9L458.4 92.2Q458.3 92.3 458.1 92.3Q458.0 92.3 457.8 92.4Q457.6 92.4 457.5 92.4Q457.3 92.5 457.2 92.5L457.2 92.5Q456.9 92.5 456.6 92.6Q456.4 92.7 456.3 92.9Q456.2 93.0 456.2 93.3L456.2 93.3Q456.2 93.5 456.3 93.7Q456.4 93.8 456.6 93.9Q456.8 94.0 457.1 94.0ZM461.3 87.0L462.9 87.0L462.9 95L461.3 95L461.3 87.0Z M468.6 95L467.0 95L467.0 87.0L468.8 87.0L471.3 91.0Q471.5 91.4 471.7 91.7Q471.9 92.1 472.1 92.5L472.1 92.5Q472.2 92.8 472.3 93.0L472.3 93.0Q472.3 92.8 472.3 92.6L472.3 92.6Q472.3 92.1 472.2 91.6Q472.2 91.2 472.2 90.8L472.2 90.8L472.2 87.0L473.9 87.0L473.9 95L472.1 95L469.8 91.3Q469.5 90.9 469.3 90.5Q469.1 90.1 468.9 89.7L468.9 89.7Q468.7 89.4 468.5 89.0L468.5 89.0Q468.6 89.3 468.6 89.7L468.6 89.7Q468.6 90.2 468.6 90.6Q468.6 91.0 468.6 91.3L468.6 91.3L468.6 95ZM478.0 95.1L478.0 95.1Q477.1 95.1 476.4 94.7Q475.8 94.4 475.4 93.7Q475.1 93.0 475.1 92.0L475.1 92.0Q475.1 91.1 475.4 90.4Q475.8 89.7 476.4 89.3Q477.1 88.9 477.9 88.9L477.9 88.9Q478.5 88.9 479.0 89.1Q479.6 89.3 479.9 89.7Q480.3 90.1 480.5 90.6Q480.8 91.2 480.8 92.0L480.8 92.0L480.8 92.4L476.7 92.4Q476.7 92.9 476.8 93.2L476.8 93.2Q477.0 93.5 477.3 93.7Q477.6 93.9 478.0 93.9L478.0 93.9Q478.3 93.9 478.6 93.8Q478.8 93.7 479.0 93.6Q479.1 93.4 479.2 93.2L479.2 93.2L480.7 93.5Q480.5 94.0 480.2 94.3Q479.8 94.7 479.3 94.9Q478.7 95.1 478.0 95.1ZM476.7 91.4L476.7 91.4L479.2 91.4Q479.2 91.1 479.1 90.9L479.1 90.9Q478.9 90.5 478.7 90.3Q478.4 90.1 478.0 90.1L478.0 90.1Q477.5 90.1 477.2 90.3Q477.0 90.5 476.8 90.8L476.8 90.8Q476.7 91.1 476.7 91.4ZM483.7 89.0L484.8 89.0L484.8 90.2L483.7 90.2L483.7 93.2Q483.7 93.5 483.8 93.7Q484.0 93.8 484.3 93.8L484.3 93.8Q484.4 93.8 484.5 93.8Q484.7 93.8 484.8 93.7L484.8 93.7L485.0 94.9Q484.7 95.0 484.5 95.1Q484.2 95.1 484.0 95.1L484.0 95.1Q483.1 95.1 482.6 94.6Q482.1 94.2 482.1 93.4L482.1 93.4L482.1 90.2L481.3 90.2L481.3 89.0L482.1 89.0L482.1 87.6L483.7 87.6L483.7 89.0ZM488.8 95L487.1 95L485.4 89.0L487.1 89.0L487.6 91.2Q487.7 91.8 487.9 92.5L487.9 92.5Q488.0 93.0 488.1 93.5L488.1 93.5Q488.2 93.0 488.3 92.5L488.3 92.5Q488.4 91.8 488.6 91.2L488.6 91.2L489.1 89.0L490.6 89.0L491.2 91.2Q491.3 91.8 491.5 92.5L491.5 92.5Q491.6 93.0 491.7 93.5L491.7 93.5Q491.8 93.0 491.9 92.5L491.9 92.5Q492.0 91.8 492.2 91.2L492.2 91.2L492.7 89.0L494.4 89.0L492.6 95L491.0 95L490.3 92.7Q490.2 92.3 490.1 91.9Q490.0 91.5 489.9 91.1L489.9 91.1Q489.9 91.0 489.9 90.8L489.9 90.8Q489.9 91.0 489.8 91.1L489.8 91.1Q489.7 91.5 489.6 91.9Q489.5 92.3 489.4 92.7L489.4 92.7L488.8 95ZM497.9 95.1L497.9 95.1Q497.0 95.1 496.4 94.7Q495.7 94.3 495.3 93.6Q495.0 92.9 495.0 92.0L495.0 92.0Q495.0 91.1 495.3 90.4Q495.7 89.7 496.4 89.3Q497.0 88.9 497.9 88.9L497.9 88.9Q498.8 88.9 499.5 89.3Q500.1 89.7 500.5 90.4Q500.9 91.1 500.9 92.0L500.9 92.0Q500.9 92.9 500.5 93.6Q500.1 94.3 499.5 94.7Q498.8 95.1 497.9 95.1ZM497.9 93.9L497.9 93.9Q498.4 93.9 498.6 93.6Q498.9 93.4 499.1 93.0Q499.2 92.5 499.2 92.0L499.2 92.0Q499.2 91.5 499.1 91.1Q498.9 90.7 498.6 90.4Q498.4 90.2 497.9 90.2L497.9 90.2Q497.5 90.2 497.2 90.4Q496.9 90.7 496.8 91.1Q496.6 91.5 496.6 92.0L496.6 92.0Q496.6 92.5 496.8 93.0Q496.9 93.4 497.2 93.6Q497.5 93.9 497.9 93.9ZM503.6 95L502.0 95L502.0 89.0L503.5 89.0L503.5 90.0L503.6 90.0Q503.8 89.5 504.2 89.2Q504.6 88.9 505.1 88.9L505.1 88.9Q505.2 88.9 505.3 88.9Q505.5 88.9 505.6 89.0L505.6 89.0L505.6 90.4Q505.5 90.4 505.3 90.3Q505.1 90.3 504.9 90.3L504.9 90.3Q504.5 90.3 504.2 90.5Q503.9 90.6 503.8 90.9Q503.6 91.2 503.6 91.6L503.6 91.6L503.6 95ZM508.1 95L506.5 95L506.5 87.0L508.1 87.0L508.1 91.3L508.2 91.3L510.1 89.0L512.0 89.0L509.8 91.6L512.1 95L510.2 95L508.5 92.6L508.1 93.1L508.1 95ZM515.2 95.1L515.2 95.1Q514.5 95.1 513.9 94.9Q513.4 94.7 513.0 94.3Q512.7 93.9 512.6 93.4L512.6 93.4L514.1 93.1Q514.2 93.5 514.5 93.7Q514.8 93.9 515.3 93.9L515.3 93.9Q515.7 93.9 516.0 93.8Q516.3 93.6 516.3 93.3L516.3 93.3Q516.3 93.1 516.1 92.9Q515.9 92.8 515.5 92.7L515.5 92.7L514.5 92.5Q513.6 92.3 513.2 91.9Q512.7 91.5 512.7 90.8L512.7 90.8Q512.7 90.2 513.1 89.8Q513.4 89.4 513.9 89.1Q514.5 88.9 515.3 88.9L515.3 88.9Q516.0 88.9 516.5 89.1Q517.0 89.3 517.3 89.7Q517.7 90.0 517.8 90.5L517.8 90.5L516.3 90.8Q516.2 90.5 516.0 90.3Q515.7 90.1 515.3 90.1L515.3 90.1Q514.9 90.1 514.6 90.2Q514.3 90.4 514.3 90.7L514.3 90.7Q514.3 90.9 514.5 91.1Q514.7 91.2 515.1 91.3L515.1 91.3L516.2 91.5Q517.1 91.7 517.5 92.1Q517.9 92.5 517.9 93.1L517.9 93.1Q517.9 93.7 517.6 94.2Q517.2 94.6 516.6 94.9Q516.0 95.1 515.2 95.1Z "/></g><mask id="satori_om-id-1-2"><rect x="41" y="110" width="778" height="19" fill="#fff"/></mask><mask id="satori_om-id-1-2-0"><rect x="41" y="113" width="110" height="13" fill="#fff"/></mask><g  ><path fill="rgba(33,187,133,0.4)" d="M43.8 115.6L44.7 115.6L42.1 125.2L41.2 125.2L43.8 115.6ZM47.8 115.6L48.7 115.6L46.1 125.2L45.2 125.2L47.8 115.6Z M55.3 124.1L55.3 124.1Q54.5 124.1 53.9 123.7Q53.3 123.4 52.9 122.7Q52.6 122.0 52.6 121.0L52.6 121.0Q52.6 120.1 52.9 119.4Q53.3 118.7 53.9 118.3Q54.5 117.9 55.3 117.9L55.3 117.9Q56.1 117.9 56.8 118.3Q57.4 118.7 57.7 119.4Q58.1 120.1 58.1 121.0L58.1 121.0Q58.1 122.0 57.7 122.7Q57.4 123.4 56.8 123.7Q56.1 124.1 55.3 124.1ZM55.3 123.3L55.3 123.3Q55.9 123.3 56.3 123.0Q56.7 122.6 56.9 122.1Q57.1 121.6 57.1 121.0L57.1 121.0Q57.1 120.4 56.9 119.9Q56.7 119.4 56.3 119.1Q55.9 118.8 55.3 118.8L55.3 118.8Q54.7 118.8 54.3 119.1Q53.9 119.4 53.8 119.9Q53.6 120.4 53.6 121.0L53.6 121.0Q53.6 121.6 53.8 122.1Q53.9 122.6 54.3 123.0Q54.7 123.3 55.3 123.3ZM60.6 118.0L61.8 118.0L61.8 118.8L60.6 118.8L60.6 122.4Q60.6 122.8 60.8 123.0Q60.9 123.2 61.3 123.2L61.3 123.2Q61.4 123.2 61.5 123.2Q61.7 123.2 61.8 123.2L61.8 123.2L62.0 124.0Q61.8 124.0 61.7 124.0Q61.5 124.1 61.3 124.1L61.3 124.1Q60.5 124.1 60.1 123.7Q59.6 123.3 59.6 122.5L59.6 122.5L59.6 118.8L58.7 118.8L58.7 118.0L59.6 118.0L59.6 116.6L60.6 116.6L60.6 118.0ZM64.0 120.4L64.0 120.4L64.0 124L63.1 124L63.1 116.0L64.0 116.0L64.0 119.0Q64.3 118.5 64.6 118.3L64.6 118.3Q65.2 117.9 65.8 117.9L65.8 117.9Q66.4 117.9 66.9 118.2Q67.4 118.4 67.6 118.9Q67.9 119.4 67.9 120.2L67.9 120.2L67.9 124L66.9 124L66.9 120.3Q66.9 119.6 66.5 119.2Q66.2 118.8 65.5 118.8L65.5 118.8Q65.1 118.8 64.8 119.0Q64.4 119.2 64.2 119.5Q64.0 119.9 64.0 120.4ZM72.1 124.1L72.1 124.1Q71.2 124.1 70.6 123.7Q70.0 123.4 69.6 122.7Q69.3 122.0 69.3 121.0Q69.3 120.1 69.6 119.4Q69.9 118.7 70.6 118.3Q71.2 117.9 72.0 117.9L72.0 117.9Q72.5 117.9 72.9 118.1Q73.4 118.2 73.8 118.6Q74.1 118.9 74.4 119.5Q74.6 120.1 74.6 120.9L74.6 120.9L74.6 121.3L70.3 121.3Q70.3 121.9 70.5 122.3L70.5 122.3Q70.7 122.8 71.1 123.0Q71.6 123.3 72.1 123.3L72.1 123.3Q72.5 123.3 72.7 123.2Q73.0 123.1 73.2 122.9Q73.5 122.7 73.6 122.3L73.6 122.3L74.5 122.6Q74.4 123.1 74.0 123.4Q73.7 123.7 73.2 123.9Q72.7 124.1 72.1 124.1ZM70.3 120.5L70.3 120.5L73.6 120.5Q73.6 120.1 73.4 119.8L73.4 119.8Q73.3 119.3 72.9 119.0Q72.5 118.8 72.0 118.8Q71.4 118.8 71.1 119.0Q70.7 119.3 70.5 119.7L70.5 119.7Q70.3 120.1 70.3 120.5ZM76.9 124L76.0 124L76.0 118.0L76.9 118.0L76.9 118.9L77.0 118.9Q77.1 118.5 77.6 118.2Q78.0 117.9 78.5 117.9L78.5 117.9Q78.6 117.9 78.8 117.9Q78.9 117.9 79.0 117.9L79.0 117.9L79.0 118.9Q79.0 118.9 78.8 118.9Q78.6 118.8 78.4 118.8L78.4 118.8Q78.0 118.8 77.7 119.0Q77.3 119.2 77.1 119.5Q76.9 119.8 76.9 120.2L76.9 120.2L76.9 124Z "/></g><mask id="satori_om-id-1-2-1"><rect x="165" y="110" width="315" height="19" fill="#fff"/></mask><defs><clipPath id="satori_bc-id-1-2-1-0"><path x="165" y="110" width="62" height="19" d="M169,110 h54 a4,4 0 0 1 4,4 v11 a4,4 0 0 1 -4,4 h-54 a4,4 0 0 1 -4,-4 v-11 a4,4 0 0 1 4,-4"/></clipPath></defs><mask id="satori_om-id-1-2-1-0"><rect x="166" y="111" width="60" height="17" fill="#fff"/><path width="62" height="19" fill="none" stroke="#000" stroke-width="2" d="M166.172,111.172 A4,4 0 0 1 169,110 h54 a4,4 0 0 1 4,4 v11 a4,4 0 0 1 -4,4 h-54 a4,4 0 0 1 -4,-4 v-11 A4,4 0 0 1 166.172,111.172"/></mask><path x="165" y="110" width="62" height="19" fill="rgba(33,187,133,0.08)" d="M169,110 h54 a4,4 0 0 1 4,4 v11 a4,4 0 0 1 -4,4 h-54 a4,4 0 0 1 -4,-4 v-11 a4,4 0 0 1 4,-4"/><path width="62" height="19" clip-path="url(#satori_bc-id-1-2-1-0)" fill="none" stroke="rgba(33,187,133,0.2)" stroke-width="2" d="M166.172,111.172 A4,4 0 0 1 169,110 h54 a4,4 0 0 1 4,4 v11 a4,4 0 0 1 -4,4 h-54 a4,4 0 0 1 -4,-4 v-11 A4,4 0 0 1 166.172,111.172"/><g  ><path fill="rgba(33,230,160,0.8)" d="M178.0 124.1L178.0 124.1Q176.8 124.1 176.1 123.5Q175.4 122.8 175.4 121.6L175.4 121.6L175.4 121.1L177.0 121.1L177.0 121.6Q177.0 122.2 177.3 122.5Q177.6 122.8 178.0 122.8L178.0 122.8Q178.5 122.8 178.8 122.5Q179.1 122.2 179.1 121.6L179.1 121.6L179.1 116.0L180.7 116.0L180.7 121.6Q180.7 122.8 180.0 123.5Q179.3 124.1 178.0 124.1ZM184.2 124.1L184.2 124.1Q183.6 124.1 183.1 123.8Q182.6 123.5 182.4 123.0Q182.1 122.5 182.1 121.8L182.1 121.8L182.1 118.0L183.7 118.0L183.7 121.5Q183.7 122.1 184.0 122.4Q184.3 122.7 184.8 122.7L184.8 122.7Q185.2 122.7 185.4 122.6Q185.7 122.4 185.8 122.1Q186.0 121.9 186.0 121.5L186.0 121.5L186.0 118.0L187.6 118.0L187.6 124L186.1 124L186.1 122.7Q185.8 123.3 185.4 123.7L185.4 123.7Q184.9 124.1 184.2 124.1ZM190.6 126.2L189.0 126.2L189.0 118.0L190.5 118.0L190.5 119.0L190.6 119.0Q190.7 118.8 190.9 118.5Q191.2 118.3 191.5 118.1Q191.8 117.9 192.3 117.9L192.3 117.9Q193.0 117.9 193.6 118.3Q194.1 118.6 194.4 119.3Q194.8 120.0 194.8 121.0L194.8 121.0Q194.8 122.0 194.4 122.7Q194.1 123.4 193.6 123.7Q193.0 124.1 192.3 124.1L192.3 124.1Q191.8 124.1 191.5 123.9Q191.2 123.8 190.9 123.5Q190.7 123.3 190.6 123.0L190.6 123.0L190.6 123.0L190.6 126.2ZM191.8 122.8L191.8 122.8Q192.3 122.8 192.5 122.6Q192.8 122.3 193.0 121.9Q193.1 121.5 193.1 121.0L193.1 121.0Q193.1 120.5 193.0 120.1Q192.8 119.7 192.5 119.4Q192.3 119.2 191.8 119.2L191.8 119.2Q191.4 119.2 191.1 119.4Q190.8 119.7 190.7 120.1Q190.5 120.5 190.5 121.0L190.5 121.0Q190.5 121.5 190.7 122.0Q190.8 122.4 191.1 122.6Q191.4 122.8 191.8 122.8ZM195.9 126.1L195.9 126.1L196.2 124.9L196.4 125.0Q196.7 125.0 197 125.0Q197.3 125.0 197.4 124.8Q197.6 124.6 197.6 124.3L197.6 124.3L197.6 124.0L195.4 118.0L197.1 118.0L198.1 121.1Q198.3 121.7 198.4 122.3L198.4 122.3Q198.4 122.5 198.5 122.7L198.5 122.7Q198.5 122.5 198.6 122.3L198.6 122.3Q198.7 121.7 198.9 121.1L198.9 121.1L200.0 118.0L201.7 118.0L199.1 124.7Q198.9 125.2 198.6 125.5Q198.4 125.9 197.9 126.1Q197.5 126.3 196.9 126.3L196.9 126.3Q196.6 126.3 196.3 126.2Q196.0 126.2 195.9 126.1ZM204.4 118.0L205.5 118.0L205.5 119.2L204.4 119.2L204.4 122.2Q204.4 122.5 204.5 122.7Q204.6 122.8 204.9 122.8L204.9 122.8Q205.0 122.8 205.2 122.8Q205.4 122.8 205.4 122.7L205.4 122.7L205.7 123.9Q205.4 124.0 205.1 124.1Q204.9 124.1 204.6 124.1L204.6 124.1Q203.7 124.1 203.2 123.6Q202.8 123.2 202.8 122.4L202.8 122.4L202.8 119.2L201.9 119.2L201.9 118.0L202.8 118.0L202.8 116.6L204.4 116.6L204.4 118.0ZM209.3 124.1L209.3 124.1Q208.3 124.1 207.7 123.7Q207.0 123.4 206.7 122.7Q206.3 122.0 206.3 121.0L206.3 121.0Q206.3 120.1 206.7 119.4Q207.0 118.7 207.7 118.3Q208.3 117.9 209.2 117.9L209.2 117.9Q209.8 117.9 210.3 118.1Q210.8 118.3 211.2 118.7Q211.6 119.1 211.8 119.6Q212.0 120.2 212.0 121.0L212.0 121.0L212.0 121.4L207.9 121.4Q207.9 121.9 208.1 122.2L208.1 122.2Q208.2 122.5 208.6 122.7Q208.9 122.9 209.3 122.9L209.3 122.9Q209.6 122.9 209.8 122.8Q210.0 122.7 210.2 122.6Q210.4 122.4 210.4 122.2L210.4 122.2L211.9 122.5Q211.8 123.0 211.4 123.3Q211.0 123.7 210.5 123.9Q210.0 124.1 209.3 124.1ZM207.9 120.4L207.9 120.4L210.4 120.4Q210.4 120.1 210.3 119.9L210.3 119.9Q210.2 119.5 209.9 119.3Q209.6 119.1 209.2 119.1L209.2 119.1Q208.8 119.1 208.5 119.3Q208.2 119.5 208.0 119.8L208.0 119.8Q207.9 120.1 207.9 120.4ZM214.7 124L213.1 124L213.1 118.0L214.7 118.0L214.7 119.0L214.7 119.0Q214.9 118.5 215.3 118.2Q215.7 117.9 216.2 117.9L216.2 117.9Q216.3 117.9 216.4 117.9Q216.6 117.9 216.7 118.0L216.7 118.0L216.7 119.4Q216.6 119.4 216.4 119.3Q216.2 119.3 216.0 119.3L216.0 119.3Q215.6 119.3 215.3 119.5Q215.0 119.6 214.9 119.9Q214.7 120.2 214.7 120.6L214.7 120.6L214.7 124Z "/></g><defs><clipPath id="satori_bc-id-1-2-1-1"><path x="234" y="110" width="42" height="19" d="M238,110 h34 a4,4 0 0 1 4,4 v11 a4,4 0 0 1 -4,4 h-34 a4,4 0 0 1 -4,-4 v-11 a4,4 0 0 1 4,-4"/></clipPath></defs><mask id="satori_om-id-1-2-1-1"><rect x="235" y="111" width="40" height="17" fill="#fff"/><path width="42" height="19" fill="none" stroke="#000" stroke-width="2" d="M235.172,111.172 A4,4 0 0 1 238,110 h34 a4,4 0 0 1 4,4 v11 a4,4 0 0 1 -4,4 h-34 a4,4 0 0 1 -4,-4 v-11 A4,4 0 0 1 235.172,111.172"/></mask><path x="234" y="110" width="42" height="19" fill="rgba(33,187,133,0.08)" d="M238,110 h34 a4,4 0 0 1 4,4 v11 a4,4 0 0 1 -4,4 h-34 a4,4 0 0 1 -4,-4 v-11 a4,4 0 0 1 4,-4"/><path width="42" height="19" clip-path="url(#satori_bc-id-1-2-1-1)" fill="none" stroke="rgba(33,187,133,0.2)" stroke-width="2" d="M235.172,111.172 A4,4 0 0 1 238,110 h34 a4,4 0 0 1 4,4 v11 a4,4 0 0 1 -4,4 h-34 a4,4 0 0 1 -4,-4 v-11 A4,4 0 0 1 235.172,111.172"/><g  ><path fill="rgba(33,230,160,0.8)" d="M247.7 124.1L247.7 124.1Q246.7 124.1 246.0 123.8Q245.3 123.5 244.9 122.9Q244.5 122.4 244.5 121.5L244.5 121.5L246.1 121.5Q246.1 121.9 246.3 122.2Q246.5 122.5 246.9 122.6Q247.2 122.7 247.6 122.7L247.6 122.7Q248.1 122.7 248.4 122.6Q248.7 122.5 248.9 122.2Q249.1 122.0 249.1 121.7L249.1 121.7Q249.1 121.4 248.9 121.3Q248.8 121.1 248.5 120.9Q248.2 120.8 247.7 120.7L247.7 120.7L246.8 120.5Q245.8 120.2 245.2 119.7Q244.7 119.2 244.7 118.3L244.7 118.3Q244.7 117.6 245.1 117.0Q245.5 116.5 246.1 116.2Q246.8 115.9 247.7 115.9L247.7 115.9Q248.6 115.9 249.2 116.2Q249.9 116.5 250.3 117.0Q250.6 117.6 250.6 118.3L250.6 118.3L249.1 118.3Q249.0 117.8 248.6 117.5Q248.3 117.3 247.7 117.3L247.7 117.3Q247.2 117.3 247.0 117.4Q246.7 117.5 246.5 117.7Q246.4 117.9 246.4 118.2L246.4 118.2Q246.4 118.5 246.5 118.7Q246.7 118.9 247.0 119.0Q247.3 119.1 247.6 119.2L247.6 119.2L248.4 119.4Q248.9 119.5 249.3 119.7Q249.7 119.9 250.1 120.2Q250.4 120.4 250.6 120.8Q250.7 121.2 250.7 121.7L250.7 121.7Q250.7 122.4 250.4 123.0Q250.0 123.5 249.3 123.8Q248.6 124.1 247.7 124.1ZM255.4 124.1L255.4 124.1Q254.4 124.1 253.5 123.6Q252.7 123.1 252.2 122.2Q251.7 121.3 251.7 120.0L251.7 120.0Q251.7 118.7 252.2 117.8Q252.7 116.9 253.5 116.4Q254.4 115.9 255.4 115.9L255.4 115.9Q256.5 115.9 257.3 116.4Q258.2 116.9 258.7 117.8Q259.2 118.7 259.2 120.0L259.2 120.0Q259.2 121.3 258.7 122.2L258.7 122.2Q258.4 122.8 257.9 123.2L257.9 123.2L259.1 124.7L257.5 124.7L256.9 123.8Q256.2 124.1 255.4 124.1ZM256.0 122.6L254.9 121.3L256.3 121.3L256.9 122.0Q257.1 121.8 257.3 121.4L257.3 121.4Q257.5 120.9 257.5 120.0L257.5 120.0Q257.5 119.1 257.3 118.5Q257.0 118.0 256.5 117.6Q256.1 117.3 255.4 117.3L255.4 117.3Q254.8 117.3 254.4 117.7Q253.9 118.0 253.6 118.6Q253.4 119.1 253.4 120.0L253.4 120.0Q253.4 120.9 253.6 121.4Q253.9 122.0 254.4 122.3Q254.8 122.7 255.4 122.7L255.4 122.7Q255.7 122.7 256.0 122.6L256.0 122.6ZM265.6 124L260.5 124L260.5 116.0L262.1 116.0L262.1 122.6L265.6 122.6L265.6 124Z "/></g><defs><clipPath id="satori_bc-id-1-2-1-2"><path x="283" y="110" width="46" height="19" d="M287,110 h38 a4,4 0 0 1 4,4 v11 a4,4 0 0 1 -4,4 h-38 a4,4 0 0 1 -4,-4 v-11 a4,4 0 0 1 4,-4"/></clipPath></defs><mask id="satori_om-id-1-2-1-2"><rect x="284" y="111" width="44" height="17" fill="#fff"/><path width="46" height="19" fill="none" stroke="#000" stroke-width="2" d="M284.172,111.172 A4,4 0 0 1 287,110 h38 a4,4 0 0 1 4,4 v11 a4,4 0 0 1 -4,4 h-38 a4,4 0 0 1 -4,-4 v-11 A4,4 0 0 1 284.172,111.172"/></mask><path x="283" y="110" width="46" height="19" fill="rgba(33,187,133,0.08)" d="M287,110 h38 a4,4 0 0 1 4,4 v11 a4,4 0 0 1 -4,4 h-38 a4,4 0 0 1 -4,-4 v-11 a4,4 0 0 1 4,-4"/><path width="46" height="19" clip-path="url(#satori_bc-id-1-2-1-2)" fill="none" stroke="rgba(33,187,133,0.2)" stroke-width="2" d="M284.172,111.172 A4,4 0 0 1 287,110 h38 a4,4 0 0 1 4,4 v11 a4,4 0 0 1 -4,4 h-38 a4,4 0 0 1 -4,-4 v-11 A4,4 0 0 1 284.172,111.172"/><g  ><path fill="rgba(33,230,160,0.8)" d="M296.0 124.1L296.0 124.1Q294.8 124.1 294.1 123.5Q293.4 122.8 293.4 121.6L293.4 121.6L293.4 121.1L295.0 121.1L295.0 121.6Q295.0 122.2 295.3 122.5Q295.6 122.8 296.0 122.8L296.0 122.8Q296.5 122.8 296.8 122.5Q297.1 122.2 297.1 121.6L297.1 121.6L297.1 116.0L298.7 116.0L298.7 121.6Q298.7 122.8 298.0 123.5Q297.3 124.1 296.0 124.1ZM301.8 124.1L301.8 124.1Q301.2 124.1 300.8 123.9Q300.3 123.7 300.1 123.3Q299.8 122.9 299.8 122.3L299.8 122.3Q299.8 121.8 300.0 121.5Q300.2 121.1 300.5 120.9Q300.8 120.7 301.2 120.6Q301.6 120.5 302.1 120.5L302.1 120.5Q302.6 120.4 302.9 120.4Q303.2 120.3 303.4 120.2Q303.5 120.1 303.5 119.9L303.5 119.9L303.5 119.9Q303.5 119.7 303.4 119.5Q303.3 119.3 303.1 119.2Q302.9 119.1 302.6 119.1L302.6 119.1Q302.3 119.1 302.0 119.2Q301.8 119.3 301.7 119.5Q301.5 119.6 301.4 119.8L301.4 119.8L300.0 119.6Q300.1 119.0 300.5 118.7Q300.8 118.3 301.4 118.1Q301.9 117.9 302.6 117.9L302.6 117.9Q303.1 117.9 303.5 118.0Q304.0 118.2 304.3 118.4Q304.7 118.6 304.9 119.0Q305.1 119.4 305.1 120.0L305.1 120.0L305.1 124L303.6 124L303.6 123.2L303.5 123.2Q303.4 123.4 303.2 123.7Q302.9 123.9 302.6 124.0Q302.2 124.1 301.8 124.1ZM302.2 123.0L302.2 123.0Q302.6 123.0 302.9 122.8Q303.2 122.7 303.4 122.4Q303.5 122.2 303.5 121.9L303.5 121.9L303.5 121.2Q303.5 121.3 303.3 121.3Q303.2 121.3 303.0 121.4Q302.8 121.4 302.6 121.4Q302.5 121.5 302.3 121.5L302.3 121.5Q302.0 121.5 301.8 121.6Q301.6 121.7 301.5 121.9Q301.3 122.0 301.3 122.3L301.3 122.3Q301.3 122.5 301.5 122.7Q301.6 122.8 301.8 122.9Q302.0 123.0 302.2 123.0ZM310.0 124L308.2 124L306.0 118.0L307.7 118.0L308.7 121.1Q308.9 121.7 309.0 122.3L309.0 122.3Q309.1 122.5 309.1 122.8L309.1 122.8Q309.2 122.5 309.2 122.3L309.2 122.3Q309.4 121.7 309.6 121.1L309.6 121.1L310.6 118.0L312.2 118.0L310.0 124ZM314.8 124.1L314.8 124.1Q314.2 124.1 313.8 123.9Q313.3 123.7 313.0 123.3Q312.8 122.9 312.8 122.3L312.8 122.3Q312.8 121.8 313.0 121.5Q313.1 121.1 313.5 120.9Q313.8 120.7 314.2 120.6Q314.6 120.5 315.0 120.5L315.0 120.5Q315.6 120.4 315.9 120.4Q316.2 120.3 316.4 120.2Q316.5 120.1 316.5 119.9L316.5 119.9L316.5 119.9Q316.5 119.7 316.4 119.5Q316.3 119.3 316.1 119.2Q315.9 119.1 315.6 119.1L315.6 119.1Q315.2 119.1 315.0 119.2Q314.8 119.3 314.6 119.5Q314.5 119.6 314.4 119.8L314.4 119.8L312.9 119.6Q313.1 119.0 313.5 118.7Q313.8 118.3 314.4 118.1Q314.9 117.9 315.6 117.9L315.6 117.9Q316.0 117.9 316.5 118.0Q317.0 118.2 317.3 118.4Q317.7 118.6 317.9 119.0Q318.1 119.4 318.1 120.0L318.1 120.0L318.1 124L316.6 124L316.6 123.2L316.5 123.2Q316.4 123.4 316.1 123.7Q315.9 123.9 315.6 124.0Q315.2 124.1 314.8 124.1ZM315.2 123.0L315.2 123.0Q315.6 123.0 315.9 122.8Q316.2 122.7 316.3 122.4Q316.5 122.2 316.5 121.9L316.5 121.9L316.5 121.2Q316.4 121.3 316.3 121.3Q316.1 121.3 316.0 121.4Q315.8 121.4 315.6 121.4Q315.5 121.5 315.3 121.5L315.3 121.5Q315.0 121.5 314.8 121.6Q314.6 121.7 314.4 121.9Q314.3 122.0 314.3 122.3L314.3 122.3Q314.3 122.5 314.4 122.7Q314.6 122.8 314.8 122.9Q315.0 123.0 315.2 123.0Z "/></g><defs><clipPath id="satori_bc-id-1-2-1-3"><path x="336" y="110" width="78" height="19" d="M340,110 h70 a4,4 0 0 1 4,4 v11 a4,4 0 0 1 -4,4 h-70 a4,4 0 0 1 -4,-4 v-11 a4,4 0 0 1 4,-4"/></clipPath></defs><mask id="satori_om-id-1-2-1-3"><rect x="337" y="111" width="76" height="17" fill="#fff"/><path width="78" height="19" fill="none" stroke="#000" stroke-width="2" d="M337.172,111.172 A4,4 0 0 1 340,110 h70 a4,4 0 0 1 4,4 v11 a4,4 0 0 1 -4,4 h-70 a4,4 0 0 1 -4,-4 v-11 A4,4 0 0 1 337.172,111.172"/></mask><path x="336" y="110" width="78" height="19" fill="rgba(33,187,133,0.08)" d="M340,110 h70 a4,4 0 0 1 4,4 v11 a4,4 0 0 1 -4,4 h-70 a4,4 0 0 1 -4,-4 v-11 a4,4 0 0 1 4,-4"/><path width="78" height="19" clip-path="url(#satori_bc-id-1-2-1-3)" fill="none" stroke="rgba(33,187,133,0.2)" stroke-width="2" d="M337.172,111.172 A4,4 0 0 1 340,110 h70 a4,4 0 0 1 4,4 v11 a4,4 0 0 1 -4,4 h-70 a4,4 0 0 1 -4,-4 v-11 A4,4 0 0 1 337.172,111.172"/><g  ><path fill="rgba(33,230,160,0.8)" d="M349.0 124.1L349.0 124.1Q347.8 124.1 347.1 123.5Q346.4 122.8 346.4 121.6L346.4 121.6L346.4 121.1L348.0 121.1L348.0 121.6Q348.0 122.2 348.3 122.5Q348.6 122.8 349.0 122.8L349.0 122.8Q349.5 122.8 349.8 122.5Q350.1 122.2 350.1 121.6L350.1 121.6L350.1 116.0L351.7 116.0L351.7 121.6Q351.7 122.8 351.0 123.5Q350.3 124.1 349.0 124.1ZM354.8 124.1L354.8 124.1Q354.2 124.1 353.8 123.9Q353.3 123.7 353.1 123.3Q352.8 122.9 352.8 122.3L352.8 122.3Q352.8 121.8 353.0 121.5Q353.2 121.1 353.5 120.9Q353.8 120.7 354.2 120.6Q354.6 120.5 355.1 120.5L355.1 120.5Q355.6 120.4 355.9 120.4Q356.2 120.3 356.4 120.2Q356.5 120.1 356.5 119.9L356.5 119.9L356.5 119.9Q356.5 119.7 356.4 119.5Q356.3 119.3 356.1 119.2Q355.9 119.1 355.6 119.1L355.6 119.1Q355.3 119.1 355.0 119.2Q354.8 119.3 354.7 119.5Q354.5 119.6 354.4 119.8L354.4 119.8L353.0 119.6Q353.1 119.0 353.5 118.7Q353.8 118.3 354.4 118.1Q354.9 117.9 355.6 117.9L355.6 117.9Q356.1 117.9 356.5 118.0Q357.0 118.2 357.3 118.4Q357.7 118.6 357.9 119.0Q358.1 119.4 358.1 120.0L358.1 120.0L358.1 124L356.6 124L356.6 123.2L356.5 123.2Q356.4 123.4 356.2 123.7Q355.9 123.9 355.6 124.0Q355.2 124.1 354.8 124.1ZM355.2 123.0L355.2 123.0Q355.6 123.0 355.9 122.8Q356.2 122.7 356.4 122.4Q356.5 122.2 356.5 121.9L356.5 121.9L356.5 121.2Q356.5 121.3 356.3 121.3Q356.2 121.3 356.0 121.4Q355.8 121.4 355.6 121.4Q355.5 121.5 355.3 121.5L355.3 121.5Q355.0 121.5 354.8 121.6Q354.6 121.7 354.5 121.9Q354.3 122.0 354.3 122.3L354.3 122.3Q354.3 122.5 354.5 122.7Q354.6 122.8 354.8 122.9Q355.0 123.0 355.2 123.0ZM363.0 124L361.2 124L359.0 118.0L360.7 118.0L361.7 121.1Q361.9 121.7 362.0 122.3L362.0 122.3Q362.1 122.5 362.1 122.8L362.1 122.8Q362.2 122.5 362.2 122.3L362.2 122.3Q362.4 121.7 362.6 121.1L362.6 121.1L363.6 118.0L365.2 118.0L363.0 124ZM367.8 124.1L367.8 124.1Q367.2 124.1 366.8 123.9Q366.3 123.7 366.0 123.3Q365.8 122.9 365.8 122.3L365.8 122.3Q365.8 121.8 366.0 121.5Q366.1 121.1 366.5 120.9Q366.8 120.7 367.2 120.6Q367.6 120.5 368.0 120.5L368.0 120.5Q368.6 120.4 368.9 120.4Q369.2 120.3 369.4 120.2Q369.5 120.1 369.5 119.9L369.5 119.9L369.5 119.9Q369.5 119.7 369.4 119.5Q369.3 119.3 369.1 119.2Q368.9 119.1 368.6 119.1L368.6 119.1Q368.2 119.1 368.0 119.2Q367.8 119.3 367.6 119.5Q367.5 119.6 367.4 119.8L367.4 119.8L365.9 119.6Q366.1 119.0 366.5 118.7Q366.8 118.3 367.4 118.1Q367.9 117.9 368.6 117.9L368.6 117.9Q369.0 117.9 369.5 118.0Q370.0 118.2 370.3 118.4Q370.7 118.6 370.9 119.0Q371.1 119.4 371.1 120.0L371.1 120.0L371.1 124L369.6 124L369.6 123.2L369.5 123.2Q369.4 123.4 369.1 123.7Q368.9 123.9 368.6 124.0Q368.2 124.1 367.8 124.1ZM368.2 123.0L368.2 123.0Q368.6 123.0 368.9 122.8Q369.2 122.7 369.3 122.4Q369.5 122.2 369.5 121.9L369.5 121.9L369.5 121.2Q369.4 121.3 369.3 121.3Q369.1 121.3 369.0 121.4Q368.8 121.4 368.6 121.4Q368.5 121.5 368.3 121.5L368.3 121.5Q368.0 121.5 367.8 121.6Q367.6 121.7 367.4 121.9Q367.3 122.0 367.3 122.3L367.3 122.3Q367.3 122.5 367.4 122.7Q367.6 122.8 367.8 122.9Q368.0 123.0 368.2 123.0ZM375.5 124.1L375.5 124.1Q374.5 124.1 373.8 123.8Q373.1 123.5 372.7 122.9Q372.3 122.4 372.3 121.5L372.3 121.5L373.8 121.5Q373.9 121.9 374.1 122.2Q374.3 122.5 374.6 122.6Q375.0 122.7 375.4 122.7L375.4 122.7Q375.9 122.7 376.2 122.6Q376.5 122.5 376.7 122.2Q376.9 122.0 376.9 121.7L376.9 121.7Q376.9 121.4 376.7 121.3Q376.6 121.1 376.3 120.9Q376.0 120.8 375.5 120.7L375.5 120.7L374.6 120.5Q373.6 120.2 373.0 119.7Q372.5 119.2 372.5 118.3L372.5 118.3Q372.5 117.6 372.9 117.0Q373.2 116.5 373.9 116.2Q374.6 115.9 375.5 115.9L375.5 115.9Q376.4 115.9 377.0 116.2Q377.7 116.5 378.1 117.0Q378.4 117.6 378.4 118.3L378.4 118.3L376.9 118.3Q376.8 117.8 376.4 117.5Q376.1 117.3 375.5 117.3L375.5 117.3Q375.0 117.3 374.8 117.4Q374.5 117.5 374.3 117.7Q374.1 117.9 374.1 118.2L374.1 118.2Q374.1 118.5 374.3 118.7Q374.5 118.9 374.8 119.0Q375.1 119.1 375.4 119.2L375.4 119.2L376.2 119.4Q376.7 119.5 377.1 119.7Q377.5 119.9 377.9 120.2Q378.2 120.4 378.4 120.8Q378.5 121.2 378.5 121.7L378.5 121.7Q378.5 122.4 378.2 123.0Q377.8 123.5 377.1 123.8Q376.4 124.1 375.5 124.1ZM382.4 124.1L382.4 124.1Q381.5 124.1 380.8 123.7Q380.1 123.3 379.8 122.6Q379.4 121.9 379.4 121.0L379.4 121.0Q379.4 120.1 379.8 119.4Q380.1 118.7 380.8 118.3Q381.5 117.9 382.4 117.9L382.4 117.9Q382.9 117.9 383.4 118.1Q383.8 118.2 384.2 118.5Q384.5 118.7 384.7 119.1Q385.0 119.5 385.0 119.9L385.0 119.9L383.5 120.2Q383.5 120.0 383.4 119.8Q383.3 119.6 383.1 119.5Q383.0 119.3 382.8 119.3Q382.6 119.2 382.4 119.2L382.4 119.2Q382.0 119.2 381.7 119.4Q381.4 119.6 381.2 120.1Q381.1 120.5 381.1 121.0L381.1 121.0Q381.1 121.6 381.2 122.0Q381.4 122.4 381.7 122.6Q382.0 122.9 382.4 122.9L382.4 122.9Q382.6 122.9 382.8 122.8Q383.0 122.7 383.2 122.6Q383.3 122.4 383.4 122.2Q383.5 122.0 383.6 121.8L383.6 121.8L385.1 122.1Q385.0 122.6 384.7 122.9Q384.5 123.3 384.2 123.6Q383.8 123.8 383.4 124.0Q382.9 124.1 382.4 124.1ZM387.8 124L386.2 124L386.2 118.0L387.7 118.0L387.7 119.0L387.8 119.0Q387.9 118.5 388.3 118.2Q388.7 117.9 389.2 117.9L389.2 117.9Q389.4 117.9 389.5 117.9Q389.6 117.9 389.8 118.0L389.8 118.0L389.8 119.4Q389.6 119.4 389.4 119.3Q389.2 119.3 389.1 119.3L389.1 119.3Q388.7 119.3 388.4 119.5Q388.1 119.6 387.9 119.9Q387.8 120.2 387.8 120.6L387.8 120.6L387.8 124ZM392.3 124L390.6 124L390.6 118.0L392.3 118.0L392.3 124ZM391.4 117.2L391.4 117.2Q391.1 117.2 390.8 117.0Q390.6 116.7 390.6 116.4L390.6 116.4Q390.6 116.0 390.8 115.8Q391.1 115.6 391.4 115.6L391.4 115.6Q391.8 115.6 392.1 115.8Q392.3 116.0 392.3 116.4L392.3 116.4Q392.3 116.7 392.1 117.0Q391.8 117.2 391.4 117.2ZM395.2 126.2L393.6 126.2L393.6 118.0L395.2 118.0L395.2 119.0L395.3 119.0Q395.4 118.8 395.6 118.5Q395.8 118.3 396.1 118.1Q396.5 117.9 397.0 117.9L397.0 117.9Q397.7 117.9 398.2 118.3Q398.8 118.6 399.1 119.3Q399.4 120.0 399.4 121.0L399.4 121.0Q399.4 122.0 399.1 122.7Q398.8 123.4 398.2 123.7Q397.7 124.1 397.0 124.1L397.0 124.1Q396.5 124.1 396.2 123.9Q395.8 123.8 395.6 123.5Q395.4 123.3 395.3 123.0L395.3 123.0L395.2 123.0L395.2 126.2ZM396.5 122.8L396.5 122.8Q396.9 122.8 397.2 122.6Q397.5 122.3 397.6 121.9Q397.8 121.5 397.8 121.0L397.8 121.0Q397.8 120.5 397.6 120.1Q397.5 119.7 397.2 119.4Q396.9 119.2 396.5 119.2L396.5 119.2Q396.1 119.2 395.8 119.4Q395.5 119.7 395.3 120.1Q395.2 120.5 395.2 121.0L395.2 121.0Q395.2 121.5 395.3 122.0Q395.5 122.4 395.8 122.6Q396.1 122.8 396.5 122.8ZM402.4 118.0L403.5 118.0L403.5 119.2L402.4 119.2L402.4 122.2Q402.4 122.5 402.5 122.7Q402.7 122.8 403.0 122.8L403.0 122.8Q403.1 122.8 403.2 122.8Q403.4 122.8 403.5 122.7L403.5 122.7L403.7 123.9Q403.4 124.0 403.2 124.1Q402.9 124.1 402.7 124.1L402.7 124.1Q401.8 124.1 401.3 123.6Q400.8 123.2 400.8 122.4L400.8 122.4L400.8 119.2L400.0 119.2L400.0 118.0L400.8 118.0L400.8 116.6L402.4 116.6L402.4 118.0Z "/></g><defs><clipPath id="satori_bc-id-1-2-1-4"><path x="421" y="110" width="59" height="19" d="M425,110 h51 a4,4 0 0 1 4,4 v11 a4,4 0 0 1 -4,4 h-51 a4,4 0 0 1 -4,-4 v-11 a4,4 0 0 1 4,-4"/></clipPath></defs><mask id="satori_om-id-1-2-1-4"><rect x="422" y="111" width="57" height="17" fill="#fff"/><path width="59" height="19" fill="none" stroke="#000" stroke-width="2" d="M422.172,111.172 A4,4 0 0 1 425,110 h51 a4,4 0 0 1 4,4 v11 a4,4 0 0 1 -4,4 h-51 a4,4 0 0 1 -4,-4 v-11 A4,4 0 0 1 422.172,111.172"/></mask><path x="421" y="110" width="59" height="19" fill="rgba(33,187,133,0.08)" d="M425,110 h51 a4,4 0 0 1 4,4 v11 a4,4 0 0 1 -4,4 h-51 a4,4 0 0 1 -4,-4 v-11 a4,4 0 0 1 4,-4"/><path width="59" height="19" clip-path="url(#satori_bc-id-1-2-1-4)" fill="none" stroke="rgba(33,187,133,0.2)" stroke-width="2" d="M422.172,111.172 A4,4 0 0 1 425,110 h51 a4,4 0 0 1 4,4 v11 a4,4 0 0 1 -4,4 h-51 a4,4 0 0 1 -4,-4 v-11 A4,4 0 0 1 422.172,111.172"/><g  ><path fill="rgba(33,230,160,0.8)" d="M433.4 124L431.7 124L431.7 116.0L433.6 116.0L436.1 120.0Q436.3 120.4 436.5 120.7Q436.7 121.1 436.9 121.5L436.9 121.5Q437.0 121.8 437.1 122.0L437.1 122.0Q437.1 121.8 437.1 121.6L437.1 121.6Q437.0 121.1 437.0 120.6Q437.0 120.2 437.0 119.8L437.0 119.8L437.0 116.0L438.7 116.0L438.7 124L436.8 124L434.5 120.3Q434.3 119.9 434.1 119.5Q433.8 119.1 433.6 118.7L433.6 118.7Q433.5 118.4 433.3 118.0L433.3 118.0Q433.3 118.3 433.3 118.7L433.3 118.7Q433.4 119.2 433.4 119.6Q433.4 120.0 433.4 120.3L433.4 120.3L433.4 124ZM442.8 124.1L442.8 124.1Q441.9 124.1 441.2 123.7Q440.5 123.4 440.2 122.7Q439.8 122.0 439.8 121.0L439.8 121.0Q439.8 120.1 440.2 119.4Q440.5 118.7 441.2 118.3Q441.8 117.9 442.7 117.9L442.7 117.9Q443.3 117.9 443.8 118.1Q444.3 118.3 444.7 118.7Q445.1 119.1 445.3 119.6Q445.5 120.2 445.5 121.0L445.5 121.0L445.5 121.4L441.4 121.4Q441.4 121.9 441.6 122.2L441.6 122.2Q441.8 122.5 442.1 122.7Q442.4 122.9 442.8 122.9L442.8 122.9Q443.1 122.9 443.3 122.8Q443.6 122.7 443.7 122.6Q443.9 122.4 444.0 122.2L444.0 122.2L445.4 122.5Q445.3 123.0 444.9 123.3Q444.6 123.7 444.0 123.9Q443.5 124.1 442.8 124.1ZM441.4 120.4L441.4 120.4L444.0 120.4Q443.9 120.1 443.8 119.9L443.8 119.9Q443.7 119.5 443.4 119.3Q443.1 119.1 442.7 119.1L442.7 119.1Q442.3 119.1 442.0 119.3Q441.7 119.5 441.6 119.8L441.6 119.8Q441.5 120.1 441.4 120.4ZM447.9 124L446.2 124L448.1 120.9L446.3 118.0L448.0 118.0L448.6 118.9Q448.8 119.4 449.0 119.9L449.0 119.9Q449.1 120.0 449.1 120.1L449.1 120.1Q449.2 120.0 449.3 119.9L449.3 119.9Q449.5 119.4 449.7 118.9L449.7 118.9L450.3 118.0L452.0 118.0L450.2 120.9L452.1 124L450.4 124L449.7 122.9Q449.4 122.4 449.2 122.0L449.2 122.0Q449.2 121.8 449.1 121.7L449.1 121.7Q449.1 121.8 449.0 122.0L449.0 122.0Q448.8 122.4 448.5 122.9L448.5 122.9L447.9 124ZM454.9 118.0L456.0 118.0L456.0 119.2L454.9 119.2L454.9 122.2Q454.9 122.5 455.0 122.7Q455.1 122.8 455.4 122.8L455.4 122.8Q455.5 122.8 455.7 122.8Q455.8 122.8 455.9 122.7L455.9 122.7L456.2 123.9Q455.9 124.0 455.6 124.1Q455.4 124.1 455.1 124.1L455.1 124.1Q454.2 124.1 453.7 123.6Q453.3 123.2 453.3 122.4L453.3 122.4L453.3 119.2L452.4 119.2L452.4 118.0L453.3 118.0L453.3 116.6L454.9 116.6L454.9 118.0ZM458.2 124.1L458.2 124.1Q457.8 124.1 457.5 123.8Q457.3 123.6 457.3 123.2L457.3 123.2Q457.3 122.8 457.5 122.5Q457.8 122.3 458.2 122.3L458.2 122.3Q458.6 122.3 458.8 122.5Q459.1 122.8 459.1 123.2L459.1 123.2Q459.1 123.6 458.8 123.8Q458.6 124.1 458.2 124.1ZM460.7 124.3L460.7 118.0L462.3 118.0L462.3 124.3Q462.3 125.0 462.1 125.4Q461.8 125.8 461.3 126.0Q460.8 126.2 460.1 126.2L460.1 126.2L459.8 126.2L459.8 125.0L460.0 125.0Q460.4 125.0 460.5 124.8Q460.7 124.6 460.7 124.3L460.7 124.3ZM461.5 117.2L461.5 117.2Q461.1 117.2 460.9 117.0Q460.6 116.7 460.6 116.4L460.6 116.4Q460.6 116.0 460.9 115.8Q461.1 115.6 461.5 115.6L461.5 115.6Q461.9 115.6 462.1 115.8Q462.4 116.0 462.4 116.4L462.4 116.4Q462.4 116.7 462.1 117.0Q461.9 117.2 461.5 117.2ZM466.1 124.1L466.1 124.1Q465.3 124.1 464.8 123.9Q464.2 123.7 463.9 123.3Q463.5 122.9 463.4 122.4L463.4 122.4L464.9 122.1Q465.0 122.5 465.3 122.7Q465.6 122.9 466.1 122.9L466.1 122.9Q466.6 122.9 466.8 122.8Q467.1 122.6 467.1 122.3L467.1 122.3Q467.1 122.1 466.9 121.9Q466.7 121.8 466.3 121.7L466.3 121.7L465.3 121.5Q464.4 121.3 464.0 120.9Q463.6 120.5 463.6 119.8L463.6 119.8Q463.6 119.2 463.9 118.8Q464.2 118.4 464.8 118.1Q465.3 117.9 466.1 117.9L466.1 117.9Q466.8 117.9 467.3 118.1Q467.9 118.3 468.2 118.7Q468.5 119.0 468.6 119.5L468.6 119.5L467.2 119.8Q467.1 119.5 466.8 119.3Q466.6 119.1 466.1 119.1L466.1 119.1Q465.7 119.1 465.5 119.2Q465.2 119.4 465.2 119.7L465.2 119.7Q465.2 119.9 465.4 120.1Q465.5 120.2 466.0 120.3L466.0 120.3L467.0 120.5Q467.9 120.7 468.3 121.1Q468.8 121.5 468.8 122.1L468.8 122.1Q468.8 122.7 468.4 123.2Q468.1 123.6 467.5 123.9Q466.9 124.1 466.1 124.1Z "/></g></svg>